%TF.GenerationSoftware,KiCad,Pcbnew,10.0.5*%
%TF.CreationDate,2026-09-27T17:35:43-04:00*%
%TF.ProjectId,power reference board,706f7765-7220-4726-9566-6572656e6365,rev?*%
%TF.SameCoordinates,Original*%
%TF.FileFunction,Copper,L1,Top*%
%TF.FilePolarity,Positive*%
%FSLAX46Y46*%
G04 Gerber Fmt 4.6, Leading zero omitted, Abs format (unit mm)*
G04 Created by KiCad (PCBNEW 10.0.5) date 2026-09-27 17:35:43*
%MOMM*%
%LPD*%
G01*
G04 APERTURE LIST*
G04 Aperture macros list*
%AMRoundRect*
0 Rectangle with rounded corners*
0 $1 Rounding radius*
0 $2 $3 $4 $5 $6 $7 $8 $9 X,Y pos of 4 corners*
0 Add a 4 corners polygon primitive as box body*
4,1,4,$2,$3,$4,$5,$6,$7,$8,$9,$2,$3,0*
0 Add four circle primitives for the rounded corners*
1,1,$1+$1,$2,$3*
1,1,$1+$1,$4,$5*
1,1,$1+$1,$6,$7*
1,1,$1+$1,$8,$9*
0 Add four rect primitives between the rounded corners*
20,1,$1+$1,$2,$3,$4,$5,0*
20,1,$1+$1,$4,$5,$6,$7,0*
20,1,$1+$1,$6,$7,$8,$9,0*
20,1,$1+$1,$8,$9,$2,$3,0*%
%AMFreePoly0*
4,1,37,3.459536,2.263536,3.461000,2.260000,3.461000,1.550000,3.459536,1.546464,3.456000,1.545000,2.871000,1.545000,2.871000,0.995000,3.456000,0.995000,3.459536,0.993536,3.461000,0.990000,3.461000,0.280000,3.459536,0.276464,3.456000,0.275000,2.871000,0.275000,2.871000,-0.275000,3.456000,-0.275000,3.459536,-0.276464,3.461000,-0.280000,3.461000,-0.990000,3.459536,-0.993536,
3.456000,-0.995000,2.871000,-0.995000,2.871000,-1.545000,3.456000,-1.545000,3.459536,-1.546464,3.461000,-1.550000,3.461000,-2.260000,3.459536,-2.263536,3.456000,-2.265000,-0.984000,-2.265000,-0.987536,-2.263536,-0.989000,-2.260000,-0.989000,2.260000,-0.987536,2.263536,-0.984000,2.265000,3.456000,2.265000,3.459536,2.263536,3.459536,2.263536,$1*%
G04 Aperture macros list end*
%TA.AperFunction,EtchedComponent*%
%ADD10C,0.152400*%
%TD*%
%TA.AperFunction,SMDPad,CuDef*%
%ADD11RoundRect,0.250000X-1.100000X0.325000X-1.100000X-0.325000X1.100000X-0.325000X1.100000X0.325000X0*%
%TD*%
%TA.AperFunction,ComponentPad*%
%ADD12RoundRect,0.250000X1.050000X1.050000X-1.050000X1.050000X-1.050000X-1.050000X1.050000X-1.050000X0*%
%TD*%
%TA.AperFunction,ComponentPad*%
%ADD13C,2.600000*%
%TD*%
%TA.AperFunction,SMDPad,CuDef*%
%ADD14RoundRect,0.250000X-0.325000X-1.100000X0.325000X-1.100000X0.325000X1.100000X-0.325000X1.100000X0*%
%TD*%
%TA.AperFunction,SMDPad,CuDef*%
%ADD15RoundRect,0.225000X-0.225000X-0.250000X0.225000X-0.250000X0.225000X0.250000X-0.225000X0.250000X0*%
%TD*%
%TA.AperFunction,SMDPad,CuDef*%
%ADD16R,5.400000X2.900000*%
%TD*%
%TA.AperFunction,SMDPad,CuDef*%
%ADD17RoundRect,0.200000X-0.200000X-0.275000X0.200000X-0.275000X0.200000X0.275000X-0.200000X0.275000X0*%
%TD*%
%TA.AperFunction,SMDPad,CuDef*%
%ADD18RoundRect,0.075000X-0.910000X-0.225000X0.910000X-0.225000X0.910000X0.225000X-0.910000X0.225000X0*%
%TD*%
%TA.AperFunction,SMDPad,CuDef*%
%ADD19R,1.372000X0.710000*%
%TD*%
%TA.AperFunction,SMDPad,CuDef*%
%ADD20FreePoly0,180.000000*%
%TD*%
%TA.AperFunction,SMDPad,CuDef*%
%ADD21RoundRect,0.225000X-0.250000X0.225000X-0.250000X-0.225000X0.250000X-0.225000X0.250000X0.225000X0*%
%TD*%
%TA.AperFunction,ComponentPad*%
%ADD22R,1.700000X1.700000*%
%TD*%
%TA.AperFunction,ComponentPad*%
%ADD23C,1.700000*%
%TD*%
%TA.AperFunction,SMDPad,CuDef*%
%ADD24RoundRect,0.250000X-1.425000X0.362500X-1.425000X-0.362500X1.425000X-0.362500X1.425000X0.362500X0*%
%TD*%
%TA.AperFunction,ComponentPad*%
%ADD25R,0.900000X2.000000*%
%TD*%
%TA.AperFunction,ComponentPad*%
%ADD26RoundRect,1.025000X-1.025000X-1.025000X1.025000X-1.025000X1.025000X1.025000X-1.025000X1.025000X0*%
%TD*%
%TA.AperFunction,ComponentPad*%
%ADD27C,4.100000*%
%TD*%
%TA.AperFunction,SMDPad,CuDef*%
%ADD28RoundRect,0.087500X-0.087500X-0.207500X0.087500X-0.207500X0.087500X0.207500X-0.087500X0.207500X0*%
%TD*%
%TA.AperFunction,SMDPad,CuDef*%
%ADD29RoundRect,0.087500X-0.207500X-0.087500X0.207500X-0.087500X0.207500X0.087500X-0.207500X0.087500X0*%
%TD*%
%TA.AperFunction,SMDPad,CuDef*%
%ADD30RoundRect,0.075000X-0.700000X-0.075000X0.700000X-0.075000X0.700000X0.075000X-0.700000X0.075000X0*%
%TD*%
%TA.AperFunction,SMDPad,CuDef*%
%ADD31RoundRect,0.075000X-0.075000X-0.700000X0.075000X-0.700000X0.075000X0.700000X-0.075000X0.700000X0*%
%TD*%
%TA.AperFunction,SMDPad,CuDef*%
%ADD32RoundRect,0.200000X-0.275000X0.200000X-0.275000X-0.200000X0.275000X-0.200000X0.275000X0.200000X0*%
%TD*%
%TA.AperFunction,SMDPad,CuDef*%
%ADD33FreePoly0,0.000000*%
%TD*%
%TA.AperFunction,SMDPad,CuDef*%
%ADD34FreePoly0,270.000000*%
%TD*%
%TA.AperFunction,SMDPad,CuDef*%
%ADD35R,0.710000X1.372000*%
%TD*%
%TA.AperFunction,ComponentPad*%
%ADD36R,2.325000X2.325000*%
%TD*%
%TA.AperFunction,ComponentPad*%
%ADD37C,2.325000*%
%TD*%
%TA.AperFunction,SMDPad,CuDef*%
%ADD38RoundRect,0.150000X-0.587500X-0.150000X0.587500X-0.150000X0.587500X0.150000X-0.587500X0.150000X0*%
%TD*%
%TA.AperFunction,SMDPad,CuDef*%
%ADD39RoundRect,0.250000X1.100000X-0.325000X1.100000X0.325000X-1.100000X0.325000X-1.100000X-0.325000X0*%
%TD*%
%TA.AperFunction,SMDPad,CuDef*%
%ADD40RoundRect,0.225000X0.250000X-0.225000X0.250000X0.225000X-0.250000X0.225000X-0.250000X-0.225000X0*%
%TD*%
%TA.AperFunction,SMDPad,CuDef*%
%ADD41RoundRect,0.030000X-0.090000X-0.400000X0.090000X-0.400000X0.090000X0.400000X-0.090000X0.400000X0*%
%TD*%
%TA.AperFunction,SMDPad,CuDef*%
%ADD42RoundRect,0.030000X-0.400000X-0.090000X0.400000X-0.090000X0.400000X0.090000X-0.400000X0.090000X0*%
%TD*%
%TA.AperFunction,SMDPad,CuDef*%
%ADD43R,4.150000X4.150000*%
%TD*%
%TA.AperFunction,ViaPad*%
%ADD44C,0.600000*%
%TD*%
%TA.AperFunction,Conductor*%
%ADD45C,0.200000*%
%TD*%
G04 APERTURE END LIST*
%TO.C,F1*%
D10*
X20980000Y-49860000D02*
X20980000Y-55860000D01*
X35180000Y-55860000D02*
X35180000Y-49860000D01*
X35180000Y-49860000D02*
X20980000Y-49860000D01*
X35180000Y-55860000D02*
X20980000Y-55860000D01*
%TD*%
D11*
%TO.P,C9,2*%
%TO.N,Net-(C9-Pad2)*%
X62380000Y-40850000D03*
%TO.P,C9,1*%
%TO.N,GND*%
X62380000Y-37900000D03*
%TD*%
D12*
%TO.P,J1,1,Pin_1_1*%
%TO.N,PHASE_C*%
X48070000Y-73820000D03*
D13*
%TO.P,J1,2,Pin_2_2*%
%TO.N,PHASE_B*%
X42990000Y-73820000D03*
%TO.P,J1,3,Pin_3_3*%
%TO.N,PHASE_A*%
X37910000Y-73820000D03*
%TD*%
D14*
%TO.P,C4,1*%
%TO.N,GND*%
X39500000Y-49400000D03*
%TO.P,C4,2*%
%TO.N,VM*%
X42450000Y-49400000D03*
%TD*%
D15*
%TO.P,C8,1*%
%TO.N,Net-(U5-SS)*%
X47770000Y-45850000D03*
%TO.P,C8,2*%
%TO.N,GND*%
X49320000Y-45850000D03*
%TD*%
D14*
%TO.P,C5,1*%
%TO.N,GND*%
X36450000Y-53070000D03*
%TO.P,C5,2*%
%TO.N,VM*%
X39400000Y-53070000D03*
%TD*%
%TO.P,C3,1*%
%TO.N,GND*%
X39500000Y-45150000D03*
%TO.P,C3,2*%
%TO.N,VM*%
X42450000Y-45150000D03*
%TD*%
%TO.P,C6,1*%
%TO.N,GND*%
X36530000Y-56840000D03*
%TO.P,C6,2*%
%TO.N,VM*%
X39480000Y-56840000D03*
%TD*%
D15*
%TO.P,C7,1*%
%TO.N,Net-(U5-BOOT)*%
X47770000Y-43340000D03*
%TO.P,C7,2*%
%TO.N,Net-(U5-PH)*%
X49320000Y-43340000D03*
%TD*%
%TO.P,C10,1*%
%TO.N,GND*%
X47770000Y-48360000D03*
%TO.P,C10,2*%
%TO.N,Net-(C10-Pad2)*%
X49320000Y-48360000D03*
%TD*%
%TO.P,C11,1*%
%TO.N,GND*%
X44860000Y-51420000D03*
%TO.P,C11,2*%
%TO.N,VM*%
X46410000Y-51420000D03*
%TD*%
D16*
%TO.P,L1,1*%
%TO.N,Net-(C9-Pad2)*%
X44770000Y-22520000D03*
%TO.P,L1,2*%
%TO.N,Net-(U5-PH)*%
X44770000Y-32220000D03*
%TD*%
D17*
%TO.P,R7,1*%
%TO.N,Net-(Q_AH1-Pad4)*%
X58230000Y-43290000D03*
%TO.P,R7,2*%
%TO.N,Net-(U2-GHA)*%
X59880000Y-43290000D03*
%TD*%
%TO.P,R8,1*%
%TO.N,Net-(Q_AL1-Pad4)*%
X58230000Y-45800000D03*
%TO.P,R8,2*%
%TO.N,Net-(U2-GLA)*%
X59880000Y-45800000D03*
%TD*%
%TO.P,R9,1*%
%TO.N,Net-(Q_BH1-Pad4)*%
X58230000Y-48310000D03*
%TO.P,R9,2*%
%TO.N,Net-(U2-GHB)*%
X59880000Y-48310000D03*
%TD*%
%TO.P,R10,1*%
%TO.N,Net-(Q_BL1-Pad4)*%
X52830000Y-43640000D03*
%TO.P,R10,2*%
%TO.N,Net-(U2-GLB)*%
X54480000Y-43640000D03*
%TD*%
%TO.P,R11,1*%
%TO.N,Net-(Q_CH1-Pad4)*%
X52830000Y-46150000D03*
%TO.P,R11,2*%
%TO.N,Net-(U2-GHC)*%
X54480000Y-46150000D03*
%TD*%
%TO.P,R12,1*%
%TO.N,Net-(Q_CL1-Pad4)*%
X52830000Y-48660000D03*
%TO.P,R12,2*%
%TO.N,Net-(U2-GLC)*%
X54480000Y-48660000D03*
%TD*%
D18*
%TO.P,U5,1,BOOT_1*%
%TO.N,Net-(U5-BOOT)*%
X41625000Y-36245000D03*
%TO.P,U5,2,VIN_2*%
%TO.N,VM*%
X41625000Y-37515000D03*
%TO.P,U5,3,EN_3*%
X41625000Y-38785000D03*
%TO.P,U5,4,SS_4*%
%TO.N,Net-(U5-SS)*%
X41625000Y-40055000D03*
%TO.P,U5,5,VSENSE_5*%
%TO.N,FB*%
X46565000Y-40055000D03*
%TO.P,U5,6,COMP_6*%
%TO.N,Net-(U5-COMP)*%
X46565000Y-38785000D03*
%TO.P,U5,7,GND_7*%
%TO.N,GND*%
X46565000Y-37515000D03*
%TO.P,U5,8,PH_8*%
%TO.N,Net-(U5-PH)*%
X46565000Y-36245000D03*
%TD*%
D19*
%TO.P,Q_CH1,4*%
%TO.N,Net-(Q_CH1-Pad4)*%
X58583500Y-69115000D03*
%TO.P,Q_CH1,3*%
%TO.N,VM*%
X58583500Y-70385000D03*
%TO.P,Q_CH1,2*%
X58583500Y-71655000D03*
%TO.P,Q_CH1,1*%
X58583500Y-72925000D03*
D20*
%TO.P,Q_CH1,5_6_7_8*%
%TO.N,PHASE_C*%
X55813500Y-71020000D03*
%TD*%
D17*
%TO.P,R16,2*%
%TO.N,+3.3V*%
X68580000Y-38800000D03*
%TO.P,R16,1*%
%TO.N,Net-(U1-VDDA)*%
X66930000Y-38800000D03*
%TD*%
%TO.P,R2,2*%
%TO.N,Net-(C9-Pad2)*%
X54980000Y-35320000D03*
%TO.P,R2,1*%
%TO.N,FB*%
X53330000Y-35320000D03*
%TD*%
%TO.P,R3,2*%
%TO.N,FB*%
X54980000Y-37830000D03*
%TO.P,R3,1*%
%TO.N,GND*%
X53330000Y-37830000D03*
%TD*%
%TO.P,R4,2*%
%TO.N,Net-(U5-COMP)*%
X54980000Y-40340000D03*
%TO.P,R4,1*%
%TO.N,Net-(C10-Pad2)*%
X53330000Y-40340000D03*
%TD*%
D19*
%TO.P,Q_BH1,4*%
%TO.N,Net-(Q_BH1-Pad4)*%
X58561750Y-60625000D03*
%TO.P,Q_BH1,3*%
%TO.N,VM*%
X58561750Y-61895000D03*
%TO.P,Q_BH1,2*%
X58561750Y-63165000D03*
%TO.P,Q_BH1,1*%
X58561750Y-64435000D03*
D20*
%TO.P,Q_BH1,5_6_7_8*%
%TO.N,PHASE_B*%
X55791750Y-62530000D03*
%TD*%
D21*
%TO.P,C16,2*%
%TO.N,GND*%
X69170000Y-67090000D03*
%TO.P,C16,1*%
%TO.N,Net-(U2-VREF)*%
X69170000Y-65540000D03*
%TD*%
D15*
%TO.P,C23,2*%
%TO.N,Net-(U1-VDDA)*%
X78510000Y-32550000D03*
%TO.P,C23,1*%
%TO.N,GND*%
X76960000Y-32550000D03*
%TD*%
D22*
%TO.P,SWD_HEADER1,1,Pin_1_1*%
%TO.N,+3.3V*%
X35450000Y-22360000D03*
D23*
%TO.P,SWD_HEADER1,2,Pin_2_2*%
%TO.N,Net-(SWD_HEADER1-Pin_2)*%
X32910000Y-22360000D03*
%TO.P,SWD_HEADER1,3,Pin_3_3*%
%TO.N,Net-(SWD_HEADER1-Pin_3)*%
X30370000Y-22360000D03*
%TO.P,SWD_HEADER1,4,Pin_4_4*%
%TO.N,GND*%
X27830000Y-22360000D03*
%TO.P,SWD_HEADER1,5,Pin_5_5*%
%TO.N,Net-(SWD_HEADER1-Pin_5)*%
X25290000Y-22360000D03*
%TO.P,SWD_HEADER1,6,Pin_6_6*%
%TO.N,Net-(SWD_HEADER1-Pin_6)*%
X22750000Y-22360000D03*
%TD*%
D24*
%TO.P,R15,1*%
%TO.N,GND*%
X66130000Y-43127500D03*
%TO.P,R15,2*%
%TO.N,PHASE_C_SNS*%
X66130000Y-49052500D03*
%TD*%
%TO.P,R13,1*%
%TO.N,GND*%
X75950000Y-43127500D03*
%TO.P,R13,2*%
%TO.N,PHASE_A_SNS*%
X75950000Y-49052500D03*
%TD*%
%TO.P,R14,1*%
%TO.N,GND*%
X71040000Y-43127500D03*
%TO.P,R14,2*%
%TO.N,PHASE_B_SNS*%
X71040000Y-49052500D03*
%TD*%
D25*
%TO.P,XT60,*%
%TO.N,*%
X21800000Y-39470000D03*
X35300000Y-39470000D03*
D26*
%TO.P,XT60,1,Pin_1_1*%
%TO.N,VBAT_RAW*%
X32150000Y-45470000D03*
D27*
%TO.P,XT60,2,Pin_2_2*%
%TO.N,GND_RAW*%
X24950000Y-45470000D03*
%TD*%
D28*
%TO.P,U3,5,VDDIO_5*%
%TO.N,+3.3V*%
X73402500Y-24535000D03*
%TO.P,U3,6,GND_6*%
%TO.N,GND*%
X73902500Y-24535000D03*
%TO.P,U3,7,RESV_7_7*%
%TO.N,unconnected-(U3-RESV_7-Pad7)*%
X74402500Y-24535000D03*
D29*
%TO.P,U3,8,VDD_8*%
%TO.N,+3.3V*%
X75067500Y-24370000D03*
%TO.P,U3,9,INT2/FSYNC/CLKIN_9*%
%TO.N,unconnected-(U3-INT2{slash}FSYNC{slash}CLKIN-Pad9)*%
X75067500Y-23870000D03*
%TO.P,U3,10,RESV_10_10*%
%TO.N,unconnected-(U3-RESV_10-Pad10)*%
X75067500Y-23370000D03*
%TO.P,U3,11,RESV_11_11*%
%TO.N,unconnected-(U3-RESV_11-Pad11)*%
X75067500Y-22870000D03*
D28*
%TO.P,U3,12,AP_CS_12*%
%TO.N,Net-(U1-PA15)*%
X74402500Y-22705000D03*
%TO.P,U3,13,AP_SCL/AP_SCLK_13*%
%TO.N,Net-(U1-PC10)*%
X73902500Y-22705000D03*
%TO.P,U3,14,AP_SDA/AP_SDIO/AP_SDI_14*%
%TO.N,Net-(U1-PC12)*%
X73402500Y-22705000D03*
D29*
%TO.P,U3,1,AP_SDO/AP_AD0_1*%
%TO.N,Net-(U1-PC11)*%
X72737500Y-22870000D03*
%TO.P,U3,2,RESV_2_2*%
%TO.N,unconnected-(U3-RESV_2-Pad2)*%
X72737500Y-23370000D03*
%TO.P,U3,3,RESV_3_3*%
%TO.N,unconnected-(U3-RESV_3-Pad3)*%
X72737500Y-23870000D03*
%TO.P,U3,4,INT1/INT_4*%
%TO.N,Net-(U1-PA11)*%
X72737500Y-24370000D03*
%TD*%
D30*
%TO.P,U1,1,VBAT_1*%
%TO.N,+3.3V*%
X57925000Y-25200000D03*
%TO.P,U1,2,PC13_2*%
%TO.N,Net-(U1-PC13)*%
X57925000Y-25700000D03*
%TO.P,U1,3,PC14_3*%
%TO.N,unconnected-(U1-PC14-Pad3)*%
X57925000Y-26200000D03*
%TO.P,U1,4,PC15_4*%
%TO.N,unconnected-(U1-PC15-Pad4)*%
X57925000Y-26700000D03*
%TO.P,U1,5,PF0_5*%
%TO.N,unconnected-(U1-PF0-Pad5)*%
X57925000Y-27200000D03*
%TO.P,U1,6,PF1_6*%
%TO.N,unconnected-(U1-PF1-Pad6)*%
X57925000Y-27700000D03*
%TO.P,U1,7,PG10_7*%
%TO.N,Net-(SWD_HEADER1-Pin_6)*%
X57925000Y-28200000D03*
%TO.P,U1,8,PC0_8*%
%TO.N,Net-(U1-PC0)*%
X57925000Y-28700000D03*
%TO.P,U1,9,PC1_9*%
%TO.N,unconnected-(U1-PC1-Pad9)*%
X57925000Y-29200000D03*
%TO.P,U1,10,PC2_10*%
%TO.N,unconnected-(U1-PC2-Pad10)*%
X57925000Y-29700000D03*
%TO.P,U1,11,PC3_11*%
%TO.N,unconnected-(U1-PC3-Pad11)*%
X57925000Y-30200000D03*
%TO.P,U1,12,PA0_12*%
%TO.N,unconnected-(U1-PA0-Pad12)*%
X57925000Y-30700000D03*
%TO.P,U1,13,PA1_13*%
%TO.N,unconnected-(U1-PA1-Pad13)*%
X57925000Y-31200000D03*
%TO.P,U1,14,PA2_14*%
%TO.N,unconnected-(U1-PA2-Pad14)*%
X57925000Y-31700000D03*
%TO.P,U1,15,VSS_15*%
%TO.N,GND*%
X57925000Y-32200000D03*
%TO.P,U1,16,VDD_16*%
%TO.N,+3.3V*%
X57925000Y-32700000D03*
D31*
%TO.P,U1,17,PA3_17*%
%TO.N,PHASE_A_SNS*%
X59850000Y-34625000D03*
%TO.P,U1,18,PA4_18*%
%TO.N,unconnected-(U1-PA4-Pad18)*%
X60350000Y-34625000D03*
%TO.P,U1,19,PA5_19*%
%TO.N,GND*%
X60850000Y-34625000D03*
%TO.P,U1,20,PA6_20*%
%TO.N,unconnected-(U1-PA6-Pad20)*%
X61350000Y-34625000D03*
%TO.P,U1,21,PA7_21*%
%TO.N,Net-(U1-PA7)*%
X61850000Y-34625000D03*
%TO.P,U1,22,PC4_22*%
%TO.N,unconnected-(U1-PC4-Pad22)*%
X62350000Y-34625000D03*
%TO.P,U1,23,PC5_23*%
%TO.N,GND*%
X62850000Y-34625000D03*
%TO.P,U1,24,PB0_24*%
%TO.N,Net-(U1-PB0)*%
X63350000Y-34625000D03*
%TO.P,U1,25,PB1_25*%
%TO.N,Net-(U1-PB1)*%
X63850000Y-34625000D03*
%TO.P,U1,26,PB2_26*%
%TO.N,GND*%
X64350000Y-34625000D03*
%TO.P,U1,27,VSSA_27*%
X64850000Y-34625000D03*
%TO.P,U1,28,VREF+_28*%
%TO.N,Net-(U1-VDDA)*%
X65350000Y-34625000D03*
%TO.P,U1,29,VDDA_29*%
X65850000Y-34625000D03*
%TO.P,U1,30,PB10_30*%
%TO.N,unconnected-(U1-PB10-Pad30)*%
X66350000Y-34625000D03*
%TO.P,U1,31,VSS_31*%
%TO.N,GND*%
X66850000Y-34625000D03*
%TO.P,U1,32,VDD_32*%
%TO.N,+3.3V*%
X67350000Y-34625000D03*
D30*
%TO.P,U1,33,PB11_33*%
%TO.N,unconnected-(U1-PB11-Pad33)*%
X69275000Y-32700000D03*
%TO.P,U1,34,PB12_34*%
%TO.N,unconnected-(U1-PB12-Pad34)*%
X69275000Y-32200000D03*
%TO.P,U1,35,PB13_35*%
%TO.N,PHASE_A_SNS*%
X69275000Y-31700000D03*
%TO.P,U1,36,PB14_36*%
%TO.N,PHASE_B_SNS*%
X69275000Y-31200000D03*
%TO.P,U1,37,PB15_37*%
%TO.N,unconnected-(U1-PB15-Pad37)*%
X69275000Y-30700000D03*
%TO.P,U1,38,PC6_38*%
%TO.N,unconnected-(U1-PC6-Pad38)*%
X69275000Y-30200000D03*
%TO.P,U1,39,PC7_39*%
%TO.N,unconnected-(U1-PC7-Pad39)*%
X69275000Y-29700000D03*
%TO.P,U1,40,PC8_40*%
%TO.N,unconnected-(U1-PC8-Pad40)*%
X69275000Y-29200000D03*
%TO.P,U1,41,PC9_41*%
%TO.N,unconnected-(U1-PC9-Pad41)*%
X69275000Y-28700000D03*
%TO.P,U1,42,PA8_42*%
%TO.N,Net-(U1-PA8)*%
X69275000Y-28200000D03*
%TO.P,U1,43,PA9_43*%
%TO.N,Net-(U1-PA9)*%
X69275000Y-27700000D03*
%TO.P,U1,44,PA10_44*%
%TO.N,Net-(U1-PA10)*%
X69275000Y-27200000D03*
%TO.P,U1,45,PA11_45*%
%TO.N,Net-(U1-PA11)*%
X69275000Y-26700000D03*
%TO.P,U1,46,PA12_46*%
%TO.N,unconnected-(U1-PA12-Pad46)*%
X69275000Y-26200000D03*
%TO.P,U1,47,VSS_47*%
%TO.N,GND*%
X69275000Y-25700000D03*
%TO.P,U1,48,VDD_48*%
%TO.N,+3.3V*%
X69275000Y-25200000D03*
D31*
%TO.P,U1,49,PA13_49*%
%TO.N,Net-(SWD_HEADER1-Pin_2)*%
X67350000Y-23275000D03*
%TO.P,U1,50,PA14_50*%
%TO.N,Net-(SWD_HEADER1-Pin_3)*%
X66850000Y-23275000D03*
%TO.P,U1,51,PA15_51*%
%TO.N,Net-(U1-PA15)*%
X66350000Y-23275000D03*
%TO.P,U1,52,PC10_52*%
%TO.N,Net-(U1-PC10)*%
X65850000Y-23275000D03*
%TO.P,U1,53,PC11_53*%
%TO.N,Net-(U1-PC11)*%
X65350000Y-23275000D03*
%TO.P,U1,54,PC12_54*%
%TO.N,Net-(U1-PC12)*%
X64850000Y-23275000D03*
%TO.P,U1,55,PD2_55*%
%TO.N,unconnected-(U1-PD2-Pad55)*%
X64350000Y-23275000D03*
%TO.P,U1,56,PB3_56*%
%TO.N,Net-(SWD_HEADER1-Pin_5)*%
X63850000Y-23275000D03*
%TO.P,U1,57,PB4_57*%
%TO.N,unconnected-(U1-PB4-Pad57)*%
X63350000Y-23275000D03*
%TO.P,U1,58,PB5_58*%
%TO.N,unconnected-(U1-PB5-Pad58)*%
X62850000Y-23275000D03*
%TO.P,U1,59,PB6_59*%
%TO.N,unconnected-(U1-PB6-Pad59)*%
X62350000Y-23275000D03*
%TO.P,U1,60,PB7_60*%
%TO.N,unconnected-(U1-PB7-Pad60)*%
X61850000Y-23275000D03*
%TO.P,U1,61,PB8_61*%
%TO.N,unconnected-(U1-PB8-Pad61)*%
X61350000Y-23275000D03*
%TO.P,U1,62,PB9_62*%
%TO.N,unconnected-(U1-PB9-Pad62)*%
X60850000Y-23275000D03*
%TO.P,U1,63,VSS_63*%
%TO.N,GND*%
X60350000Y-23275000D03*
%TO.P,U1,64,VDD_64*%
%TO.N,+3.3V*%
X59850000Y-23275000D03*
%TD*%
D17*
%TO.P,R6,1*%
%TO.N,Net-(U1-PC0)*%
X73700000Y-73640000D03*
%TO.P,R6,2*%
%TO.N,Net-(U2-DVDD)*%
X75350000Y-73640000D03*
%TD*%
%TO.P,R5,1*%
%TO.N,Net-(U2-VDRAIN)*%
X73700000Y-71130000D03*
%TO.P,R5,2*%
%TO.N,VM*%
X75350000Y-71130000D03*
%TD*%
D32*
%TO.P,R1,1*%
%TO.N,VBAT_RAW*%
X33010000Y-66170000D03*
%TO.P,R1,2*%
%TO.N,GATE_PROT*%
X33010000Y-67820000D03*
%TD*%
D33*
%TO.P,Q_CL1,5_6_7_8*%
%TO.N,PHASE_C_SNS*%
X74840000Y-66340000D03*
D19*
%TO.P,Q_CL1,1*%
%TO.N,PHASE_C*%
X72070000Y-64435000D03*
%TO.P,Q_CL1,2*%
X72070000Y-65705000D03*
%TO.P,Q_CL1,3*%
X72070000Y-66975000D03*
%TO.P,Q_CL1,4*%
%TO.N,Net-(Q_CL1-Pad4)*%
X72070000Y-68245000D03*
%TD*%
D33*
%TO.P,Q_BL1,5_6_7_8*%
%TO.N,PHASE_B_SNS*%
X75150000Y-60040000D03*
D19*
%TO.P,Q_BL1,1*%
%TO.N,PHASE_B*%
X72380000Y-58135000D03*
%TO.P,Q_BL1,2*%
X72380000Y-59405000D03*
%TO.P,Q_BL1,3*%
X72380000Y-60675000D03*
%TO.P,Q_BL1,4*%
%TO.N,Net-(Q_BL1-Pad4)*%
X72380000Y-61945000D03*
%TD*%
D33*
%TO.P,Q_AL1,5_6_7_8*%
%TO.N,PHASE_A_SNS*%
X74930000Y-53665000D03*
D19*
%TO.P,Q_AL1,1*%
%TO.N,PHASE_A*%
X72160000Y-51760000D03*
%TO.P,Q_AL1,2*%
X72160000Y-53030000D03*
%TO.P,Q_AL1,3*%
X72160000Y-54300000D03*
%TO.P,Q_AL1,4*%
%TO.N,Net-(Q_AL1-Pad4)*%
X72160000Y-55570000D03*
%TD*%
D20*
%TO.P,Q_AH1,5_6_7_8*%
%TO.N,PHASE_A*%
X55761750Y-54280000D03*
D19*
%TO.P,Q_AH1,1*%
%TO.N,VM*%
X58531750Y-56185000D03*
%TO.P,Q_AH1,2*%
X58531750Y-54915000D03*
%TO.P,Q_AH1,3*%
X58531750Y-53645000D03*
%TO.P,Q_AH1,4*%
%TO.N,Net-(Q_AH1-Pad4)*%
X58531750Y-52375000D03*
%TD*%
D34*
%TO.P,Q2,5_6_7_8*%
%TO.N,GND*%
X27195000Y-61500000D03*
D35*
%TO.P,Q2,1*%
%TO.N,GND_RAW*%
X29100000Y-58730000D03*
%TO.P,Q2,2*%
X27830000Y-58730000D03*
%TO.P,Q2,3*%
X26560000Y-58730000D03*
%TO.P,Q2,4*%
%TO.N,GATE_PROT*%
X25290000Y-58730000D03*
%TD*%
D36*
%TO.P,F1,P$1*%
%TO.N,VM*%
X24180000Y-52860000D03*
D37*
%TO.P,F1,P$2*%
%TO.N,VBAT_RAW*%
X32180000Y-52860000D03*
%TD*%
D38*
%TO.P,D1,1,A_1*%
%TO.N,GND*%
X24060000Y-72910000D03*
%TO.P,D1,2,NC_2*%
%TO.N,unconnected-(D1-NC-Pad2)*%
X24060000Y-74810000D03*
%TO.P,D1,3,K_3*%
%TO.N,GATE_PROT*%
X25935000Y-73860000D03*
%TD*%
D39*
%TO.P,C26,1*%
%TO.N,GND*%
X77690000Y-40240000D03*
%TO.P,C26,2*%
%TO.N,+3.3V*%
X77690000Y-37290000D03*
%TD*%
%TO.P,C25,1*%
%TO.N,GND*%
X73650000Y-40150000D03*
%TO.P,C25,2*%
%TO.N,+3.3V*%
X73650000Y-37200000D03*
%TD*%
D15*
%TO.P,C24,1*%
%TO.N,GND*%
X76960000Y-35040000D03*
%TO.P,C24,2*%
%TO.N,Net-(U1-VDDA)*%
X78510000Y-35040000D03*
%TD*%
%TO.P,C22,1*%
%TO.N,GND*%
X77040000Y-30030000D03*
%TO.P,C22,2*%
%TO.N,Net-(U1-VDDA)*%
X78590000Y-30030000D03*
%TD*%
%TO.P,C21,1*%
%TO.N,GND*%
X77040000Y-27520000D03*
%TO.P,C21,2*%
%TO.N,Net-(U1-VDDA)*%
X78590000Y-27520000D03*
%TD*%
%TO.P,C20,1*%
%TO.N,GND*%
X73040000Y-35020000D03*
%TO.P,C20,2*%
%TO.N,+3.3V*%
X74590000Y-35020000D03*
%TD*%
%TO.P,C19,1*%
%TO.N,GND*%
X73040000Y-32510000D03*
%TO.P,C19,2*%
%TO.N,+3.3V*%
X74590000Y-32510000D03*
%TD*%
%TO.P,C18,1*%
%TO.N,GND*%
X73040000Y-30000000D03*
%TO.P,C18,2*%
%TO.N,+3.3V*%
X74590000Y-30000000D03*
%TD*%
%TO.P,C17,1*%
%TO.N,GND*%
X73040000Y-27490000D03*
%TO.P,C17,2*%
%TO.N,+3.3V*%
X74590000Y-27490000D03*
%TD*%
D21*
%TO.P,C15,1*%
%TO.N,Net-(U2-DVDD)*%
X78030000Y-73670000D03*
%TO.P,C15,2*%
%TO.N,GND*%
X78030000Y-75220000D03*
%TD*%
D40*
%TO.P,C14,1*%
%TO.N,Net-(U2-CPH)*%
X60480000Y-60030000D03*
%TO.P,C14,2*%
%TO.N,Net-(U2-CPL)*%
X60480000Y-58480000D03*
%TD*%
%TO.P,C13,1*%
%TO.N,Net-(U2-VGLS)*%
X60310000Y-56960000D03*
%TO.P,C13,2*%
%TO.N,GND*%
X60310000Y-55410000D03*
%TD*%
D21*
%TO.P,C12,1*%
%TO.N,Net-(U2-VCP)*%
X60500000Y-64630000D03*
%TO.P,C12,2*%
%TO.N,VM*%
X60500000Y-66180000D03*
%TD*%
%TO.P,C2,1*%
%TO.N,VM*%
X32390000Y-61190000D03*
%TO.P,C2,2*%
%TO.N,GND*%
X32390000Y-62740000D03*
%TD*%
D41*
%TO.P,U2,11,SNB_11*%
%TO.N,GND*%
X63595000Y-63855000D03*
%TO.P,U2,12,SPB_12*%
%TO.N,PHASE_B_SNS*%
X64095000Y-63855000D03*
%TO.P,U2,13,GLB_13*%
%TO.N,Net-(U2-GLB)*%
X64595000Y-63855000D03*
%TO.P,U2,14,SHB_14*%
%TO.N,PHASE_B*%
X65095000Y-63855000D03*
%TO.P,U2,15,GHB_15*%
%TO.N,Net-(U2-GHB)*%
X65595000Y-63855000D03*
%TO.P,U2,16,GHC_16*%
%TO.N,Net-(U2-GHC)*%
X66095000Y-63855000D03*
%TO.P,U2,17,SHC_17*%
%TO.N,PHASE_C*%
X66595000Y-63855000D03*
%TO.P,U2,18,GLC_18*%
%TO.N,Net-(U2-GLC)*%
X67095000Y-63855000D03*
%TO.P,U2,19,SPC_19*%
%TO.N,PHASE_C_SNS*%
X67595000Y-63855000D03*
%TO.P,U2,20,SNC_20*%
%TO.N,GND*%
X68095000Y-63855000D03*
%TO.P,U2,31,ENABLE_31*%
%TO.N,Net-(U1-PC13)*%
X68095000Y-57985000D03*
%TO.P,U2,32,INHA_32*%
%TO.N,Net-(U1-PA8)*%
X67595000Y-57985000D03*
%TO.P,U2,33,INLA_33*%
%TO.N,Net-(U1-PA7)*%
X67095000Y-57985000D03*
%TO.P,U2,34,INHB_34*%
%TO.N,Net-(U1-PA9)*%
X66595000Y-57985000D03*
%TO.P,U2,35,INLB_35*%
%TO.N,Net-(U1-PB0)*%
X66095000Y-57985000D03*
%TO.P,U2,36,INHC_36*%
%TO.N,Net-(U1-PA10)*%
X65595000Y-57985000D03*
%TO.P,U2,37,INLC_37*%
%TO.N,Net-(U1-PB1)*%
X65095000Y-57985000D03*
%TO.P,U2,38,DVDD_38*%
%TO.N,Net-(U2-DVDD)*%
X64595000Y-57985000D03*
%TO.P,U2,39,GND_39*%
%TO.N,GND*%
X64095000Y-57985000D03*
%TO.P,U2,40,VGLS_40*%
%TO.N,Net-(U2-VGLS)*%
X63595000Y-57985000D03*
D42*
%TO.P,U2,1,CPL_1*%
%TO.N,Net-(U2-CPL)*%
X62910000Y-58670000D03*
%TO.P,U2,2,CPH_2*%
%TO.N,Net-(U2-CPH)*%
X62910000Y-59170000D03*
%TO.P,U2,3,VM_3*%
%TO.N,VM*%
X62910000Y-59670000D03*
%TO.P,U2,4,VDRAIN_4*%
%TO.N,Net-(U2-VDRAIN)*%
X62910000Y-60170000D03*
%TO.P,U2,5,VCP_5*%
%TO.N,Net-(U2-VCP)*%
X62910000Y-60670000D03*
%TO.P,U2,6,GHA_6*%
%TO.N,Net-(U2-GHA)*%
X62910000Y-61170000D03*
%TO.P,U2,7,SHA_7*%
%TO.N,PHASE_A*%
X62910000Y-61670000D03*
%TO.P,U2,8,GLA_8*%
%TO.N,Net-(U2-GLA)*%
X62910000Y-62170000D03*
%TO.P,U2,9,SPA_9*%
%TO.N,PHASE_A_SNS*%
X62910000Y-62670000D03*
%TO.P,U2,10,SNA_10*%
%TO.N,GND*%
X62910000Y-63170000D03*
%TO.P,U2,21,SOC_21*%
%TO.N,unconnected-(U2-SOC-Pad21)*%
X68780000Y-63170000D03*
%TO.P,U2,22,SOB_22*%
%TO.N,unconnected-(U2-SOB-Pad22)*%
X68780000Y-62670000D03*
%TO.P,U2,23,SOA_23*%
%TO.N,unconnected-(U2-SOA-Pad23)*%
X68780000Y-62170000D03*
%TO.P,U2,24,VREF_24*%
%TO.N,Net-(U2-VREF)*%
X68780000Y-61670000D03*
%TO.P,U2,25,AGND_25*%
%TO.N,GND*%
X68780000Y-61170000D03*
%TO.P,U2,26,~{FAULT}_26*%
%TO.N,Net-(U1-PC0)*%
X68780000Y-60670000D03*
%TO.P,U2,27,MODE_27*%
%TO.N,GND*%
X68780000Y-60170000D03*
%TO.P,U2,28,IDRIVE_28*%
%TO.N,unconnected-(U2-IDRIVE-Pad28)*%
X68780000Y-59670000D03*
%TO.P,U2,29,VDS_29*%
%TO.N,unconnected-(U2-VDS-Pad29)*%
X68780000Y-59170000D03*
%TO.P,U2,30,GAIN_30*%
%TO.N,unconnected-(U2-GAIN-Pad30)*%
X68780000Y-58670000D03*
D43*
%TO.P,U2,41,EXP_41*%
%TO.N,GND*%
X65845000Y-60920000D03*
%TD*%
D44*
%TO.N,GND*%
X65845000Y-60920000D03*
%TO.N,Net-(U2-GLC)*%
X64560000Y-71240000D03*
X46180000Y-49680000D03*
%TO.N,Net-(U2-GHC)*%
X62230089Y-68870146D03*
X51990000Y-44880000D03*
%TO.N,Net-(U2-GHB)*%
X61841091Y-68228909D03*
X58220000Y-46920000D03*
%TO.N,PHASE_A*%
X68740000Y-51530000D03*
X65570000Y-40170000D03*
%TO.N,PHASE_C*%
X69943910Y-64835799D03*
X66595000Y-67465000D03*
%TO.N,PHASE_A_SNS*%
X79200000Y-68540000D03*
X61320000Y-66930000D03*
%TO.N,Net-(U2-GLA)*%
X60550000Y-45670000D03*
X62214365Y-56430000D03*
X60700000Y-62220000D03*
X61700000Y-51670000D03*
%TO.N,Net-(U2-GHA)*%
X57440000Y-50020000D03*
X61320799Y-61120000D03*
%TO.N,Net-(U2-VCP)*%
X60316640Y-60930000D03*
%TO.N,Net-(U2-VDRAIN)*%
X61470693Y-59817126D03*
X72660000Y-71190000D03*
X61980000Y-63130000D03*
X61960000Y-66430000D03*
%TO.N,Net-(U2-VCP)*%
X59870000Y-62030000D03*
%TO.N,PHASE_B*%
X69720000Y-64120000D03*
X64557967Y-65707670D03*
%TO.N,Net-(Q_BL1-Pad4)*%
X71220345Y-58671838D03*
%TO.N,PHASE_B_SNS*%
X62755000Y-63985000D03*
%TO.N,Net-(Q_BL1-Pad4)*%
X56270000Y-46680000D03*
%TO.N,Net-(U1-PA7)*%
X66723604Y-54056396D03*
X68420000Y-52870000D03*
X62190000Y-45490000D03*
X60960000Y-36890000D03*
%TO.N,Net-(U1-PB0)*%
X61820000Y-36750000D03*
X61820000Y-44530000D03*
X66008604Y-53341396D03*
X67670000Y-52480000D03*
%TO.N,Net-(U1-PB1)*%
X65445016Y-52777807D03*
X66913909Y-52196091D03*
%TO.N,Net-(Q_CH1-Pad4)*%
X57642685Y-57827315D03*
X56100000Y-47490000D03*
%TO.N,Net-(Q_CL1-Pad4)*%
X52820000Y-49770000D03*
X71393909Y-69451726D03*
%TO.N,PHASE_C_SNS*%
X78810000Y-66330000D03*
X74210000Y-50320000D03*
%TO.N,Net-(U1-PC0)*%
X70390000Y-58540000D03*
X59450000Y-31110000D03*
%TO.N,Net-(U1-PC13)*%
X61880000Y-53000000D03*
X60176940Y-30406940D03*
%TO.N,PHASE_A_SNS*%
X63180000Y-31580000D03*
X66050000Y-31760000D03*
%TO.N,Net-(SWD_HEADER1-Pin_6)*%
X50980000Y-28400000D03*
%TO.N,Net-(SWD_HEADER1-Pin_3)*%
X63160000Y-24940000D03*
%TO.N,Net-(SWD_HEADER1-Pin_2)*%
X61060698Y-24482880D03*
%TO.N,PHASE_A_SNS*%
X71400000Y-32600000D03*
X75930000Y-47670000D03*
%TO.N,Net-(U1-PC0)*%
X71100000Y-62960000D03*
X70843909Y-68190000D03*
%TO.N,Net-(U2-DVDD)*%
X64070000Y-56730000D03*
X75360000Y-72640000D03*
X70150001Y-61337210D03*
X69726571Y-58889808D03*
%TO.N,Net-(U2-GLB)*%
X56240000Y-45830000D03*
X64527488Y-64953324D03*
%TO.N,PHASE_B_SNS*%
X78850000Y-58740000D03*
X70660000Y-47890000D03*
X70690000Y-31070000D03*
%TO.N,Net-(U1-PA8)*%
X68040000Y-56973909D03*
X64135016Y-33418185D03*
%TO.N,Net-(U1-PA9)*%
X63292963Y-33400000D03*
X66550000Y-56830000D03*
%TO.N,Net-(U1-PA10)*%
X65169769Y-56486236D03*
X62430000Y-33350000D03*
%TO.N,Net-(U1-PA11)*%
X71140000Y-25750000D03*
X71520000Y-24600000D03*
%TO.N,Net-(Q_BH1-Pad4)*%
X59100000Y-57120000D03*
X59180000Y-59620000D03*
%TO.N,Net-(C9-Pad2)*%
X47580000Y-25990000D03*
X46530000Y-24580000D03*
%TO.N,+3.3V*%
X68820000Y-37730000D03*
X68091091Y-36861091D03*
X75690000Y-37320000D03*
X75670000Y-35790000D03*
%TO.N,Net-(U1-PC11)*%
X65300000Y-21950000D03*
X67144852Y-21950000D03*
%TO.N,Net-(U1-PC12)*%
X64770000Y-21350000D03*
X67698295Y-21400000D03*
%TO.N,Net-(U1-PC10)*%
X65830000Y-20850000D03*
X68440000Y-21150000D03*
%TO.N,FB*%
X49441409Y-37358591D03*
X48059552Y-39560687D03*
%TO.N,Net-(U5-COMP)*%
X50680000Y-39340000D03*
X48770000Y-39100000D03*
%TO.N,VBAT_RAW*%
X33160000Y-57130000D03*
%TD*%
%TO.N,Net-(Q_BH1-Pad4)*%
D45*
X59100000Y-57120000D02*
X59520000Y-56700000D01*
X59520000Y-56700000D02*
X59520000Y-49600000D01*
X59520000Y-49600000D02*
X58230000Y-48310000D01*
%TO.N,Net-(U2-GLC)*%
X50897986Y-47935000D02*
X49152986Y-49680000D01*
X64560000Y-71240000D02*
X67225000Y-68575000D01*
X54480000Y-48660000D02*
X53755000Y-47935000D01*
X67225000Y-68575000D02*
X67225000Y-63985000D01*
X49152986Y-49680000D02*
X46180000Y-49680000D01*
X53755000Y-47935000D02*
X50897986Y-47935000D01*
X67225000Y-63985000D02*
X67095000Y-63855000D01*
%TO.N,Net-(U2-GHC)*%
X66095000Y-65609974D02*
X62834828Y-68870146D01*
X66095000Y-63855000D02*
X66095000Y-65609974D01*
X62834828Y-68870146D02*
X62230089Y-68870146D01*
%TO.N,Net-(U2-GHB)*%
X61841091Y-68228909D02*
X62981091Y-68228909D01*
X65595000Y-65615000D02*
X65595000Y-63855000D01*
X62981091Y-68228909D02*
X65595000Y-65615000D01*
%TO.N,Net-(U2-GHC)*%
X54480000Y-46150000D02*
X53210000Y-44880000D01*
X53210000Y-44880000D02*
X51990000Y-44880000D01*
%TO.N,Net-(U2-GLB)*%
X56240000Y-45830000D02*
X54550000Y-44140000D01*
X54550000Y-44140000D02*
X54550000Y-43710000D01*
X54550000Y-43710000D02*
X54480000Y-43640000D01*
%TO.N,Net-(U2-GHB)*%
X58490000Y-46920000D02*
X58220000Y-46920000D01*
X59880000Y-48310000D02*
X58490000Y-46920000D01*
%TO.N,PHASE_A*%
X64450000Y-41130000D02*
X64610000Y-41130000D01*
X68740000Y-51530000D02*
X71930000Y-51530000D01*
X64610000Y-41130000D02*
X65570000Y-40170000D01*
X71930000Y-51530000D02*
X72160000Y-51760000D01*
%TO.N,Net-(U1-PB1)*%
X66913909Y-52196091D02*
X66631065Y-52196091D01*
X66631065Y-52196091D02*
X65054974Y-50620000D01*
X64330000Y-35841698D02*
X63850000Y-35361698D01*
X63850000Y-35361698D02*
X63850000Y-34625000D01*
X61100000Y-44345966D02*
X63092983Y-42352983D01*
X65054974Y-50620000D02*
X62250000Y-50620000D01*
X62250000Y-50620000D02*
X61100000Y-49470000D01*
X61100000Y-49470000D02*
X61100000Y-44345966D01*
X63092983Y-42352983D02*
X64357017Y-42352983D01*
X66220000Y-40490000D02*
X66220000Y-39070000D01*
X64357017Y-42352983D02*
X66220000Y-40490000D01*
X66220000Y-39070000D02*
X64330000Y-37180000D01*
X64330000Y-37180000D02*
X64330000Y-35841698D01*
%TO.N,PHASE_A*%
X63905000Y-41675000D02*
X64450000Y-41130000D01*
X56820000Y-43088088D02*
X58233088Y-41675000D01*
X56820000Y-53221750D02*
X56820000Y-43088088D01*
X58233088Y-41675000D02*
X63905000Y-41675000D01*
X55761750Y-54280000D02*
X56820000Y-53221750D01*
%TO.N,PHASE_C*%
X55813500Y-71020000D02*
X63040000Y-71020000D01*
X63040000Y-71020000D02*
X66595000Y-67465000D01*
X66595000Y-67465000D02*
X66595000Y-63855000D01*
X71669201Y-64835799D02*
X69943910Y-64835799D01*
X72070000Y-64435000D02*
X71669201Y-64835799D01*
X72070000Y-65705000D02*
X72070000Y-64435000D01*
X72070000Y-66975000D02*
X72070000Y-65705000D01*
%TO.N,PHASE_C_SNS*%
X67595000Y-63855000D02*
X67595000Y-65117986D01*
X67595000Y-65117986D02*
X68817014Y-66340000D01*
X68817014Y-66340000D02*
X69894000Y-66340000D01*
X69894000Y-66340000D02*
X71174000Y-67620000D01*
X71174000Y-67620000D02*
X73560000Y-67620000D01*
X73560000Y-67620000D02*
X74840000Y-66340000D01*
%TO.N,Net-(U1-PC0)*%
X70843909Y-68190000D02*
X70843909Y-70783909D01*
X70843909Y-70783909D02*
X73700000Y-73640000D01*
%TO.N,PHASE_A*%
X72160000Y-53030000D02*
X72160000Y-51760000D01*
X72160000Y-54300000D02*
X72160000Y-53030000D01*
%TO.N,PHASE_A_SNS*%
X62910000Y-62670000D02*
X62790001Y-62550001D01*
X61782181Y-62550001D02*
X61320000Y-63012182D01*
X61320000Y-63012182D02*
X61320000Y-66930000D01*
X79400000Y-58135000D02*
X74930000Y-53665000D01*
X62790001Y-62550001D02*
X61782181Y-62550001D01*
X79200000Y-68540000D02*
X79400000Y-68340000D01*
X79400000Y-68340000D02*
X79400000Y-58135000D01*
%TO.N,Net-(U2-GLA)*%
X61569999Y-62170000D02*
X62910000Y-62170000D01*
X61519999Y-62220000D02*
X61569999Y-62170000D01*
X60700000Y-62220000D02*
X61519999Y-62220000D01*
X61700000Y-52100000D02*
X61230000Y-52570000D01*
X61700000Y-51670000D02*
X61700000Y-52100000D01*
X61230000Y-52570000D02*
X61230000Y-55445635D01*
X61230000Y-55445635D02*
X62214365Y-56430000D01*
X60550000Y-45670000D02*
X60010000Y-45670000D01*
X60010000Y-45670000D02*
X59880000Y-45800000D01*
%TO.N,PHASE_A*%
X61960000Y-61670000D02*
X62910000Y-61670000D01*
%TO.N,Net-(U2-GHA)*%
X57440000Y-50020000D02*
X57200000Y-49780000D01*
X59155000Y-42565000D02*
X59880000Y-43290000D01*
X57200000Y-49780000D02*
X57200000Y-43203062D01*
X57200000Y-43203062D02*
X57838062Y-42565000D01*
X57838062Y-42565000D02*
X59155000Y-42565000D01*
%TO.N,Net-(Q_CH1-Pad4)*%
X56100000Y-47490000D02*
X54170000Y-47490000D01*
X54170000Y-47490000D02*
X52830000Y-46150000D01*
%TO.N,Net-(Q_BL1-Pad4)*%
X56270000Y-46680000D02*
X53230000Y-43640000D01*
X53230000Y-43640000D02*
X52830000Y-43640000D01*
%TO.N,Net-(U2-GHA)*%
X62910000Y-61170000D02*
X61370799Y-61170000D01*
X61370799Y-61170000D02*
X61320799Y-61120000D01*
%TO.N,Net-(Q_AH1-Pad4)*%
X57550000Y-43970000D02*
X57550000Y-46528688D01*
X57550000Y-46528688D02*
X57580000Y-46558688D01*
X57580000Y-47014324D02*
X57550000Y-47044324D01*
X57580000Y-46558688D02*
X57580000Y-47014324D01*
X58230000Y-43290000D02*
X57550000Y-43970000D01*
X57550000Y-48930000D02*
X58531750Y-49911750D01*
X57550000Y-47044324D02*
X57550000Y-48930000D01*
X58531750Y-49911750D02*
X58531750Y-52375000D01*
%TO.N,Net-(U2-VCP)*%
X60316640Y-60930000D02*
X60354975Y-60891665D01*
X60932986Y-60730000D02*
X61122986Y-60540000D01*
X60354975Y-60891665D02*
X60758335Y-60891665D01*
X60920000Y-60730000D02*
X60932986Y-60730000D01*
X60758335Y-60891665D02*
X60920000Y-60730000D01*
X61122986Y-60540000D02*
X62780000Y-60540000D01*
X62780000Y-60540000D02*
X62910000Y-60670000D01*
%TO.N,PHASE_A*%
X60287818Y-61670000D02*
X60097818Y-61480000D01*
X60097818Y-61480000D02*
X59930000Y-61480000D01*
X55761750Y-55168562D02*
X55761750Y-54280000D01*
X59930000Y-61480000D02*
X59760000Y-61310000D01*
X59760000Y-61310000D02*
X59760000Y-60462986D01*
X61960000Y-61670000D02*
X60287818Y-61670000D01*
X59760000Y-60462986D02*
X59755000Y-60457986D01*
X59755000Y-60457986D02*
X59755000Y-59371812D01*
X59755000Y-59371812D02*
X59860000Y-59266812D01*
X59860000Y-59266812D02*
X55761750Y-55168562D01*
%TO.N,Net-(U2-VDRAIN)*%
X61470693Y-59817126D02*
X61823567Y-60170000D01*
X61823567Y-60170000D02*
X62910000Y-60170000D01*
%TO.N,Net-(U2-CPH)*%
X62910000Y-59170000D02*
X61340000Y-59170000D01*
X61340000Y-59170000D02*
X60480000Y-60030000D01*
%TO.N,Net-(U2-VCP)*%
X59870000Y-62030000D02*
X59870000Y-63139998D01*
X59870000Y-63139998D02*
X60500000Y-63769998D01*
X60500000Y-63769998D02*
X60500000Y-64630000D01*
%TO.N,Net-(U2-VDRAIN)*%
X72660000Y-71190000D02*
X73640000Y-71190000D01*
X61980000Y-63130000D02*
X61980000Y-66410000D01*
X61980000Y-66410000D02*
X61960000Y-66430000D01*
X73640000Y-71190000D02*
X73700000Y-71130000D01*
%TO.N,Net-(U2-CPL)*%
X61430000Y-58510000D02*
X61400000Y-58480000D01*
X61400000Y-58480000D02*
X60480000Y-58480000D01*
%TO.N,Net-(U2-VGLS)*%
X61470000Y-56980000D02*
X61450000Y-56960000D01*
X61450000Y-56960000D02*
X60310000Y-56960000D01*
%TO.N,PHASE_B*%
X72380000Y-60675000D02*
X72651000Y-60675000D01*
X73316000Y-62550000D02*
X72320000Y-62550000D01*
X73316000Y-61340000D02*
X73316000Y-62550000D01*
X72651000Y-60675000D02*
X73316000Y-61340000D01*
X70750000Y-64120000D02*
X69720000Y-64120000D01*
X72320000Y-62550000D02*
X70750000Y-64120000D01*
%TO.N,Net-(U2-VREF)*%
X69460000Y-63440000D02*
X69170000Y-63730000D01*
X69460000Y-61920001D02*
X69460000Y-63440000D01*
X69170000Y-63730000D02*
X69170000Y-65540000D01*
%TO.N,Net-(U1-PC0)*%
X69440000Y-61396812D02*
X69460000Y-61376812D01*
X70700000Y-62836091D02*
X70700000Y-58850000D01*
X71100000Y-62960000D02*
X71080000Y-62980000D01*
X69810000Y-62490000D02*
X69810000Y-61775027D01*
X71100000Y-62960000D02*
X70823909Y-62960000D01*
X69460000Y-60963188D02*
X69440000Y-60943188D01*
X71080000Y-62980000D02*
X70300000Y-62980000D01*
X70300000Y-62980000D02*
X69810000Y-62490000D01*
X69810000Y-61775027D02*
X69440000Y-61405027D01*
X70700000Y-58850000D02*
X70390000Y-58540000D01*
X69460000Y-61376812D02*
X69460000Y-60963188D01*
X69440000Y-61405027D02*
X69440000Y-61396812D01*
X69440000Y-60943188D02*
X69440000Y-60900000D01*
X69440000Y-60900000D02*
X69210000Y-60670000D01*
X69210000Y-60670000D02*
X68780000Y-60670000D01*
X70823909Y-62960000D02*
X70700000Y-62836091D01*
%TO.N,PHASE_B*%
X72380000Y-59405000D02*
X72380000Y-58135000D01*
X72380000Y-60675000D02*
X72380000Y-59405000D01*
%TO.N,Net-(Q_BL1-Pad4)*%
X71220345Y-58671838D02*
X71220345Y-61116345D01*
X71220345Y-61116345D02*
X72049000Y-61945000D01*
X72049000Y-61945000D02*
X72380000Y-61945000D01*
%TO.N,Net-(U2-DVDD)*%
X69726571Y-58889808D02*
X70149393Y-59312630D01*
X70149393Y-59312630D02*
X70149393Y-59398425D01*
X70149393Y-59398425D02*
X70350000Y-59599032D01*
X70350000Y-59599032D02*
X70350000Y-60632183D01*
X70350000Y-60632183D02*
X70150001Y-60832182D01*
X70150001Y-60832182D02*
X70150001Y-61337210D01*
%TO.N,PHASE_B_SNS*%
X63721164Y-64951164D02*
X62755000Y-63985000D01*
X63758835Y-64951164D02*
X63721164Y-64951164D01*
X64090000Y-64620000D02*
X64090000Y-63860000D01*
X63758835Y-64951164D02*
X64090000Y-64620000D01*
X64090000Y-63860000D02*
X64095000Y-63855000D01*
%TO.N,Net-(U1-PA7)*%
X66723604Y-54056396D02*
X67110000Y-54442792D01*
X62190000Y-45490000D02*
X62190000Y-47614034D01*
X65915000Y-49915000D02*
X68420000Y-52420000D01*
X68420000Y-52420000D02*
X68420000Y-52870000D01*
X64490966Y-49915000D02*
X65915000Y-49915000D01*
X62190000Y-47614034D02*
X64490966Y-49915000D01*
X67110000Y-54442792D02*
X67110000Y-57970000D01*
X67110000Y-57970000D02*
X67095000Y-57985000D01*
%TO.N,Net-(U1-PB0)*%
X67670000Y-52480000D02*
X67670000Y-52174364D01*
X67670000Y-52174364D02*
X67105636Y-51610000D01*
X61450000Y-49325026D02*
X61450000Y-44900000D01*
X66539948Y-51610000D02*
X65199948Y-50270000D01*
X67105636Y-51610000D02*
X66539948Y-51610000D01*
X65199948Y-50270000D02*
X62394974Y-50270000D01*
X62394974Y-50270000D02*
X61450000Y-49325026D01*
X61450000Y-44900000D02*
X61820000Y-44530000D01*
%TO.N,Net-(U1-PA7)*%
X61850000Y-35390000D02*
X60960000Y-36280000D01*
X61850000Y-34625000D02*
X61850000Y-35390000D01*
X60960000Y-36280000D02*
X60960000Y-36890000D01*
%TO.N,Net-(U1-PB0)*%
X63350000Y-34625000D02*
X63350000Y-35399999D01*
X63350000Y-35399999D02*
X61999999Y-36750000D01*
X61999999Y-36750000D02*
X61820000Y-36750000D01*
%TO.N,Net-(C9-Pad2)*%
X57830000Y-35320000D02*
X57830000Y-36300000D01*
X57830000Y-36300000D02*
X62380000Y-40850000D01*
%TO.N,Net-(Q_AL1-Pad4)*%
X64910000Y-50970000D02*
X61400000Y-50970000D01*
X60710000Y-50280000D02*
X60710000Y-46770000D01*
X69430000Y-55490000D02*
X64910000Y-50970000D01*
X61400000Y-50970000D02*
X60710000Y-50280000D01*
%TO.N,Net-(U1-PB0)*%
X66095000Y-57985000D02*
X65975000Y-57865000D01*
X65975000Y-53375000D02*
X66008604Y-53341396D01*
X65975000Y-57865000D02*
X65975000Y-53375000D01*
%TO.N,Net-(U1-PA10)*%
X65169769Y-56486236D02*
X65186236Y-56486236D01*
X65186236Y-56486236D02*
X65570000Y-56870000D01*
X65570000Y-56870000D02*
X65570000Y-57960000D01*
X65570000Y-57960000D02*
X65595000Y-57985000D01*
%TO.N,Net-(U1-PB1)*%
X65445016Y-52777807D02*
X64600000Y-53622823D01*
X64620000Y-56502182D02*
X64620000Y-56785026D01*
X64990000Y-57795026D02*
X64990000Y-57880000D01*
X64620000Y-56785026D02*
X64990000Y-57155026D01*
X64990000Y-57155026D02*
X64990000Y-57795026D01*
X64600000Y-53622823D02*
X64600000Y-56482182D01*
X64600000Y-56482182D02*
X64620000Y-56502182D01*
X64990000Y-57880000D02*
X65095000Y-57985000D01*
%TO.N,Net-(U1-PA8)*%
X67630000Y-57383909D02*
X67630000Y-57950000D01*
X68040000Y-56973909D02*
X67630000Y-57383909D01*
X67630000Y-57950000D02*
X67595000Y-57985000D01*
%TO.N,Net-(U2-DVDD)*%
X64640000Y-57940000D02*
X64595000Y-57985000D01*
X64070000Y-56730000D02*
X64640000Y-57300000D01*
X64640000Y-57300000D02*
X64640000Y-57940000D01*
%TO.N,Net-(U1-PC13)*%
X61880000Y-53000000D02*
X63330000Y-51550000D01*
X63330000Y-51550000D02*
X64995026Y-51550000D01*
X64995026Y-51550000D02*
X68590000Y-55144974D01*
X68590000Y-55144974D02*
X68590000Y-57490000D01*
X68590000Y-57490000D02*
X68095000Y-57985000D01*
%TO.N,PHASE_B*%
X62660000Y-65610000D02*
X62660000Y-66579500D01*
X62660000Y-66579500D02*
X59519500Y-69720000D01*
X59519500Y-69720000D02*
X57647500Y-69720000D01*
X57647500Y-69720000D02*
X57647500Y-68677500D01*
X57647500Y-68677500D02*
X55791750Y-66821750D01*
X55791750Y-66821750D02*
X55791750Y-62530000D01*
%TO.N,Net-(Q_CH1-Pad4)*%
X57642685Y-57827315D02*
X57330000Y-58140000D01*
X57330000Y-58140000D02*
X57330000Y-63130000D01*
X57330000Y-63130000D02*
X57400000Y-63200000D01*
X57400000Y-63200000D02*
X57390000Y-63190000D01*
X57390000Y-63190000D02*
X57390000Y-63180000D01*
X57400000Y-67931500D02*
X57400000Y-63200000D01*
X58583500Y-69115000D02*
X57400000Y-67931500D01*
%TO.N,Net-(Q_CL1-Pad4)*%
X72070000Y-68775635D02*
X71393909Y-69451726D01*
X72070000Y-68245000D02*
X72070000Y-68775635D01*
X52820000Y-49770000D02*
X52820000Y-48670000D01*
X52820000Y-48670000D02*
X52830000Y-48660000D01*
%TO.N,PHASE_C_SNS*%
X78810000Y-66330000D02*
X78800000Y-66340000D01*
X78800000Y-66340000D02*
X74840000Y-66340000D01*
%TO.N,PHASE_B_SNS*%
X78850000Y-58740000D02*
X77640000Y-59950000D01*
X77640000Y-59950000D02*
X75240000Y-59950000D01*
X75240000Y-59950000D02*
X75150000Y-60040000D01*
%TO.N,PHASE_C_SNS*%
X67397500Y-50320000D02*
X74210000Y-50320000D01*
X66130000Y-49052500D02*
X67397500Y-50320000D01*
%TO.N,PHASE_A_SNS*%
X75950000Y-49052500D02*
X75950000Y-49070000D01*
X74930000Y-50090000D02*
X74930000Y-53665000D01*
X75950000Y-49070000D02*
X74930000Y-50090000D01*
%TO.N,Net-(U1-VDDA)*%
X65850000Y-34625000D02*
X65850000Y-33888302D01*
X65850000Y-33888302D02*
X66138302Y-33600000D01*
X67561698Y-33600000D02*
X69355000Y-35393302D01*
X69355000Y-35393302D02*
X69355000Y-36375000D01*
X66138302Y-33600000D02*
X67561698Y-33600000D01*
X65350000Y-34625000D02*
X65850000Y-34625000D01*
%TO.N,Net-(U1-PC0)*%
X58661698Y-28700000D02*
X59450000Y-29488302D01*
X57925000Y-28700000D02*
X58661698Y-28700000D01*
X59450000Y-29488302D02*
X59450000Y-31110000D01*
%TO.N,Net-(U1-PC13)*%
X57925000Y-25700000D02*
X58661698Y-25700000D01*
X60176940Y-27215242D02*
X60176940Y-30406940D01*
X58661698Y-25700000D02*
X60176940Y-27215242D01*
%TO.N,PHASE_A_SNS*%
X69275000Y-31700000D02*
X66110000Y-31700000D01*
X62158302Y-31580000D02*
X59850000Y-33888302D01*
X66110000Y-31700000D02*
X66050000Y-31760000D01*
X63180000Y-31580000D02*
X62158302Y-31580000D01*
X59850000Y-33888302D02*
X59850000Y-34625000D01*
%TO.N,Net-(SWD_HEADER1-Pin_6)*%
X50980000Y-28400000D02*
X51180000Y-28200000D01*
X51180000Y-28200000D02*
X57925000Y-28200000D01*
%TO.N,Net-(SWD_HEADER1-Pin_5)*%
X63850000Y-23275000D02*
X63850000Y-22500001D01*
X63850000Y-22500001D02*
X62169999Y-20820000D01*
X62169999Y-20820000D02*
X26830000Y-20820000D01*
X26830000Y-20820000D02*
X25290000Y-22360000D01*
%TO.N,Net-(SWD_HEADER1-Pin_3)*%
X65959999Y-24940000D02*
X63160000Y-24940000D01*
X66850000Y-24049999D02*
X65959999Y-24940000D01*
X66850000Y-23275000D02*
X66850000Y-24049999D01*
%TO.N,Net-(SWD_HEADER1-Pin_2)*%
X61060698Y-24482880D02*
X61882879Y-24482879D01*
X62930000Y-25530000D02*
X66710000Y-25530000D01*
X61882879Y-24482879D02*
X62930000Y-25530000D01*
X66710000Y-25530000D02*
X67350000Y-24890000D01*
X67350000Y-24890000D02*
X67350000Y-23275000D01*
%TO.N,+3.3V*%
X68260000Y-25200000D02*
X67580000Y-25880000D01*
X61170000Y-25900000D02*
X61170000Y-30191698D01*
X69275000Y-25200000D02*
X68260000Y-25200000D01*
X67580000Y-25880000D02*
X61190000Y-25880000D01*
X61190000Y-25880000D02*
X61170000Y-25900000D01*
%TO.N,Net-(U2-CPL)*%
X61430000Y-58510000D02*
X62750000Y-58510000D01*
X62750000Y-58510000D02*
X62910000Y-58670000D01*
%TO.N,Net-(U2-VGLS)*%
X61470000Y-56980000D02*
X62590000Y-56980000D01*
X62590000Y-56980000D02*
X63595000Y-57985000D01*
%TO.N,PHASE_A_SNS*%
X75930000Y-47670000D02*
X75930000Y-49032500D01*
X75930000Y-49032500D02*
X75950000Y-49052500D01*
X70500000Y-31700000D02*
X71400000Y-32600000D01*
X69275000Y-31700000D02*
X70500000Y-31700000D01*
%TO.N,Net-(U2-DVDD)*%
X75350000Y-72650000D02*
X75360000Y-72640000D01*
X75350000Y-73640000D02*
X75350000Y-72650000D01*
X75350000Y-73640000D02*
X78000000Y-73640000D01*
X78000000Y-73640000D02*
X78030000Y-73670000D01*
%TO.N,Net-(U2-GLB)*%
X64595000Y-63855000D02*
X64595000Y-64885812D01*
X64595000Y-64885812D02*
X64527488Y-64953324D01*
%TO.N,PHASE_B*%
X62660000Y-65610000D02*
X64650000Y-65610000D01*
X64650000Y-65610000D02*
X65095000Y-65165000D01*
X65095000Y-65165000D02*
X65095000Y-63855000D01*
%TO.N,PHASE_B_SNS*%
X70660000Y-47890000D02*
X70660000Y-48672500D01*
X69275000Y-31200000D02*
X70560000Y-31200000D01*
X70560000Y-31200000D02*
X70690000Y-31070000D01*
X70660000Y-48672500D02*
X71040000Y-49052500D01*
%TO.N,Net-(U1-PA8)*%
X69275000Y-28200000D02*
X68538302Y-28200000D01*
X68538302Y-28200000D02*
X64135016Y-32603286D01*
X64135016Y-32603286D02*
X64135016Y-33418185D01*
%TO.N,Net-(U1-PA9)*%
X66550000Y-57940000D02*
X66595000Y-57985000D01*
X69275000Y-27700000D02*
X68538302Y-27700000D01*
X63292963Y-32945339D02*
X63292963Y-33400000D01*
X68538302Y-27700000D02*
X63292963Y-32945339D01*
X66550000Y-56830000D02*
X66550000Y-57940000D01*
%TO.N,Net-(Q_AL1-Pad4)*%
X72160000Y-55570000D02*
X72080000Y-55490000D01*
X72080000Y-55490000D02*
X69430000Y-55490000D01*
X58460000Y-45800000D02*
X58230000Y-45800000D01*
X60710000Y-46770000D02*
X59430000Y-46770000D01*
X59430000Y-46770000D02*
X58460000Y-45800000D01*
%TO.N,Net-(U1-PA10)*%
X62430000Y-33308302D02*
X62430000Y-33350000D01*
X68538302Y-27200000D02*
X62430000Y-33308302D01*
X69275000Y-27200000D02*
X68538302Y-27200000D01*
%TO.N,Net-(U1-PA11)*%
X70190000Y-26700000D02*
X71140000Y-25750000D01*
X72507500Y-24600000D02*
X72737500Y-24370000D01*
X69275000Y-26700000D02*
X70190000Y-26700000D01*
X71520000Y-24600000D02*
X72507500Y-24600000D01*
%TO.N,Net-(Q_BH1-Pad4)*%
X59180000Y-60006750D02*
X58561750Y-60625000D01*
X59180000Y-59620000D02*
X59180000Y-60006750D01*
%TO.N,Net-(C9-Pad2)*%
X54980000Y-33390000D02*
X54980000Y-35320000D01*
X44770000Y-22520000D02*
X46530000Y-24280000D01*
X46530000Y-24280000D02*
X46530000Y-24580000D01*
X47580000Y-25990000D02*
X54980000Y-33390000D01*
X54980000Y-35320000D02*
X57830000Y-35320000D01*
%TO.N,FB*%
X53330000Y-35320000D02*
X53330000Y-36180000D01*
X53330000Y-36180000D02*
X54980000Y-37830000D01*
%TO.N,+3.3V*%
X61170000Y-25200000D02*
X61170000Y-25900000D01*
X61170000Y-30191698D02*
X58661698Y-32700000D01*
X58661698Y-32700000D02*
X57925000Y-32700000D01*
X59850000Y-23275000D02*
X59850000Y-24049999D01*
X59850000Y-24049999D02*
X61000001Y-25200000D01*
X61000001Y-25200000D02*
X61170000Y-25200000D01*
X67350000Y-34625000D02*
X67350000Y-36120000D01*
X68820000Y-37730000D02*
X68820000Y-38560000D01*
X67350000Y-36120000D02*
X68091091Y-36861091D01*
X68820000Y-38560000D02*
X68580000Y-38800000D01*
X59850000Y-23275000D02*
X57925000Y-25200000D01*
X35450000Y-22360000D02*
X38290000Y-25200000D01*
X38290000Y-25200000D02*
X57925000Y-25200000D01*
X68580000Y-38800000D02*
X72050000Y-38800000D01*
X72050000Y-38800000D02*
X73650000Y-37200000D01*
X75690000Y-37320000D02*
X75790000Y-37320000D01*
X75790000Y-37320000D02*
X75820000Y-37290000D01*
X75820000Y-37290000D02*
X77690000Y-37290000D01*
X74590000Y-35020000D02*
X74900000Y-35020000D01*
X75690000Y-37320000D02*
X75570000Y-37200000D01*
X75570000Y-37200000D02*
X73650000Y-37200000D01*
X74900000Y-35020000D02*
X75670000Y-35790000D01*
X74590000Y-32510000D02*
X74590000Y-35020000D01*
X74590000Y-30000000D02*
X74590000Y-32510000D01*
X74590000Y-27490000D02*
X74590000Y-30000000D01*
%TO.N,Net-(U1-VDDA)*%
X78510000Y-35040000D02*
X77175000Y-36375000D01*
X77175000Y-36375000D02*
X69355000Y-36375000D01*
X69355000Y-36375000D02*
X66930000Y-38800000D01*
X78510000Y-32550000D02*
X78510000Y-35040000D01*
X78590000Y-30030000D02*
X78590000Y-32470000D01*
X78590000Y-32470000D02*
X78510000Y-32550000D01*
X78590000Y-27520000D02*
X78590000Y-30030000D01*
%TO.N,+3.3V*%
X75067500Y-27012500D02*
X75067500Y-25290000D01*
X72737500Y-25200000D02*
X72827500Y-25290000D01*
X72827500Y-25290000D02*
X75067500Y-25290000D01*
X73402500Y-24535000D02*
X72737500Y-25200000D01*
X72737500Y-25200000D02*
X69275000Y-25200000D01*
X74590000Y-27490000D02*
X75067500Y-27012500D01*
X75067500Y-25290000D02*
X75067500Y-24370000D01*
%TO.N,Net-(U1-PC11)*%
X72737500Y-22870000D02*
X72114135Y-22246635D01*
X72114135Y-22246635D02*
X67441487Y-22246635D01*
X67441487Y-22246635D02*
X67144852Y-21950000D01*
X65300000Y-21950000D02*
X65300000Y-23225000D01*
X65300000Y-23225000D02*
X65350000Y-23275000D01*
%TO.N,Net-(U1-PC12)*%
X64850000Y-22443904D02*
X64850000Y-23275000D01*
X64770000Y-21350000D02*
X64740000Y-21380000D01*
X64740000Y-21380000D02*
X64740000Y-22333904D01*
X64740000Y-22333904D02*
X64850000Y-22443904D01*
X67698295Y-21400000D02*
X68146442Y-21848147D01*
X72545647Y-21848147D02*
X73402500Y-22705000D01*
X68146442Y-21848147D02*
X72545647Y-21848147D01*
%TO.N,Net-(U1-PC10)*%
X65830000Y-20850000D02*
X65850000Y-20870000D01*
X65850000Y-20870000D02*
X65850000Y-23275000D01*
X68440000Y-21150000D02*
X68477819Y-21150000D01*
X68677819Y-20950000D02*
X73490000Y-20950000D01*
X68477819Y-21150000D02*
X68677819Y-20950000D01*
X73490000Y-20950000D02*
X73902500Y-21362500D01*
X73902500Y-21362500D02*
X73902500Y-22705000D01*
%TO.N,Net-(U1-PA15)*%
X74402500Y-22705000D02*
X74402500Y-21232500D01*
X74402500Y-21232500D02*
X73770000Y-20600000D01*
X73770000Y-20600000D02*
X66750000Y-20600000D01*
X66750000Y-20600000D02*
X66380000Y-20970000D01*
X66380000Y-20970000D02*
X66380000Y-21077818D01*
X66380000Y-21077818D02*
X66350000Y-21107818D01*
X66350000Y-21107818D02*
X66350000Y-23275000D01*
%TO.N,Net-(C10-Pad2)*%
X49320000Y-48360000D02*
X51360000Y-46320000D01*
X51360000Y-46320000D02*
X51360000Y-42310000D01*
X51360000Y-42310000D02*
X53330000Y-40340000D01*
%TO.N,FB*%
X49441409Y-37358591D02*
X51480000Y-35320000D01*
X51480000Y-35320000D02*
X53330000Y-35320000D01*
X47565239Y-40055000D02*
X48059552Y-39560687D01*
X46565000Y-40055000D02*
X47565239Y-40055000D01*
%TO.N,Net-(U5-COMP)*%
X48770000Y-39100000D02*
X48360000Y-39100000D01*
X48360000Y-39100000D02*
X48045000Y-38785000D01*
X48045000Y-38785000D02*
X46565000Y-38785000D01*
X50680000Y-39340000D02*
X53446938Y-39340000D01*
X53446938Y-39340000D02*
X54446938Y-40340000D01*
X54446938Y-40340000D02*
X54980000Y-40340000D01*
%TO.N,Net-(U5-PH)*%
X49320000Y-43340000D02*
X49320000Y-38015001D01*
X49320000Y-38015001D02*
X47549999Y-36245000D01*
X47549999Y-36245000D02*
X46565000Y-36245000D01*
X44770000Y-32220000D02*
X44770000Y-34450000D01*
X44770000Y-34450000D02*
X46565000Y-36245000D01*
%TO.N,Net-(U5-BOOT)*%
X41625000Y-36245000D02*
X42609999Y-36245000D01*
X42609999Y-36245000D02*
X45330000Y-38965001D01*
X45330000Y-38965001D02*
X45330000Y-40900000D01*
X45330000Y-40900000D02*
X47770000Y-43340000D01*
%TO.N,Net-(U5-SS)*%
X41625000Y-40055000D02*
X47420000Y-45850000D01*
X47420000Y-45850000D02*
X47770000Y-45850000D01*
%TO.N,GATE_PROT*%
X25290000Y-58730000D02*
X24670000Y-59350000D01*
X24670000Y-59350000D02*
X24670000Y-65065228D01*
X24670000Y-65065228D02*
X27424772Y-67820000D01*
X27424772Y-67820000D02*
X33010000Y-67820000D01*
X25935000Y-73860000D02*
X26970000Y-73860000D01*
X26970000Y-73860000D02*
X33010000Y-67820000D01*
%TO.N,VBAT_RAW*%
X33160000Y-57130000D02*
X33160000Y-66020000D01*
X33160000Y-66020000D02*
X33010000Y-66170000D01*
%TO.N,GND_RAW*%
X24950000Y-45470000D02*
X22050863Y-45470000D01*
X22050863Y-45470000D02*
X20653800Y-46867063D01*
X20653800Y-46867063D02*
X20653800Y-55995116D01*
X26560000Y-58399000D02*
X26560000Y-58730000D01*
X20653800Y-55995116D02*
X22452684Y-57794000D01*
X22452684Y-57794000D02*
X25955000Y-57794000D01*
X25955000Y-57794000D02*
X26560000Y-58399000D01*
%TO.N,Net-(U2-VREF)*%
X69170000Y-65540000D02*
X69460000Y-65250000D01*
X69209999Y-61670000D02*
X68780000Y-61670000D01*
X69460000Y-61920001D02*
X69209999Y-61670000D01*
%TD*%
%TA.AperFunction,Conductor*%
%TO.N,PHASE_C*%
G36*
X55850987Y-67734302D02*
G01*
X55871832Y-67751067D01*
X56141476Y-68020711D01*
X56162625Y-68048961D01*
X56168046Y-68058888D01*
X56182900Y-68127161D01*
X56158486Y-68192626D01*
X56102554Y-68234499D01*
X56102550Y-68234501D01*
X56095362Y-68237182D01*
X56052028Y-68245000D01*
X54827500Y-68245000D01*
X54827500Y-73795000D01*
X56797502Y-73795000D01*
X56797504Y-73795000D01*
X56812220Y-73794211D01*
X56851488Y-73792106D01*
X56990759Y-73756557D01*
X56997830Y-73753628D01*
X57092577Y-73701893D01*
X57092580Y-73701890D01*
X57092581Y-73701888D01*
X57092827Y-73701705D01*
X57094189Y-73700392D01*
X57170207Y-73629619D01*
X57199191Y-73609493D01*
X57209310Y-73604428D01*
X57278067Y-73592022D01*
X57342619Y-73618759D01*
X57382466Y-73676146D01*
X57383842Y-73680278D01*
X57385446Y-73685097D01*
X57391791Y-73723935D01*
X57399634Y-76768138D01*
X57394699Y-76803090D01*
X57390333Y-76818100D01*
X57352723Y-76876961D01*
X57351364Y-76878145D01*
X57296556Y-76905754D01*
X57288989Y-76907419D01*
X57262628Y-76910316D01*
X46361327Y-76935479D01*
X46294243Y-76915949D01*
X46248366Y-76863251D01*
X46237357Y-76802629D01*
X46237896Y-76795102D01*
X46237896Y-75447919D01*
X46257581Y-75380880D01*
X46310385Y-75335125D01*
X46379543Y-75325181D01*
X46443099Y-75354206D01*
X46449577Y-75360238D01*
X46551654Y-75462315D01*
X46700875Y-75554356D01*
X46700880Y-75554358D01*
X46867299Y-75609504D01*
X46867300Y-75609504D01*
X46867302Y-75609505D01*
X46867309Y-75609506D01*
X46970019Y-75619999D01*
X47819999Y-75619999D01*
X47820000Y-75619998D01*
X47820000Y-74584100D01*
X47839685Y-74517061D01*
X47892489Y-74471306D01*
X47961647Y-74461362D01*
X47968172Y-74462479D01*
X48005981Y-74470000D01*
X48134019Y-74470000D01*
X48171808Y-74462483D01*
X48241399Y-74468710D01*
X48296577Y-74511572D01*
X48319822Y-74577461D01*
X48320000Y-74584100D01*
X48320000Y-75619999D01*
X49169960Y-75619999D01*
X49169972Y-75619999D01*
X49169986Y-75619998D01*
X49272697Y-75609505D01*
X49439119Y-75554358D01*
X49439124Y-75554356D01*
X49588345Y-75462315D01*
X49712315Y-75338345D01*
X49804356Y-75189124D01*
X49804358Y-75189119D01*
X49859505Y-75022697D01*
X49859506Y-75022690D01*
X49869999Y-74919986D01*
X49870000Y-74919973D01*
X49870000Y-74070000D01*
X48834101Y-74070000D01*
X48767062Y-74050315D01*
X48721307Y-73997511D01*
X48711363Y-73928353D01*
X48712483Y-73921810D01*
X48720000Y-73884017D01*
X48720000Y-73755982D01*
X48719532Y-73753631D01*
X48712483Y-73718190D01*
X48718712Y-73648599D01*
X48761575Y-73593422D01*
X48827465Y-73570178D01*
X48834101Y-73570000D01*
X49869999Y-73570000D01*
X49869999Y-72720032D01*
X49869999Y-72720028D01*
X49869998Y-72720013D01*
X49859505Y-72617302D01*
X49804358Y-72450880D01*
X49804356Y-72450875D01*
X49712315Y-72301654D01*
X49588345Y-72177684D01*
X49439124Y-72085643D01*
X49439119Y-72085641D01*
X49439110Y-72085638D01*
X49272699Y-72030494D01*
X49272694Y-72030493D01*
X49169991Y-72020000D01*
X49169986Y-72020000D01*
X48320000Y-72020000D01*
X48320000Y-73055899D01*
X48300315Y-73122938D01*
X48247511Y-73168693D01*
X48178353Y-73178637D01*
X48171810Y-73177517D01*
X48166541Y-73176469D01*
X48134019Y-73170000D01*
X48134018Y-73170000D01*
X48005982Y-73170000D01*
X48005981Y-73170000D01*
X47968190Y-73177517D01*
X47898599Y-73171288D01*
X47843422Y-73128425D01*
X47820178Y-73062535D01*
X47820000Y-73055899D01*
X47820000Y-72020000D01*
X46970028Y-72020000D01*
X46970012Y-72020001D01*
X46970002Y-72020001D01*
X46970002Y-72020002D01*
X46867304Y-72030493D01*
X46867302Y-72030494D01*
X46700887Y-72085638D01*
X46700879Y-72085641D01*
X46700877Y-72085642D01*
X46700875Y-72085643D01*
X46601394Y-72147003D01*
X46551652Y-72177685D01*
X46449577Y-72279761D01*
X46388254Y-72313246D01*
X46318562Y-72308262D01*
X46262629Y-72266390D01*
X46238212Y-72200926D01*
X46237896Y-72192080D01*
X46237896Y-71934754D01*
X46257581Y-71867715D01*
X46275171Y-71846127D01*
X46833279Y-71299997D01*
X51842500Y-71299997D01*
X51842500Y-72010004D01*
X51845392Y-72063982D01*
X51845392Y-72063986D01*
X51845393Y-72063988D01*
X51874414Y-72177685D01*
X51880943Y-72203261D01*
X51880943Y-72203262D01*
X51883870Y-72210329D01*
X51886798Y-72215691D01*
X51899127Y-72248748D01*
X51902423Y-72263898D01*
X51902965Y-72266390D01*
X51903211Y-72267518D01*
X51900380Y-72330935D01*
X51897466Y-72340241D01*
X51885777Y-72366456D01*
X51883873Y-72369664D01*
X51883870Y-72369671D01*
X51880952Y-72376714D01*
X51880939Y-72376748D01*
X51862955Y-72427726D01*
X51842500Y-72570000D01*
X51842500Y-73280004D01*
X51845392Y-73333982D01*
X51845394Y-73333992D01*
X51880943Y-73473261D01*
X51880943Y-73473262D01*
X51883871Y-73480330D01*
X51883872Y-73480333D01*
X51935604Y-73575074D01*
X51935606Y-73575076D01*
X52033549Y-73680277D01*
X52033551Y-73680278D01*
X52033555Y-73680280D01*
X52034452Y-73680952D01*
X52037374Y-73682547D01*
X52073195Y-73703801D01*
X52157172Y-73753629D01*
X52164232Y-73756554D01*
X52215228Y-73774544D01*
X52352044Y-73794214D01*
X52356189Y-73795000D01*
X52357503Y-73795000D01*
X54327500Y-73795000D01*
X54327500Y-71270000D01*
X51846813Y-71270000D01*
X51842500Y-71299997D01*
X46833279Y-71299997D01*
X46928378Y-71206939D01*
X49428985Y-68760000D01*
X51842500Y-68760000D01*
X51842500Y-69470004D01*
X51845392Y-69523982D01*
X51845394Y-69523992D01*
X51880943Y-69663261D01*
X51880943Y-69663262D01*
X51883870Y-69670329D01*
X51886798Y-69675691D01*
X51899127Y-69708748D01*
X51903211Y-69727518D01*
X51900380Y-69790935D01*
X51897466Y-69800241D01*
X51885777Y-69826456D01*
X51883873Y-69829664D01*
X51883870Y-69829671D01*
X51880952Y-69836714D01*
X51880939Y-69836748D01*
X51862955Y-69887726D01*
X51862955Y-69887728D01*
X51842500Y-70030001D01*
X51842500Y-70740003D01*
X51844108Y-70770000D01*
X54327500Y-70770000D01*
X54327500Y-68245000D01*
X52357495Y-68245000D01*
X52303515Y-68247892D01*
X52303506Y-68247894D01*
X52228141Y-68267131D01*
X52164240Y-68283442D01*
X52164238Y-68283442D01*
X52164237Y-68283443D01*
X52164236Y-68283443D01*
X52157168Y-68286371D01*
X52157165Y-68286372D01*
X52062424Y-68338104D01*
X51957223Y-68436048D01*
X51956542Y-68436957D01*
X51954951Y-68439873D01*
X51883869Y-68559674D01*
X51880945Y-68566731D01*
X51862955Y-68617726D01*
X51842500Y-68760000D01*
X49428985Y-68760000D01*
X50450542Y-67760368D01*
X50512223Y-67727552D01*
X50537018Y-67724997D01*
X55783911Y-67714748D01*
X55850987Y-67734302D01*
G37*
%TD.AperFunction*%
%TD*%
%TA.AperFunction,Conductor*%
%TO.N,PHASE_A*%
G36*
X56747052Y-50442822D02*
G01*
X56783677Y-50478606D01*
X56818210Y-50530288D01*
X56818213Y-50530292D01*
X56929707Y-50641786D01*
X56929711Y-50641789D01*
X57060814Y-50729390D01*
X57060827Y-50729397D01*
X57148230Y-50765599D01*
X57206503Y-50789737D01*
X57232799Y-50794967D01*
X57294708Y-50827349D01*
X57329284Y-50888064D01*
X57332606Y-50915932D01*
X57336149Y-51590101D01*
X57316817Y-51657243D01*
X57264255Y-51703275D01*
X57195149Y-51713582D01*
X57131442Y-51684891D01*
X57121395Y-51675248D01*
X57069700Y-51619722D01*
X57069698Y-51619721D01*
X56946077Y-51546370D01*
X56939017Y-51543445D01*
X56888021Y-51525455D01*
X56745748Y-51505000D01*
X54775750Y-51505000D01*
X54775750Y-57055000D01*
X56745752Y-57055000D01*
X56799738Y-57052106D01*
X56939009Y-57016557D01*
X56946080Y-57013628D01*
X57040826Y-56961893D01*
X57152522Y-56857904D01*
X57154101Y-56859600D01*
X57201105Y-56826949D01*
X57270930Y-56824439D01*
X57331027Y-56860077D01*
X57362317Y-56922548D01*
X57364290Y-56943941D01*
X57364546Y-56992560D01*
X57345215Y-57059702D01*
X57292653Y-57105735D01*
X57288003Y-57107773D01*
X57263511Y-57117918D01*
X57263499Y-57117924D01*
X57132396Y-57205525D01*
X57132392Y-57205528D01*
X57020898Y-57317022D01*
X57020895Y-57317026D01*
X56933294Y-57448129D01*
X56933287Y-57448142D01*
X56872949Y-57593813D01*
X56872946Y-57593825D01*
X56842185Y-57748468D01*
X56842185Y-57750694D01*
X56841838Y-57751985D01*
X56841588Y-57754533D01*
X56841167Y-57754491D01*
X56825572Y-57812694D01*
X56799360Y-57858095D01*
X56799359Y-57858096D01*
X56770425Y-57908209D01*
X56770423Y-57908212D01*
X56762417Y-57938094D01*
X56726051Y-57997755D01*
X56663204Y-58028283D01*
X56642642Y-58030000D01*
X50230000Y-58030000D01*
X40760000Y-67129999D01*
X40759999Y-67130001D01*
X40572382Y-76813969D01*
X40551402Y-76880615D01*
X40497722Y-76925338D01*
X40447021Y-76935559D01*
X35593896Y-76881383D01*
X35527080Y-76860952D01*
X35481918Y-76807640D01*
X35471287Y-76756103D01*
X35503024Y-73702014D01*
X36110000Y-73702014D01*
X36110000Y-73937985D01*
X36140799Y-74171914D01*
X36201870Y-74399837D01*
X36292160Y-74617819D01*
X36292165Y-74617828D01*
X36410144Y-74822171D01*
X36410145Y-74822172D01*
X36472721Y-74903723D01*
X37308958Y-74067487D01*
X37333978Y-74127890D01*
X37405112Y-74234351D01*
X37495649Y-74324888D01*
X37602110Y-74396022D01*
X37662511Y-74421041D01*
X36826275Y-75257277D01*
X36907827Y-75319854D01*
X36907828Y-75319855D01*
X37112171Y-75437834D01*
X37112180Y-75437839D01*
X37330163Y-75528129D01*
X37330161Y-75528129D01*
X37558085Y-75589200D01*
X37792014Y-75619999D01*
X37792029Y-75620000D01*
X38027971Y-75620000D01*
X38027985Y-75619999D01*
X38261914Y-75589200D01*
X38489837Y-75528129D01*
X38707819Y-75437839D01*
X38707828Y-75437834D01*
X38912181Y-75319850D01*
X38993723Y-75257279D01*
X38993723Y-75257276D01*
X38157487Y-74421041D01*
X38217890Y-74396022D01*
X38324351Y-74324888D01*
X38414888Y-74234351D01*
X38486022Y-74127890D01*
X38511041Y-74067488D01*
X39347276Y-74903723D01*
X39347279Y-74903723D01*
X39409850Y-74822181D01*
X39527834Y-74617828D01*
X39527839Y-74617819D01*
X39618129Y-74399837D01*
X39679200Y-74171914D01*
X39709999Y-73937985D01*
X39710000Y-73937971D01*
X39710000Y-73702028D01*
X39709999Y-73702014D01*
X39679200Y-73468085D01*
X39618129Y-73240162D01*
X39527839Y-73022180D01*
X39527834Y-73022171D01*
X39409855Y-72817828D01*
X39409854Y-72817827D01*
X39347277Y-72736275D01*
X38511041Y-73572511D01*
X38486022Y-73512110D01*
X38414888Y-73405649D01*
X38324351Y-73315112D01*
X38217890Y-73243978D01*
X38157488Y-73218958D01*
X38993723Y-72382721D01*
X38912172Y-72320145D01*
X38912171Y-72320144D01*
X38707828Y-72202165D01*
X38707819Y-72202160D01*
X38489836Y-72111870D01*
X38489838Y-72111870D01*
X38261914Y-72050799D01*
X38027985Y-72020000D01*
X37792014Y-72020000D01*
X37558085Y-72050799D01*
X37330162Y-72111870D01*
X37112180Y-72202160D01*
X37112171Y-72202165D01*
X36907828Y-72320144D01*
X36907818Y-72320150D01*
X36826275Y-72382720D01*
X36826275Y-72382721D01*
X37662512Y-73218958D01*
X37602110Y-73243978D01*
X37495649Y-73315112D01*
X37405112Y-73405649D01*
X37333978Y-73512110D01*
X37308958Y-73572512D01*
X36472721Y-72736275D01*
X36472720Y-72736275D01*
X36410150Y-72817818D01*
X36410144Y-72817828D01*
X36292165Y-73022171D01*
X36292160Y-73022180D01*
X36201870Y-73240162D01*
X36140799Y-73468085D01*
X36110000Y-73702014D01*
X35503024Y-73702014D01*
X35599463Y-64421607D01*
X35619843Y-64354778D01*
X35636990Y-64334017D01*
X45685050Y-54559995D01*
X51790750Y-54559995D01*
X51790750Y-55270002D01*
X51793643Y-55323988D01*
X51829192Y-55463259D01*
X51832121Y-55470330D01*
X51843589Y-55491332D01*
X51858441Y-55559605D01*
X51841399Y-55614032D01*
X51832122Y-55629667D01*
X51829195Y-55636732D01*
X51811205Y-55687728D01*
X51790750Y-55830001D01*
X51790750Y-56540002D01*
X51793643Y-56593988D01*
X51829192Y-56733259D01*
X51832121Y-56740330D01*
X51883856Y-56835076D01*
X51981799Y-56940277D01*
X51981801Y-56940278D01*
X52105422Y-57013629D01*
X52112482Y-57016554D01*
X52163478Y-57034544D01*
X52305751Y-57054999D01*
X52305753Y-57055000D01*
X54275750Y-57055000D01*
X54275750Y-54530000D01*
X51795063Y-54530000D01*
X51790750Y-54559995D01*
X45685050Y-54559995D01*
X48296259Y-52020001D01*
X51790750Y-52020001D01*
X51790750Y-52730002D01*
X51793643Y-52783988D01*
X51829192Y-52923259D01*
X51832121Y-52930330D01*
X51843589Y-52951332D01*
X51858441Y-53019605D01*
X51841399Y-53074032D01*
X51832122Y-53089667D01*
X51829195Y-53096732D01*
X51811205Y-53147728D01*
X51790750Y-53290001D01*
X51790750Y-54000003D01*
X51792358Y-54030000D01*
X54275750Y-54030000D01*
X54275750Y-51505000D01*
X52305748Y-51505000D01*
X52251761Y-51507893D01*
X52112490Y-51543442D01*
X52105419Y-51546371D01*
X52010673Y-51598106D01*
X51905472Y-51696049D01*
X51905471Y-51696051D01*
X51832120Y-51819672D01*
X51829195Y-51826732D01*
X51811205Y-51877728D01*
X51790750Y-52020001D01*
X48296259Y-52020001D01*
X49864181Y-50494841D01*
X49925959Y-50462209D01*
X49949962Y-50459731D01*
X52353741Y-50446790D01*
X52420883Y-50466112D01*
X52423298Y-50467686D01*
X52440813Y-50479389D01*
X52440816Y-50479391D01*
X52440821Y-50479394D01*
X52440823Y-50479395D01*
X52440827Y-50479397D01*
X52586498Y-50539735D01*
X52586503Y-50539737D01*
X52741153Y-50570499D01*
X52741156Y-50570500D01*
X52741158Y-50570500D01*
X52898844Y-50570500D01*
X52898845Y-50570499D01*
X53053497Y-50539737D01*
X53199179Y-50479394D01*
X53224264Y-50462632D01*
X53290939Y-50441753D01*
X53292284Y-50441737D01*
X56679909Y-50423499D01*
X56747052Y-50442822D01*
G37*
%TD.AperFunction*%
%TD*%
%TA.AperFunction,Conductor*%
%TO.N,PHASE_B*%
G36*
X56672539Y-58555185D02*
G01*
X56718294Y-58607989D01*
X56729500Y-58659500D01*
X56729500Y-59613170D01*
X56724475Y-59648114D01*
X56720070Y-59663112D01*
X56682327Y-59721855D01*
X56680958Y-59723042D01*
X56626097Y-59750518D01*
X56618539Y-59752163D01*
X56592168Y-59755000D01*
X54805750Y-59755000D01*
X54805750Y-65305000D01*
X56657670Y-65305000D01*
X56692606Y-65310023D01*
X56707604Y-65314427D01*
X56766355Y-65352172D01*
X56767542Y-65353541D01*
X56795018Y-65408402D01*
X56796663Y-65415960D01*
X56799500Y-65442331D01*
X56799500Y-67065677D01*
X56794475Y-67100621D01*
X56790070Y-67115619D01*
X56752347Y-67174346D01*
X56750929Y-67175576D01*
X56696144Y-67203047D01*
X56688697Y-67204674D01*
X56662472Y-67207532D01*
X50279997Y-67219999D01*
X50279987Y-67220004D01*
X50279529Y-67220458D01*
X45732396Y-71669998D01*
X45732396Y-76795102D01*
X45727371Y-76830046D01*
X45722966Y-76845044D01*
X45685223Y-76903787D01*
X45683854Y-76904974D01*
X45628993Y-76932450D01*
X45621435Y-76934095D01*
X45595064Y-76936932D01*
X41202020Y-76936932D01*
X41134981Y-76917247D01*
X41089226Y-76864443D01*
X41078043Y-76810530D01*
X41101109Y-75620000D01*
X41120276Y-74630649D01*
X41141256Y-74564004D01*
X41194936Y-74519281D01*
X41264274Y-74510679D01*
X41327256Y-74540930D01*
X41358814Y-74585600D01*
X41372155Y-74617810D01*
X41372159Y-74617818D01*
X41372160Y-74617819D01*
X41372165Y-74617828D01*
X41490144Y-74822171D01*
X41490145Y-74822172D01*
X41552721Y-74903723D01*
X42272923Y-74183520D01*
X42334245Y-74150037D01*
X42403937Y-74155021D01*
X42459870Y-74196893D01*
X42463691Y-74202292D01*
X42485112Y-74234351D01*
X42485116Y-74234355D01*
X42485116Y-74234356D01*
X42575643Y-74324883D01*
X42575646Y-74324885D01*
X42575649Y-74324888D01*
X42607685Y-74346293D01*
X42652489Y-74399904D01*
X42661197Y-74469229D01*
X42631043Y-74532257D01*
X42626475Y-74537076D01*
X41906275Y-75257276D01*
X41906275Y-75257277D01*
X41987827Y-75319854D01*
X41987828Y-75319855D01*
X42192171Y-75437834D01*
X42192180Y-75437839D01*
X42192183Y-75437840D01*
X42192188Y-75437843D01*
X42322254Y-75491717D01*
X42346158Y-75510979D01*
X42410160Y-75528128D01*
X42410163Y-75528129D01*
X42410161Y-75528129D01*
X42638085Y-75589200D01*
X42872014Y-75619999D01*
X42872029Y-75620000D01*
X43107959Y-75620000D01*
X43107971Y-75620000D01*
X43107985Y-75619999D01*
X43341914Y-75589200D01*
X43569837Y-75528129D01*
X43569849Y-75528123D01*
X43569852Y-75528123D01*
X43787810Y-75437843D01*
X43787811Y-75437841D01*
X43787819Y-75437839D01*
X43787828Y-75437834D01*
X43992181Y-75319850D01*
X44073723Y-75257279D01*
X44073723Y-75257276D01*
X43353522Y-74537076D01*
X43320038Y-74475754D01*
X43325022Y-74406063D01*
X43366894Y-74350129D01*
X43372302Y-74346301D01*
X43404351Y-74324888D01*
X43494888Y-74234351D01*
X43516293Y-74202314D01*
X43569901Y-74157510D01*
X43639226Y-74148800D01*
X43702254Y-74178953D01*
X43707075Y-74183522D01*
X44427276Y-74903723D01*
X44427278Y-74903723D01*
X44427279Y-74903723D01*
X44489850Y-74822181D01*
X44607834Y-74617828D01*
X44607839Y-74617819D01*
X44621185Y-74585600D01*
X44698123Y-74399852D01*
X44698123Y-74399849D01*
X44698129Y-74399837D01*
X44759200Y-74171914D01*
X44789999Y-73937985D01*
X44790000Y-73937971D01*
X44790000Y-73702028D01*
X44789999Y-73702014D01*
X44759200Y-73468085D01*
X44698129Y-73240162D01*
X44698124Y-73240152D01*
X44698123Y-73240146D01*
X44607843Y-73022188D01*
X44607839Y-73022180D01*
X44607834Y-73022171D01*
X44489855Y-72817828D01*
X44489854Y-72817827D01*
X44427277Y-72736275D01*
X44427276Y-72736275D01*
X43707076Y-73456475D01*
X43645753Y-73489960D01*
X43576061Y-73484976D01*
X43520128Y-73443104D01*
X43516306Y-73437704D01*
X43494888Y-73405649D01*
X43494883Y-73405644D01*
X43494883Y-73405643D01*
X43404353Y-73315113D01*
X43372313Y-73293705D01*
X43327508Y-73240092D01*
X43318801Y-73170767D01*
X43348956Y-73107740D01*
X43353509Y-73102935D01*
X44073723Y-72382721D01*
X44073720Y-72382719D01*
X43992172Y-72320145D01*
X43992171Y-72320144D01*
X43787828Y-72202165D01*
X43787819Y-72202160D01*
X43787818Y-72202159D01*
X43787810Y-72202155D01*
X43657744Y-72148281D01*
X43633841Y-72129019D01*
X43569838Y-72111870D01*
X43341914Y-72050799D01*
X43107985Y-72020000D01*
X42872014Y-72020000D01*
X42638085Y-72050799D01*
X42410162Y-72111870D01*
X42410146Y-72111875D01*
X42192188Y-72202155D01*
X42192156Y-72202173D01*
X41987821Y-72320147D01*
X41987814Y-72320152D01*
X41906275Y-72382719D01*
X41906275Y-72382721D01*
X42626476Y-73102922D01*
X42659961Y-73164245D01*
X42654977Y-73233937D01*
X42613105Y-73289870D01*
X42607687Y-73293704D01*
X42575649Y-73315111D01*
X42575643Y-73315116D01*
X42485116Y-73405643D01*
X42485111Y-73405649D01*
X42463704Y-73437687D01*
X42410091Y-73482492D01*
X42340766Y-73491198D01*
X42277739Y-73461042D01*
X42272922Y-73456476D01*
X41552721Y-72736275D01*
X41552720Y-72736275D01*
X41552719Y-72736275D01*
X41490152Y-72817814D01*
X41490147Y-72817821D01*
X41384463Y-73000870D01*
X41333895Y-73049085D01*
X41265288Y-73062307D01*
X41200424Y-73036339D01*
X41159896Y-72979425D01*
X41153099Y-72936467D01*
X41155523Y-72811382D01*
X41260349Y-67400690D01*
X41281329Y-67334046D01*
X41298404Y-67313688D01*
X45985214Y-62809997D01*
X51820750Y-62809997D01*
X51820750Y-63520004D01*
X51823642Y-63573982D01*
X51823644Y-63573992D01*
X51859193Y-63713261D01*
X51859193Y-63713262D01*
X51862120Y-63720329D01*
X51865048Y-63725691D01*
X51877377Y-63758748D01*
X51881461Y-63777518D01*
X51878630Y-63840935D01*
X51875716Y-63850241D01*
X51864027Y-63876456D01*
X51862123Y-63879664D01*
X51862120Y-63879671D01*
X51859202Y-63886714D01*
X51859189Y-63886748D01*
X51841205Y-63937726D01*
X51820750Y-64080000D01*
X51820750Y-64790004D01*
X51823642Y-64843982D01*
X51823644Y-64843992D01*
X51859193Y-64983261D01*
X51859193Y-64983262D01*
X51862121Y-64990330D01*
X51862122Y-64990333D01*
X51913854Y-65085074D01*
X51913856Y-65085076D01*
X52011799Y-65190277D01*
X52011801Y-65190278D01*
X52011805Y-65190280D01*
X52012702Y-65190952D01*
X52015624Y-65192547D01*
X52061883Y-65219994D01*
X52135422Y-65263629D01*
X52142482Y-65266554D01*
X52193478Y-65284544D01*
X52330294Y-65304214D01*
X52334439Y-65305000D01*
X52335753Y-65305000D01*
X54305750Y-65305000D01*
X54305750Y-62780000D01*
X51825063Y-62780000D01*
X51820750Y-62809997D01*
X45985214Y-62809997D01*
X47659287Y-61201332D01*
X48628487Y-60270000D01*
X51820750Y-60270000D01*
X51820750Y-60980004D01*
X51823642Y-61033982D01*
X51823644Y-61033992D01*
X51859193Y-61173261D01*
X51859193Y-61173262D01*
X51862120Y-61180329D01*
X51865048Y-61185691D01*
X51877377Y-61218748D01*
X51881461Y-61237518D01*
X51878630Y-61300935D01*
X51875716Y-61310241D01*
X51864027Y-61336456D01*
X51862123Y-61339664D01*
X51862120Y-61339671D01*
X51859202Y-61346714D01*
X51859189Y-61346748D01*
X51841205Y-61397726D01*
X51841205Y-61397728D01*
X51820750Y-61540001D01*
X51820750Y-62250003D01*
X51822358Y-62280000D01*
X54305750Y-62280000D01*
X54305750Y-59755000D01*
X52335745Y-59755000D01*
X52281765Y-59757892D01*
X52281756Y-59757894D01*
X52206391Y-59777131D01*
X52142490Y-59793442D01*
X52142488Y-59793442D01*
X52142487Y-59793443D01*
X52142486Y-59793443D01*
X52135418Y-59796371D01*
X52135415Y-59796372D01*
X52040674Y-59848104D01*
X51935473Y-59946048D01*
X51934792Y-59946957D01*
X51933201Y-59949873D01*
X51862119Y-60069674D01*
X51859195Y-60076731D01*
X51841205Y-60127726D01*
X51820750Y-60270000D01*
X48628487Y-60270000D01*
X48726141Y-60176161D01*
X50397515Y-58570089D01*
X50459493Y-58537833D01*
X50483432Y-58535500D01*
X56605500Y-58535500D01*
X56672539Y-58555185D01*
G37*
%TD.AperFunction*%
%TD*%
M02*
