M48
; DRILL file KiCad 10.0.5 date 2026-09-27T17:33:25
; FORMAT={-:-/ absolute / metric / decimal}
; #@! TF.CreationDate,2026-09-27T17:33:25-04:00
; #@! TF.GenerationSoftware,Kicad,Pcbnew,10.0.5
; #@! TF.FileFunction,Plated,1,4,PTH
FMAT,2
METRIC
; #@! TA.AperFunction,Plated,PTH,ViaDrill
T1C0.300
; #@! TA.AperFunction,Plated,PTH,ComponentDrill
T2C0.600
; #@! TA.AperFunction,Plated,PTH,ComponentDrill
T3C1.000
; #@! TA.AperFunction,Plated,PTH,ComponentDrill
T4C1.300
; #@! TA.AperFunction,Plated,PTH,ComponentDrill
T5C1.550
; #@! TA.AperFunction,Plated,PTH,ComponentDrill
T6C2.700
%
G90
G05
T1
X33.16Y-57.13
X46.18Y-49.68
X46.53Y-24.58
X47.58Y-25.99
X48.06Y-39.561
X48.77Y-39.1
X49.441Y-37.359
X50.68Y-39.34
X50.98Y-28.4
X51.99Y-44.88
X52.82Y-49.77
X56.1Y-47.49
X56.24Y-45.83
X56.27Y-46.68
X57.44Y-50.02
X57.643Y-57.827
X58.22Y-46.92
X59.1Y-57.12
X59.18Y-59.62
X59.45Y-31.11
X59.87Y-62.03
X60.177Y-30.407
X60.317Y-60.93
X60.55Y-45.67
X60.7Y-62.22
X60.96Y-36.89
X61.061Y-24.483
X61.32Y-66.93
X61.321Y-61.12
X61.471Y-59.817
X61.7Y-51.67
X61.82Y-36.75
X61.82Y-44.53
X61.841Y-68.229
X61.88Y-53.0
X61.96Y-66.43
X61.98Y-63.13
X62.19Y-45.49
X62.214Y-56.43
X62.23Y-68.87
X62.43Y-33.35
X62.755Y-63.985
X63.16Y-24.94
X63.18Y-31.58
X63.293Y-33.4
X64.07Y-56.73
X64.135Y-33.418
X64.527Y-64.953
X64.558Y-65.708
X64.56Y-71.24
X64.77Y-21.35
X65.17Y-56.486
X65.3Y-21.95
X65.445Y-52.778
X65.57Y-40.17
X65.83Y-20.85
X66.009Y-53.341
X66.05Y-31.76
X66.55Y-56.83
X66.595Y-67.465
X66.724Y-54.056
X66.914Y-52.196
X67.145Y-21.95
X67.67Y-52.48
X67.698Y-21.4
X68.04Y-56.974
X68.091Y-36.861
X68.42Y-52.87
X68.44Y-21.15
X68.74Y-51.53
X68.82Y-37.73
X69.72Y-64.12
X69.727Y-58.89
X69.944Y-64.836
X70.15Y-61.337
X70.39Y-58.54
X70.66Y-47.89
X70.69Y-31.07
X70.844Y-68.19
X71.1Y-62.96
X71.14Y-25.75
X71.22Y-58.672
X71.394Y-69.452
X71.4Y-32.6
X71.52Y-24.6
X72.66Y-71.19
X74.21Y-50.32
X75.36Y-72.64
X75.67Y-35.79
X75.69Y-37.32
X75.93Y-47.67
X78.81Y-66.33
X78.85Y-58.74
X79.2Y-68.54
T3
X22.75Y-22.36
X25.29Y-22.36
X27.83Y-22.36
X30.37Y-22.36
X32.91Y-22.36
X35.45Y-22.36
T4
X37.91Y-73.82
X42.99Y-73.82
X48.07Y-73.82
T5
X24.18Y-52.86
X32.18Y-52.86
T6
X24.95Y-45.47
X32.15Y-45.47
T2
G00X21.8Y-38.92
M15
G01X21.8Y-40.02
M16
G05
G00X35.3Y-38.92
M15
G01X35.3Y-40.02
M16
G05
M30
