%TF.GenerationSoftware,KiCad,Pcbnew,10.0.5*%
%TF.CreationDate,2026-09-27T17:35:44-04:00*%
%TF.ProjectId,power reference board,706f7765-7220-4726-9566-6572656e6365,rev?*%
%TF.SameCoordinates,Original*%
%TF.FileFunction,Copper,L4,Bot*%
%TF.FilePolarity,Positive*%
%FSLAX46Y46*%
G04 Gerber Fmt 4.6, Leading zero omitted, Abs format (unit mm)*
G04 Created by KiCad (PCBNEW 10.0.5) date 2026-09-27 17:35:44*
%MOMM*%
%LPD*%
G01*
G04 APERTURE LIST*
G04 Aperture macros list*
%AMRoundRect*
0 Rectangle with rounded corners*
0 $1 Rounding radius*
0 $2 $3 $4 $5 $6 $7 $8 $9 X,Y pos of 4 corners*
0 Add a 4 corners polygon primitive as box body*
4,1,4,$2,$3,$4,$5,$6,$7,$8,$9,$2,$3,0*
0 Add four circle primitives for the rounded corners*
1,1,$1+$1,$2,$3*
1,1,$1+$1,$4,$5*
1,1,$1+$1,$6,$7*
1,1,$1+$1,$8,$9*
0 Add four rect primitives between the rounded corners*
20,1,$1+$1,$2,$3,$4,$5,0*
20,1,$1+$1,$4,$5,$6,$7,0*
20,1,$1+$1,$6,$7,$8,$9,0*
20,1,$1+$1,$8,$9,$2,$3,0*%
G04 Aperture macros list end*
%TA.AperFunction,ComponentPad*%
%ADD10RoundRect,0.250000X1.050000X1.050000X-1.050000X1.050000X-1.050000X-1.050000X1.050000X-1.050000X0*%
%TD*%
%TA.AperFunction,ComponentPad*%
%ADD11C,2.600000*%
%TD*%
%TA.AperFunction,ComponentPad*%
%ADD12R,1.700000X1.700000*%
%TD*%
%TA.AperFunction,ComponentPad*%
%ADD13C,1.700000*%
%TD*%
%TA.AperFunction,ComponentPad*%
%ADD14R,0.900000X2.000000*%
%TD*%
%TA.AperFunction,ComponentPad*%
%ADD15RoundRect,1.025000X-1.025000X-1.025000X1.025000X-1.025000X1.025000X1.025000X-1.025000X1.025000X0*%
%TD*%
%TA.AperFunction,ComponentPad*%
%ADD16C,4.100000*%
%TD*%
%TA.AperFunction,ComponentPad*%
%ADD17R,2.325000X2.325000*%
%TD*%
%TA.AperFunction,ComponentPad*%
%ADD18C,2.325000*%
%TD*%
%TA.AperFunction,ViaPad*%
%ADD19C,0.600000*%
%TD*%
%TA.AperFunction,Conductor*%
%ADD20C,0.200000*%
%TD*%
G04 APERTURE END LIST*
D10*
%TO.P,J1,1,Pin_1_1*%
%TO.N,PHASE_C*%
X48070000Y-73820000D03*
D11*
%TO.P,J1,2,Pin_2_2*%
%TO.N,PHASE_B*%
X42990000Y-73820000D03*
%TO.P,J1,3,Pin_3_3*%
%TO.N,PHASE_A*%
X37910000Y-73820000D03*
%TD*%
D12*
%TO.P,SWD_HEADER1,1,Pin_1_1*%
%TO.N,+3.3V*%
X35450000Y-22360000D03*
D13*
%TO.P,SWD_HEADER1,2,Pin_2_2*%
%TO.N,Net-(SWD_HEADER1-Pin_2)*%
X32910000Y-22360000D03*
%TO.P,SWD_HEADER1,3,Pin_3_3*%
%TO.N,Net-(SWD_HEADER1-Pin_3)*%
X30370000Y-22360000D03*
%TO.P,SWD_HEADER1,4,Pin_4_4*%
%TO.N,GND*%
X27830000Y-22360000D03*
%TO.P,SWD_HEADER1,5,Pin_5_5*%
%TO.N,Net-(SWD_HEADER1-Pin_5)*%
X25290000Y-22360000D03*
%TO.P,SWD_HEADER1,6,Pin_6_6*%
%TO.N,Net-(SWD_HEADER1-Pin_6)*%
X22750000Y-22360000D03*
%TD*%
D14*
%TO.P,XT60,*%
%TO.N,*%
X21800000Y-39470000D03*
X35300000Y-39470000D03*
D15*
%TO.P,XT60,1,Pin_1_1*%
%TO.N,VBAT_RAW*%
X32150000Y-45470000D03*
D16*
%TO.P,XT60,2,Pin_2_2*%
%TO.N,GND_RAW*%
X24950000Y-45470000D03*
%TD*%
D17*
%TO.P,F1,P$1*%
%TO.N,VM*%
X24180000Y-52860000D03*
D18*
%TO.P,F1,P$2*%
%TO.N,VBAT_RAW*%
X32180000Y-52860000D03*
%TD*%
D19*
%TO.N,Net-(U2-GLC)*%
X64560000Y-71240000D03*
X46180000Y-49680000D03*
%TO.N,Net-(U2-GHC)*%
X62230089Y-68870146D03*
X51990000Y-44880000D03*
%TO.N,Net-(U2-GHB)*%
X61841091Y-68228909D03*
X58220000Y-46920000D03*
%TO.N,PHASE_A*%
X68740000Y-51530000D03*
X65570000Y-40170000D03*
%TO.N,PHASE_C*%
X69943910Y-64835799D03*
X66595000Y-67465000D03*
%TO.N,PHASE_A_SNS*%
X79200000Y-68540000D03*
X61320000Y-66930000D03*
%TO.N,Net-(U2-GLA)*%
X60550000Y-45670000D03*
X62214365Y-56430000D03*
X60700000Y-62220000D03*
X61700000Y-51670000D03*
%TO.N,Net-(U2-GHA)*%
X57440000Y-50020000D03*
X61320799Y-61120000D03*
%TO.N,Net-(U2-VCP)*%
X60316640Y-60930000D03*
%TO.N,Net-(U2-VDRAIN)*%
X61470693Y-59817126D03*
X72660000Y-71190000D03*
X61980000Y-63130000D03*
X61960000Y-66430000D03*
%TO.N,Net-(U2-VCP)*%
X59870000Y-62030000D03*
%TO.N,PHASE_B*%
X69720000Y-64120000D03*
X64557967Y-65707670D03*
%TO.N,Net-(Q_BL1-Pad4)*%
X71220345Y-58671838D03*
%TO.N,PHASE_B_SNS*%
X62755000Y-63985000D03*
%TO.N,Net-(Q_BL1-Pad4)*%
X56270000Y-46680000D03*
%TO.N,Net-(U1-PA7)*%
X66723604Y-54056396D03*
X68420000Y-52870000D03*
X62190000Y-45490000D03*
X60960000Y-36890000D03*
%TO.N,Net-(U1-PB0)*%
X61820000Y-36750000D03*
X61820000Y-44530000D03*
X66008604Y-53341396D03*
X67670000Y-52480000D03*
%TO.N,Net-(U1-PB1)*%
X65445016Y-52777807D03*
X66913909Y-52196091D03*
%TO.N,Net-(Q_CH1-Pad4)*%
X57642685Y-57827315D03*
X56100000Y-47490000D03*
%TO.N,Net-(Q_CL1-Pad4)*%
X52820000Y-49770000D03*
X71393909Y-69451726D03*
%TO.N,PHASE_C_SNS*%
X78810000Y-66330000D03*
X74210000Y-50320000D03*
%TO.N,Net-(U1-PC0)*%
X70390000Y-58540000D03*
X59450000Y-31110000D03*
%TO.N,Net-(U1-PC13)*%
X61880000Y-53000000D03*
X60176940Y-30406940D03*
%TO.N,PHASE_A_SNS*%
X63180000Y-31580000D03*
X66050000Y-31760000D03*
%TO.N,Net-(SWD_HEADER1-Pin_6)*%
X50980000Y-28400000D03*
%TO.N,Net-(SWD_HEADER1-Pin_3)*%
X63160000Y-24940000D03*
%TO.N,Net-(SWD_HEADER1-Pin_2)*%
X61060698Y-24482880D03*
%TO.N,PHASE_A_SNS*%
X71400000Y-32600000D03*
X75930000Y-47670000D03*
%TO.N,Net-(U1-PC0)*%
X71100000Y-62960000D03*
X70843909Y-68190000D03*
%TO.N,Net-(U2-DVDD)*%
X64070000Y-56730000D03*
X75360000Y-72640000D03*
X70150001Y-61337210D03*
X69726571Y-58889808D03*
%TO.N,Net-(U2-GLB)*%
X56240000Y-45830000D03*
X64527488Y-64953324D03*
%TO.N,PHASE_B_SNS*%
X78850000Y-58740000D03*
X70660000Y-47890000D03*
X70690000Y-31070000D03*
%TO.N,Net-(U1-PA8)*%
X68040000Y-56973909D03*
X64135016Y-33418185D03*
%TO.N,Net-(U1-PA9)*%
X63292963Y-33400000D03*
X66550000Y-56830000D03*
%TO.N,Net-(U1-PA10)*%
X65169769Y-56486236D03*
X62430000Y-33350000D03*
%TO.N,Net-(U1-PA11)*%
X71140000Y-25750000D03*
X71520000Y-24600000D03*
%TO.N,Net-(Q_BH1-Pad4)*%
X59100000Y-57120000D03*
X59180000Y-59620000D03*
%TO.N,Net-(C9-Pad2)*%
X47580000Y-25990000D03*
X46530000Y-24580000D03*
%TO.N,+3.3V*%
X68820000Y-37730000D03*
X68091091Y-36861091D03*
X75690000Y-37320000D03*
X75670000Y-35790000D03*
%TO.N,Net-(U1-PC11)*%
X65300000Y-21950000D03*
X67144852Y-21950000D03*
%TO.N,Net-(U1-PC12)*%
X64770000Y-21350000D03*
X67698295Y-21400000D03*
%TO.N,Net-(U1-PC10)*%
X65830000Y-20850000D03*
X68440000Y-21150000D03*
%TO.N,FB*%
X49441409Y-37358591D03*
X48059552Y-39560687D03*
%TO.N,Net-(U5-COMP)*%
X50680000Y-39340000D03*
X48770000Y-39100000D03*
%TO.N,VBAT_RAW*%
X33160000Y-57130000D03*
%TD*%
%TO.N,Net-(Q_BH1-Pad4)*%
D20*
X59370000Y-57120000D02*
X59500000Y-57250000D01*
X59500000Y-59300000D02*
X59180000Y-59620000D01*
X59100000Y-57120000D02*
X59370000Y-57120000D01*
X59500000Y-57250000D02*
X59500000Y-59300000D01*
%TO.N,Net-(U2-GLC)*%
X64560000Y-74769949D02*
X64560000Y-71240000D01*
X60989949Y-78340000D02*
X64560000Y-74769949D01*
X37740052Y-78340000D02*
X60989949Y-78340000D01*
X34290000Y-74889949D02*
X37740052Y-78340000D01*
X34290000Y-61570000D02*
X34290000Y-74889949D01*
X46180000Y-49680000D02*
X34290000Y-61570000D01*
%TO.N,Net-(U2-GHC)*%
X62230089Y-68870146D02*
X62230089Y-71639911D01*
X62230089Y-71639911D02*
X61220000Y-72650000D01*
%TO.N,Net-(U2-GHB)*%
X56580000Y-45280000D02*
X53790000Y-45280000D01*
X34990000Y-74600000D02*
X38030000Y-77640000D01*
X58220000Y-46920000D02*
X56580000Y-45280000D01*
X60700000Y-69370000D02*
X61841091Y-68228909D01*
X34990000Y-64080000D02*
X34990000Y-74600000D01*
X53790000Y-45280000D02*
X34990000Y-64080000D01*
X38030000Y-77640000D02*
X60700000Y-77640000D01*
X60700000Y-77640000D02*
X60700000Y-69370000D01*
%TO.N,Net-(U2-GHC)*%
X34640000Y-62230000D02*
X34640000Y-74744975D01*
X34640000Y-74744975D02*
X37885026Y-77990000D01*
X51990000Y-44880000D02*
X34640000Y-62230000D01*
X60844975Y-77990000D02*
X61220000Y-77614975D01*
X37885026Y-77990000D02*
X60844975Y-77990000D01*
X61220000Y-77614975D02*
X61220000Y-72650000D01*
%TO.N,Net-(U2-GLB)*%
X55540000Y-46530000D02*
X55540000Y-58615026D01*
X56240000Y-45830000D02*
X55540000Y-46530000D01*
X55540000Y-58615026D02*
X62444974Y-65520000D01*
X62444974Y-65520000D02*
X63967818Y-65520000D01*
X63967818Y-65520000D02*
X64527488Y-64960330D01*
X64527488Y-64960330D02*
X64527488Y-64953324D01*
%TO.N,PHASE_A*%
X68740000Y-43340000D02*
X68740000Y-51530000D01*
X65570000Y-40170000D02*
X68740000Y-43340000D01*
%TO.N,PHASE_C*%
X66595000Y-67465000D02*
X66595000Y-67345000D01*
X66595000Y-67345000D02*
X69270000Y-64670000D01*
X69270000Y-64670000D02*
X69778111Y-64670000D01*
X69778111Y-64670000D02*
X69943910Y-64835799D01*
%TO.N,Net-(U1-PC0)*%
X70843909Y-68190000D02*
X70843909Y-63216091D01*
X70843909Y-63216091D02*
X71100000Y-62960000D01*
%TO.N,Net-(U2-DVDD)*%
X71621727Y-68901726D02*
X70701726Y-68901726D01*
X70493909Y-66918273D02*
X70493909Y-63071117D01*
X70701726Y-68901726D02*
X70280000Y-68480000D01*
X75360000Y-72640000D02*
X75310000Y-72640000D01*
X70493909Y-63071117D02*
X70510000Y-63055026D01*
X71943909Y-69273909D02*
X71943909Y-69223908D01*
X70280000Y-68480000D02*
X70293909Y-68466091D01*
X71943909Y-69223908D02*
X71621727Y-68901726D01*
X70293909Y-68466091D02*
X70293909Y-67118273D01*
X70510000Y-61697209D02*
X70150001Y-61337210D01*
X70293909Y-67118273D02*
X70493909Y-66918273D01*
X75310000Y-72640000D02*
X71943909Y-69273909D01*
X70510000Y-63055026D02*
X70510000Y-61697209D01*
%TO.N,PHASE_A_SNS*%
X75587818Y-73190000D02*
X79200000Y-69577818D01*
X79200000Y-69577818D02*
X79200000Y-68540000D01*
X67580000Y-73190000D02*
X75587818Y-73190000D01*
X61320000Y-66930000D02*
X67580000Y-73190000D01*
%TO.N,Net-(U2-GLA)*%
X62530000Y-63357818D02*
X62207818Y-63680000D01*
X61099948Y-63680000D02*
X60364974Y-62945026D01*
X62207818Y-63680000D02*
X61099948Y-63680000D01*
X62530000Y-56745635D02*
X62530000Y-63357818D01*
X60700000Y-62610000D02*
X60700000Y-62220000D01*
X62214365Y-56430000D02*
X62530000Y-56745635D01*
X60364974Y-62945026D02*
X60700000Y-62610000D01*
X61700000Y-51670000D02*
X61700000Y-51180000D01*
X61700000Y-51180000D02*
X60750000Y-50230000D01*
X60750000Y-50230000D02*
X60750000Y-45870000D01*
X60750000Y-45870000D02*
X60550000Y-45670000D01*
%TO.N,Net-(U1-PC13)*%
X61880000Y-53000000D02*
X60600000Y-53000000D01*
X60600000Y-53000000D02*
X60176940Y-52576940D01*
X60176940Y-52576940D02*
X60176940Y-49438471D01*
X60176940Y-49438471D02*
X59410000Y-48671532D01*
X59410000Y-48671532D02*
X59410000Y-31660000D01*
X59410000Y-31660000D02*
X59677818Y-31660000D01*
X59677818Y-31660000D02*
X60000000Y-31337818D01*
X60000000Y-31337818D02*
X60000000Y-30882182D01*
X59850849Y-30733031D02*
X60176940Y-30406940D01*
X60000000Y-30882182D02*
X59850849Y-30733031D01*
%TO.N,Net-(Q_CH1-Pad4)*%
X56770000Y-56954630D02*
X57642685Y-57827315D01*
X56100000Y-47490000D02*
X56770000Y-48160000D01*
X56770000Y-48160000D02*
X56770000Y-56954630D01*
%TO.N,Net-(Q_BL1-Pad4)*%
X56270000Y-46680000D02*
X56923494Y-46680000D01*
X56923494Y-46680000D02*
X59826940Y-49583446D01*
X59826940Y-49583446D02*
X59826940Y-53264758D01*
X69856091Y-60036091D02*
X71220345Y-58671838D01*
X59826940Y-53264758D02*
X66598273Y-60036091D01*
X66598273Y-60036091D02*
X69856091Y-60036091D01*
%TO.N,Net-(U2-GHA)*%
X57440000Y-51372792D02*
X57440000Y-50020000D01*
X60920693Y-54853485D02*
X57440000Y-51372792D01*
X60920693Y-60719894D02*
X60920693Y-54853485D01*
X61320799Y-61120000D02*
X60920693Y-60719894D01*
%TO.N,Net-(U2-VCP)*%
X60316640Y-60930000D02*
X60316640Y-61583360D01*
X60316640Y-61583360D02*
X59870000Y-62030000D01*
%TO.N,Net-(Q_CL1-Pad4)*%
X71393909Y-69451726D02*
X65881726Y-69451726D01*
X65881726Y-69451726D02*
X52820000Y-56390000D01*
X52820000Y-56390000D02*
X52820000Y-49770000D01*
%TO.N,Net-(U2-VDRAIN)*%
X66720000Y-71190000D02*
X72660000Y-71190000D01*
X61960000Y-66430000D02*
X66720000Y-71190000D01*
%TO.N,PHASE_B*%
X69720000Y-64120000D02*
X66145637Y-64120000D01*
X66145637Y-64120000D02*
X64557967Y-65707670D01*
%TO.N,Net-(U2-DVDD)*%
X67071091Y-59321091D02*
X64480000Y-56730000D01*
X69726571Y-58889808D02*
X69295288Y-59321091D01*
X69295288Y-59321091D02*
X67071091Y-59321091D01*
X64480000Y-56730000D02*
X64070000Y-56730000D01*
%TO.N,PHASE_B_SNS*%
X62755000Y-63985000D02*
X63180000Y-63560000D01*
X63180000Y-63560000D02*
X67110000Y-63560000D01*
X67110000Y-63560000D02*
X74240000Y-56430000D01*
X74240000Y-56430000D02*
X78830000Y-56430000D01*
%TO.N,Net-(U1-PA7)*%
X67233604Y-54056396D02*
X66723604Y-54056396D01*
X61120000Y-44607818D02*
X62002182Y-45490000D01*
X61120000Y-42840000D02*
X61120000Y-44607818D01*
X62002182Y-45490000D02*
X62190000Y-45490000D01*
X68420000Y-52870000D02*
X67233604Y-54056396D01*
%TO.N,Net-(U1-PA10)*%
X65169769Y-56486236D02*
X65169769Y-56459769D01*
X65169769Y-56459769D02*
X62850000Y-54140000D01*
X62850000Y-54140000D02*
X62850000Y-33770000D01*
X62850000Y-33770000D02*
X62430000Y-33350000D01*
%TO.N,Net-(U1-PA7)*%
X60960000Y-42680000D02*
X61120000Y-42840000D01*
X60960000Y-36890000D02*
X60960000Y-42680000D01*
%TO.N,Net-(U1-PB0)*%
X61820000Y-36750000D02*
X61820000Y-44530000D01*
X66008604Y-53341396D02*
X66808604Y-53341396D01*
X66808604Y-53341396D02*
X67670000Y-52480000D01*
X67670000Y-52480000D02*
X67730000Y-52420000D01*
%TO.N,Net-(U1-PA8)*%
X68040000Y-56973909D02*
X67713909Y-56973909D01*
X67713909Y-56973909D02*
X64135016Y-53395016D01*
X64135016Y-53395016D02*
X64135016Y-33418185D01*
%TO.N,Net-(U1-PB1)*%
X66026732Y-52196091D02*
X65445016Y-52777807D01*
X66913909Y-52196091D02*
X66026732Y-52196091D01*
%TO.N,PHASE_C_SNS*%
X79400000Y-65740000D02*
X78810000Y-66330000D01*
X79400000Y-55510000D02*
X79400000Y-65740000D01*
X74210000Y-50320000D02*
X79400000Y-55510000D01*
%TO.N,PHASE_B_SNS*%
X78870000Y-58720000D02*
X78870000Y-57030000D01*
X78870000Y-57030000D02*
X78830000Y-56990000D01*
X78850000Y-58740000D02*
X78870000Y-58720000D01*
X78830000Y-56990000D02*
X78830000Y-56430000D01*
X70660000Y-47890000D02*
X70660000Y-48260000D01*
X70660000Y-48260000D02*
X78830000Y-56430000D01*
%TO.N,Net-(U1-PC0)*%
X64362834Y-32868185D02*
X64895016Y-33400367D01*
X64895016Y-33400367D02*
X64895016Y-53045016D01*
X63690367Y-32868185D02*
X64362834Y-32868185D01*
X59949122Y-29856940D02*
X60679122Y-29856940D01*
X60679122Y-29856940D02*
X63690367Y-32868185D01*
X59450000Y-30356062D02*
X59949122Y-29856940D01*
X59450000Y-31110000D02*
X59450000Y-30356062D01*
X64895016Y-53045016D02*
X70390000Y-58540000D01*
%TO.N,PHASE_A_SNS*%
X63360000Y-31760000D02*
X63180000Y-31580000D01*
X66050000Y-31760000D02*
X63360000Y-31760000D01*
%TO.N,Net-(SWD_HEADER1-Pin_6)*%
X28790000Y-28400000D02*
X50980000Y-28400000D01*
X22750000Y-22360000D02*
X28790000Y-28400000D01*
%TO.N,Net-(SWD_HEADER1-Pin_3)*%
X63160000Y-24940000D02*
X61560000Y-26540000D01*
X61560000Y-26540000D02*
X34550000Y-26540000D01*
X34550000Y-26540000D02*
X30370000Y-22360000D01*
%TO.N,Net-(SWD_HEADER1-Pin_2)*%
X61060698Y-24482880D02*
X60387819Y-23810000D01*
X60387819Y-23810000D02*
X34360000Y-23810000D01*
X34360000Y-23810000D02*
X32910000Y-22360000D01*
%TO.N,PHASE_A_SNS*%
X75930000Y-47670000D02*
X74567500Y-47670000D01*
X71400000Y-44502500D02*
X71400000Y-32600000D01*
X74567500Y-47670000D02*
X71400000Y-44502500D01*
%TO.N,PHASE_B_SNS*%
X70690000Y-47860000D02*
X70660000Y-47890000D01*
X70690000Y-31070000D02*
X70690000Y-47860000D01*
%TO.N,Net-(U1-PA9)*%
X63292963Y-53572963D02*
X66550000Y-56830000D01*
X63292963Y-33400000D02*
X63292963Y-53572963D01*
%TO.N,Net-(U1-PA11)*%
X71140000Y-24980000D02*
X71520000Y-24600000D01*
X71140000Y-25750000D02*
X71140000Y-24980000D01*
%TO.N,Net-(C9-Pad2)*%
X46530000Y-24580000D02*
X46530000Y-24940000D01*
X46530000Y-24940000D02*
X47580000Y-25990000D01*
%TO.N,+3.3V*%
X68091091Y-37001091D02*
X68820000Y-37730000D01*
X68091091Y-36861091D02*
X68091091Y-37001091D01*
X75670000Y-37300000D02*
X75690000Y-37320000D01*
X75670000Y-35790000D02*
X75670000Y-37300000D01*
%TO.N,Net-(U1-PC11)*%
X67144852Y-21950000D02*
X65300000Y-21950000D01*
%TO.N,Net-(U1-PC12)*%
X64770000Y-21350000D02*
X65070000Y-21350000D01*
X65070000Y-21350000D02*
X65120000Y-21400000D01*
X65120000Y-21400000D02*
X67698295Y-21400000D01*
%TO.N,Net-(U1-PC10)*%
X68420001Y-21150000D02*
X68120001Y-20850000D01*
X68440000Y-21150000D02*
X68420001Y-21150000D01*
X68120001Y-20850000D02*
X65830000Y-20850000D01*
%TO.N,FB*%
X48059552Y-38740448D02*
X49441409Y-37358591D01*
X48059552Y-39560687D02*
X48059552Y-38740448D01*
%TO.N,Net-(U5-COMP)*%
X50167180Y-39100000D02*
X50407180Y-39340000D01*
X48770000Y-39100000D02*
X50167180Y-39100000D01*
X50407180Y-39340000D02*
X50680000Y-39340000D01*
%TO.N,VBAT_RAW*%
X32180000Y-56150000D02*
X33160000Y-57130000D01*
X32180000Y-52860000D02*
X32180000Y-56150000D01*
X32150000Y-45470000D02*
X32150000Y-52830000D01*
X32150000Y-52830000D02*
X32180000Y-52860000D01*
%TO.N,Net-(U2-VDRAIN)*%
X61470693Y-59817126D02*
X61470693Y-60299243D01*
X61470693Y-60299243D02*
X61842363Y-60670913D01*
X61842363Y-60670913D02*
X61842363Y-60929999D01*
X61842363Y-60929999D02*
X62069999Y-61157635D01*
X62069999Y-61157635D02*
X62070000Y-63120000D01*
X62070000Y-63120000D02*
X62060000Y-63130000D01*
X62060000Y-63130000D02*
X61980000Y-63130000D01*
%TD*%
M02*
