%TF.GenerationSoftware,KiCad,Pcbnew,10.0.5*%
%TF.CreationDate,2026-09-27T17:35:44-04:00*%
%TF.ProjectId,power reference board,706f7765-7220-4726-9566-6572656e6365,rev?*%
%TF.SameCoordinates,Original*%
%TF.FileFunction,Soldermask,Top*%
%TF.FilePolarity,Negative*%
%FSLAX46Y46*%
G04 Gerber Fmt 4.6, Leading zero omitted, Abs format (unit mm)*
G04 Created by KiCad (PCBNEW 10.0.5) date 2026-09-27 17:35:44*
%MOMM*%
%LPD*%
G01*
G04 APERTURE LIST*
G04 Aperture macros list*
%AMRoundRect*
0 Rectangle with rounded corners*
0 $1 Rounding radius*
0 $2 $3 $4 $5 $6 $7 $8 $9 X,Y pos of 4 corners*
0 Add a 4 corners polygon primitive as box body*
4,1,4,$2,$3,$4,$5,$6,$7,$8,$9,$2,$3,0*
0 Add four circle primitives for the rounded corners*
1,1,$1+$1,$2,$3*
1,1,$1+$1,$4,$5*
1,1,$1+$1,$6,$7*
1,1,$1+$1,$8,$9*
0 Add four rect primitives between the rounded corners*
20,1,$1+$1,$2,$3,$4,$5,0*
20,1,$1+$1,$4,$5,$6,$7,0*
20,1,$1+$1,$6,$7,$8,$9,0*
20,1,$1+$1,$8,$9,$2,$3,0*%
G04 Aperture macros list end*
%ADD10C,0.010000*%
%ADD11RoundRect,0.250000X-1.100000X0.325000X-1.100000X-0.325000X1.100000X-0.325000X1.100000X0.325000X0*%
%ADD12RoundRect,0.250000X1.050000X1.050000X-1.050000X1.050000X-1.050000X-1.050000X1.050000X-1.050000X0*%
%ADD13C,2.600000*%
%ADD14RoundRect,0.250000X-0.325000X-1.100000X0.325000X-1.100000X0.325000X1.100000X-0.325000X1.100000X0*%
%ADD15RoundRect,0.225000X-0.225000X-0.250000X0.225000X-0.250000X0.225000X0.250000X-0.225000X0.250000X0*%
%ADD16RoundRect,0.102000X-2.700000X1.450000X-2.700000X-1.450000X2.700000X-1.450000X2.700000X1.450000X0*%
%ADD17RoundRect,0.200000X-0.200000X-0.275000X0.200000X-0.275000X0.200000X0.275000X-0.200000X0.275000X0*%
%ADD18RoundRect,0.177000X-0.910000X-0.225000X0.910000X-0.225000X0.910000X0.225000X-0.910000X0.225000X0*%
%ADD19RoundRect,0.102000X0.686000X0.355000X-0.686000X0.355000X-0.686000X-0.355000X0.686000X-0.355000X0*%
%ADD20RoundRect,0.225000X-0.250000X0.225000X-0.250000X-0.225000X0.250000X-0.225000X0.250000X0.225000X0*%
%ADD21R,1.700000X1.700000*%
%ADD22C,1.700000*%
%ADD23RoundRect,0.250000X-1.425000X0.362500X-1.425000X-0.362500X1.425000X-0.362500X1.425000X0.362500X0*%
%ADD24R,0.900000X2.000000*%
%ADD25RoundRect,1.025000X-1.025000X-1.025000X1.025000X-1.025000X1.025000X1.025000X-1.025000X1.025000X0*%
%ADD26C,4.100000*%
%ADD27RoundRect,0.075000X-0.700000X-0.075000X0.700000X-0.075000X0.700000X0.075000X-0.700000X0.075000X0*%
%ADD28RoundRect,0.075000X-0.075000X-0.700000X0.075000X-0.700000X0.075000X0.700000X-0.075000X0.700000X0*%
%ADD29RoundRect,0.200000X-0.275000X0.200000X-0.275000X-0.200000X0.275000X-0.200000X0.275000X0.200000X0*%
%ADD30RoundRect,0.102000X-0.686000X-0.355000X0.686000X-0.355000X0.686000X0.355000X-0.686000X0.355000X0*%
%ADD31RoundRect,0.102000X-0.355000X0.686000X-0.355000X-0.686000X0.355000X-0.686000X0.355000X0.686000X0*%
%ADD32RoundRect,0.102000X-1.162500X-1.162500X1.162500X-1.162500X1.162500X1.162500X-1.162500X1.162500X0*%
%ADD33C,2.529000*%
%ADD34C,2.700000*%
%ADD35RoundRect,0.150000X-0.587500X-0.150000X0.587500X-0.150000X0.587500X0.150000X-0.587500X0.150000X0*%
%ADD36RoundRect,0.250000X1.100000X-0.325000X1.100000X0.325000X-1.100000X0.325000X-1.100000X-0.325000X0*%
%ADD37RoundRect,0.225000X0.250000X-0.225000X0.250000X0.225000X-0.250000X0.225000X-0.250000X-0.225000X0*%
%ADD38RoundRect,0.132000X-0.090000X-0.400000X0.090000X-0.400000X0.090000X0.400000X-0.090000X0.400000X0*%
%ADD39RoundRect,0.132000X-0.400000X-0.090000X0.400000X-0.090000X0.400000X0.090000X-0.400000X0.090000X0*%
%ADD40RoundRect,0.102000X-2.075000X-2.075000X2.075000X-2.075000X2.075000X2.075000X-2.075000X2.075000X0*%
G04 APERTURE END LIST*
D10*
%TO.C,Q_CH1*%
X56897500Y-68660000D02*
X56897500Y-73380000D01*
X52257500Y-73380000D01*
X52257500Y-72470000D01*
X52847500Y-72470000D01*
X52847500Y-72110000D01*
X52257500Y-72110000D01*
X52257500Y-71200000D01*
X52847500Y-71200000D01*
X52847500Y-70840000D01*
X52257500Y-70840000D01*
X52257500Y-69930000D01*
X52847500Y-69930000D01*
X52847500Y-69570000D01*
X52247500Y-69570000D01*
X52247500Y-68660000D01*
X56897500Y-68660000D01*
G36*
X56897500Y-73380000D02*
G01*
X52257500Y-73380000D01*
X52257500Y-72470000D01*
X52847500Y-72470000D01*
X52847500Y-72110000D01*
X52257500Y-72110000D01*
X52257500Y-71200000D01*
X52847500Y-71200000D01*
X52847500Y-70840000D01*
X52257500Y-70840000D01*
X52257500Y-69930000D01*
X52847500Y-69930000D01*
X52847500Y-69570000D01*
X52247500Y-69570000D01*
X52247500Y-68660000D01*
X56897500Y-68660000D01*
X56897500Y-73380000D01*
G37*
%TO.C,Q_BH1*%
X56875750Y-60170000D02*
X56875750Y-64890000D01*
X52235750Y-64890000D01*
X52235750Y-63980000D01*
X52825750Y-63980000D01*
X52825750Y-63620000D01*
X52235750Y-63620000D01*
X52235750Y-62710000D01*
X52825750Y-62710000D01*
X52825750Y-62350000D01*
X52235750Y-62350000D01*
X52235750Y-61440000D01*
X52825750Y-61440000D01*
X52825750Y-61080000D01*
X52225750Y-61080000D01*
X52225750Y-60170000D01*
X56875750Y-60170000D01*
G36*
X56875750Y-64890000D02*
G01*
X52235750Y-64890000D01*
X52235750Y-63980000D01*
X52825750Y-63980000D01*
X52825750Y-63620000D01*
X52235750Y-63620000D01*
X52235750Y-62710000D01*
X52825750Y-62710000D01*
X52825750Y-62350000D01*
X52235750Y-62350000D01*
X52235750Y-61440000D01*
X52825750Y-61440000D01*
X52825750Y-61080000D01*
X52225750Y-61080000D01*
X52225750Y-60170000D01*
X56875750Y-60170000D01*
X56875750Y-64890000D01*
G37*
%TO.C,U3*%
X73082500Y-23270000D02*
X73082500Y-23470000D01*
X73082500Y-23477000D01*
X73081500Y-23483000D01*
X73080500Y-23490000D01*
X73079500Y-23496000D01*
X73078500Y-23502000D01*
X73076500Y-23509000D01*
X73074500Y-23515000D01*
X73071500Y-23521000D01*
X73068500Y-23527000D01*
X73065500Y-23532000D01*
X73062500Y-23538000D01*
X73058500Y-23543000D01*
X73054500Y-23549000D01*
X73050500Y-23554000D01*
X73045500Y-23558000D01*
X73041500Y-23563000D01*
X73036500Y-23567000D01*
X73030500Y-23571000D01*
X73025500Y-23575000D01*
X73020500Y-23578000D01*
X73014500Y-23581000D01*
X73008500Y-23584000D01*
X73002500Y-23587000D01*
X72996500Y-23589000D01*
X72989500Y-23591000D01*
X72983500Y-23592000D01*
X72977500Y-23593000D01*
X72970500Y-23594000D01*
X72964500Y-23595000D01*
X72957500Y-23595000D01*
X72517500Y-23595000D01*
X72510500Y-23595000D01*
X72504500Y-23594000D01*
X72497500Y-23593000D01*
X72491500Y-23592000D01*
X72485500Y-23591000D01*
X72478500Y-23589000D01*
X72472500Y-23587000D01*
X72466500Y-23584000D01*
X72460500Y-23581000D01*
X72454500Y-23578000D01*
X72449500Y-23575000D01*
X72444500Y-23571000D01*
X72438500Y-23567000D01*
X72433500Y-23563000D01*
X72429500Y-23558000D01*
X72424500Y-23554000D01*
X72420500Y-23549000D01*
X72416500Y-23543000D01*
X72412500Y-23538000D01*
X72409500Y-23532000D01*
X72406500Y-23527000D01*
X72403500Y-23521000D01*
X72400500Y-23515000D01*
X72398500Y-23509000D01*
X72396500Y-23502000D01*
X72395500Y-23496000D01*
X72394500Y-23490000D01*
X72393500Y-23483000D01*
X72392500Y-23477000D01*
X72392500Y-23470000D01*
X72392500Y-23270000D01*
X72392500Y-23263000D01*
X72393500Y-23257000D01*
X72394500Y-23250000D01*
X72395500Y-23244000D01*
X72396500Y-23238000D01*
X72398500Y-23231000D01*
X72400500Y-23225000D01*
X72403500Y-23219000D01*
X72406500Y-23213000D01*
X72409500Y-23208000D01*
X72412500Y-23202000D01*
X72416500Y-23197000D01*
X72420500Y-23191000D01*
X72424500Y-23186000D01*
X72429500Y-23182000D01*
X72433500Y-23177000D01*
X72438500Y-23173000D01*
X72444500Y-23169000D01*
X72449500Y-23165000D01*
X72454500Y-23162000D01*
X72460500Y-23159000D01*
X72466500Y-23156000D01*
X72472500Y-23153000D01*
X72478500Y-23151000D01*
X72485500Y-23149000D01*
X72491500Y-23148000D01*
X72497500Y-23147000D01*
X72504500Y-23146000D01*
X72510500Y-23145000D01*
X72517500Y-23145000D01*
X72957500Y-23145000D01*
X72964500Y-23145000D01*
X72970500Y-23146000D01*
X72977500Y-23147000D01*
X72983500Y-23148000D01*
X72989500Y-23149000D01*
X72996500Y-23151000D01*
X73002500Y-23153000D01*
X73008500Y-23156000D01*
X73014500Y-23159000D01*
X73020500Y-23162000D01*
X73025500Y-23165000D01*
X73030500Y-23169000D01*
X73036500Y-23173000D01*
X73041500Y-23177000D01*
X73045500Y-23182000D01*
X73050500Y-23186000D01*
X73054500Y-23191000D01*
X73058500Y-23197000D01*
X73062500Y-23202000D01*
X73065500Y-23208000D01*
X73068500Y-23213000D01*
X73071500Y-23219000D01*
X73074500Y-23225000D01*
X73076500Y-23231000D01*
X73078500Y-23238000D01*
X73079500Y-23244000D01*
X73080500Y-23250000D01*
X73081500Y-23257000D01*
X73082500Y-23263000D01*
X73082500Y-23270000D01*
G36*
X72970500Y-23146000D02*
G01*
X72977500Y-23147000D01*
X72983500Y-23148000D01*
X72989500Y-23149000D01*
X72996500Y-23151000D01*
X73002500Y-23153000D01*
X73008500Y-23156000D01*
X73014500Y-23159000D01*
X73020500Y-23162000D01*
X73025500Y-23165000D01*
X73030500Y-23169000D01*
X73036500Y-23173000D01*
X73041500Y-23177000D01*
X73045500Y-23182000D01*
X73050500Y-23186000D01*
X73054500Y-23191000D01*
X73058500Y-23197000D01*
X73062500Y-23202000D01*
X73065500Y-23208000D01*
X73068500Y-23213000D01*
X73071500Y-23219000D01*
X73074500Y-23225000D01*
X73076500Y-23231000D01*
X73078500Y-23238000D01*
X73079500Y-23244000D01*
X73080500Y-23250000D01*
X73081500Y-23257000D01*
X73082500Y-23263000D01*
X73082500Y-23270000D01*
X73082500Y-23470000D01*
X73082500Y-23477000D01*
X73081500Y-23483000D01*
X73080500Y-23490000D01*
X73079500Y-23496000D01*
X73078500Y-23502000D01*
X73076500Y-23509000D01*
X73074500Y-23515000D01*
X73071500Y-23521000D01*
X73068500Y-23527000D01*
X73065500Y-23532000D01*
X73062500Y-23538000D01*
X73058500Y-23543000D01*
X73054500Y-23549000D01*
X73050500Y-23554000D01*
X73045500Y-23558000D01*
X73041500Y-23563000D01*
X73036500Y-23567000D01*
X73030500Y-23571000D01*
X73025500Y-23575000D01*
X73020500Y-23578000D01*
X73014500Y-23581000D01*
X73008500Y-23584000D01*
X73002500Y-23587000D01*
X72996500Y-23589000D01*
X72989500Y-23591000D01*
X72983500Y-23592000D01*
X72977500Y-23593000D01*
X72970500Y-23594000D01*
X72964500Y-23595000D01*
X72957500Y-23595000D01*
X72517500Y-23595000D01*
X72510500Y-23595000D01*
X72504500Y-23594000D01*
X72497500Y-23593000D01*
X72491500Y-23592000D01*
X72485500Y-23591000D01*
X72478500Y-23589000D01*
X72472500Y-23587000D01*
X72466500Y-23584000D01*
X72460500Y-23581000D01*
X72454500Y-23578000D01*
X72449500Y-23575000D01*
X72444500Y-23571000D01*
X72438500Y-23567000D01*
X72433500Y-23563000D01*
X72429500Y-23558000D01*
X72424500Y-23554000D01*
X72420500Y-23549000D01*
X72416500Y-23543000D01*
X72412500Y-23538000D01*
X72409500Y-23532000D01*
X72406500Y-23527000D01*
X72403500Y-23521000D01*
X72400500Y-23515000D01*
X72398500Y-23509000D01*
X72396500Y-23502000D01*
X72395500Y-23496000D01*
X72394500Y-23490000D01*
X72393500Y-23483000D01*
X72392500Y-23477000D01*
X72392500Y-23470000D01*
X72392500Y-23270000D01*
X72392500Y-23263000D01*
X72393500Y-23257000D01*
X72394500Y-23250000D01*
X72395500Y-23244000D01*
X72396500Y-23238000D01*
X72398500Y-23231000D01*
X72400500Y-23225000D01*
X72403500Y-23219000D01*
X72406500Y-23213000D01*
X72409500Y-23208000D01*
X72412500Y-23202000D01*
X72416500Y-23197000D01*
X72420500Y-23191000D01*
X72424500Y-23186000D01*
X72429500Y-23182000D01*
X72433500Y-23177000D01*
X72438500Y-23173000D01*
X72444500Y-23169000D01*
X72449500Y-23165000D01*
X72454500Y-23162000D01*
X72460500Y-23159000D01*
X72466500Y-23156000D01*
X72472500Y-23153000D01*
X72478500Y-23151000D01*
X72485500Y-23149000D01*
X72491500Y-23148000D01*
X72497500Y-23147000D01*
X72504500Y-23146000D01*
X72510500Y-23145000D01*
X72517500Y-23145000D01*
X72957500Y-23145000D01*
X72964500Y-23145000D01*
X72970500Y-23146000D01*
G37*
X73082500Y-23770000D02*
X73082500Y-23970000D01*
X73082500Y-23977000D01*
X73081500Y-23983000D01*
X73080500Y-23990000D01*
X73079500Y-23996000D01*
X73078500Y-24002000D01*
X73076500Y-24009000D01*
X73074500Y-24015000D01*
X73071500Y-24021000D01*
X73068500Y-24027000D01*
X73065500Y-24032000D01*
X73062500Y-24038000D01*
X73058500Y-24043000D01*
X73054500Y-24049000D01*
X73050500Y-24054000D01*
X73045500Y-24058000D01*
X73041500Y-24063000D01*
X73036500Y-24067000D01*
X73030500Y-24071000D01*
X73025500Y-24075000D01*
X73020500Y-24078000D01*
X73014500Y-24081000D01*
X73008500Y-24084000D01*
X73002500Y-24087000D01*
X72996500Y-24089000D01*
X72989500Y-24091000D01*
X72983500Y-24092000D01*
X72977500Y-24093000D01*
X72970500Y-24094000D01*
X72964500Y-24095000D01*
X72957500Y-24095000D01*
X72517500Y-24095000D01*
X72510500Y-24095000D01*
X72504500Y-24094000D01*
X72497500Y-24093000D01*
X72491500Y-24092000D01*
X72485500Y-24091000D01*
X72478500Y-24089000D01*
X72472500Y-24087000D01*
X72466500Y-24084000D01*
X72460500Y-24081000D01*
X72454500Y-24078000D01*
X72449500Y-24075000D01*
X72444500Y-24071000D01*
X72438500Y-24067000D01*
X72433500Y-24063000D01*
X72429500Y-24058000D01*
X72424500Y-24054000D01*
X72420500Y-24049000D01*
X72416500Y-24043000D01*
X72412500Y-24038000D01*
X72409500Y-24032000D01*
X72406500Y-24027000D01*
X72403500Y-24021000D01*
X72400500Y-24015000D01*
X72398500Y-24009000D01*
X72396500Y-24002000D01*
X72395500Y-23996000D01*
X72394500Y-23990000D01*
X72393500Y-23983000D01*
X72392500Y-23977000D01*
X72392500Y-23970000D01*
X72392500Y-23770000D01*
X72392500Y-23763000D01*
X72393500Y-23757000D01*
X72394500Y-23750000D01*
X72395500Y-23744000D01*
X72396500Y-23738000D01*
X72398500Y-23731000D01*
X72400500Y-23725000D01*
X72403500Y-23719000D01*
X72406500Y-23713000D01*
X72409500Y-23708000D01*
X72412500Y-23702000D01*
X72416500Y-23697000D01*
X72420500Y-23691000D01*
X72424500Y-23686000D01*
X72429500Y-23682000D01*
X72433500Y-23677000D01*
X72438500Y-23673000D01*
X72444500Y-23669000D01*
X72449500Y-23665000D01*
X72454500Y-23662000D01*
X72460500Y-23659000D01*
X72466500Y-23656000D01*
X72472500Y-23653000D01*
X72478500Y-23651000D01*
X72485500Y-23649000D01*
X72491500Y-23648000D01*
X72497500Y-23647000D01*
X72504500Y-23646000D01*
X72510500Y-23645000D01*
X72517500Y-23645000D01*
X72957500Y-23645000D01*
X72964500Y-23645000D01*
X72970500Y-23646000D01*
X72977500Y-23647000D01*
X72983500Y-23648000D01*
X72989500Y-23649000D01*
X72996500Y-23651000D01*
X73002500Y-23653000D01*
X73008500Y-23656000D01*
X73014500Y-23659000D01*
X73020500Y-23662000D01*
X73025500Y-23665000D01*
X73030500Y-23669000D01*
X73036500Y-23673000D01*
X73041500Y-23677000D01*
X73045500Y-23682000D01*
X73050500Y-23686000D01*
X73054500Y-23691000D01*
X73058500Y-23697000D01*
X73062500Y-23702000D01*
X73065500Y-23708000D01*
X73068500Y-23713000D01*
X73071500Y-23719000D01*
X73074500Y-23725000D01*
X73076500Y-23731000D01*
X73078500Y-23738000D01*
X73079500Y-23744000D01*
X73080500Y-23750000D01*
X73081500Y-23757000D01*
X73082500Y-23763000D01*
X73082500Y-23770000D01*
G36*
X72970500Y-23646000D02*
G01*
X72977500Y-23647000D01*
X72983500Y-23648000D01*
X72989500Y-23649000D01*
X72996500Y-23651000D01*
X73002500Y-23653000D01*
X73008500Y-23656000D01*
X73014500Y-23659000D01*
X73020500Y-23662000D01*
X73025500Y-23665000D01*
X73030500Y-23669000D01*
X73036500Y-23673000D01*
X73041500Y-23677000D01*
X73045500Y-23682000D01*
X73050500Y-23686000D01*
X73054500Y-23691000D01*
X73058500Y-23697000D01*
X73062500Y-23702000D01*
X73065500Y-23708000D01*
X73068500Y-23713000D01*
X73071500Y-23719000D01*
X73074500Y-23725000D01*
X73076500Y-23731000D01*
X73078500Y-23738000D01*
X73079500Y-23744000D01*
X73080500Y-23750000D01*
X73081500Y-23757000D01*
X73082500Y-23763000D01*
X73082500Y-23770000D01*
X73082500Y-23970000D01*
X73082500Y-23977000D01*
X73081500Y-23983000D01*
X73080500Y-23990000D01*
X73079500Y-23996000D01*
X73078500Y-24002000D01*
X73076500Y-24009000D01*
X73074500Y-24015000D01*
X73071500Y-24021000D01*
X73068500Y-24027000D01*
X73065500Y-24032000D01*
X73062500Y-24038000D01*
X73058500Y-24043000D01*
X73054500Y-24049000D01*
X73050500Y-24054000D01*
X73045500Y-24058000D01*
X73041500Y-24063000D01*
X73036500Y-24067000D01*
X73030500Y-24071000D01*
X73025500Y-24075000D01*
X73020500Y-24078000D01*
X73014500Y-24081000D01*
X73008500Y-24084000D01*
X73002500Y-24087000D01*
X72996500Y-24089000D01*
X72989500Y-24091000D01*
X72983500Y-24092000D01*
X72977500Y-24093000D01*
X72970500Y-24094000D01*
X72964500Y-24095000D01*
X72957500Y-24095000D01*
X72517500Y-24095000D01*
X72510500Y-24095000D01*
X72504500Y-24094000D01*
X72497500Y-24093000D01*
X72491500Y-24092000D01*
X72485500Y-24091000D01*
X72478500Y-24089000D01*
X72472500Y-24087000D01*
X72466500Y-24084000D01*
X72460500Y-24081000D01*
X72454500Y-24078000D01*
X72449500Y-24075000D01*
X72444500Y-24071000D01*
X72438500Y-24067000D01*
X72433500Y-24063000D01*
X72429500Y-24058000D01*
X72424500Y-24054000D01*
X72420500Y-24049000D01*
X72416500Y-24043000D01*
X72412500Y-24038000D01*
X72409500Y-24032000D01*
X72406500Y-24027000D01*
X72403500Y-24021000D01*
X72400500Y-24015000D01*
X72398500Y-24009000D01*
X72396500Y-24002000D01*
X72395500Y-23996000D01*
X72394500Y-23990000D01*
X72393500Y-23983000D01*
X72392500Y-23977000D01*
X72392500Y-23970000D01*
X72392500Y-23770000D01*
X72392500Y-23763000D01*
X72393500Y-23757000D01*
X72394500Y-23750000D01*
X72395500Y-23744000D01*
X72396500Y-23738000D01*
X72398500Y-23731000D01*
X72400500Y-23725000D01*
X72403500Y-23719000D01*
X72406500Y-23713000D01*
X72409500Y-23708000D01*
X72412500Y-23702000D01*
X72416500Y-23697000D01*
X72420500Y-23691000D01*
X72424500Y-23686000D01*
X72429500Y-23682000D01*
X72433500Y-23677000D01*
X72438500Y-23673000D01*
X72444500Y-23669000D01*
X72449500Y-23665000D01*
X72454500Y-23662000D01*
X72460500Y-23659000D01*
X72466500Y-23656000D01*
X72472500Y-23653000D01*
X72478500Y-23651000D01*
X72485500Y-23649000D01*
X72491500Y-23648000D01*
X72497500Y-23647000D01*
X72504500Y-23646000D01*
X72510500Y-23645000D01*
X72517500Y-23645000D01*
X72957500Y-23645000D01*
X72964500Y-23645000D01*
X72970500Y-23646000D01*
G37*
X73082500Y-24270000D02*
X73082500Y-24470000D01*
X73082500Y-24477000D01*
X73081500Y-24483000D01*
X73080500Y-24490000D01*
X73079500Y-24496000D01*
X73078500Y-24502000D01*
X73076500Y-24509000D01*
X73074500Y-24515000D01*
X73071500Y-24521000D01*
X73068500Y-24527000D01*
X73065500Y-24532000D01*
X73062500Y-24538000D01*
X73058500Y-24543000D01*
X73054500Y-24549000D01*
X73050500Y-24554000D01*
X73045500Y-24558000D01*
X73041500Y-24563000D01*
X73036500Y-24567000D01*
X73030500Y-24571000D01*
X73025500Y-24575000D01*
X73020500Y-24578000D01*
X73014500Y-24581000D01*
X73008500Y-24584000D01*
X73002500Y-24587000D01*
X72996500Y-24589000D01*
X72989500Y-24591000D01*
X72983500Y-24592000D01*
X72977500Y-24593000D01*
X72970500Y-24594000D01*
X72964500Y-24595000D01*
X72957500Y-24595000D01*
X72517500Y-24595000D01*
X72510500Y-24595000D01*
X72504500Y-24594000D01*
X72497500Y-24593000D01*
X72491500Y-24592000D01*
X72485500Y-24591000D01*
X72478500Y-24589000D01*
X72472500Y-24587000D01*
X72466500Y-24584000D01*
X72460500Y-24581000D01*
X72454500Y-24578000D01*
X72449500Y-24575000D01*
X72444500Y-24571000D01*
X72438500Y-24567000D01*
X72433500Y-24563000D01*
X72429500Y-24558000D01*
X72424500Y-24554000D01*
X72420500Y-24549000D01*
X72416500Y-24543000D01*
X72412500Y-24538000D01*
X72409500Y-24532000D01*
X72406500Y-24527000D01*
X72403500Y-24521000D01*
X72400500Y-24515000D01*
X72398500Y-24509000D01*
X72396500Y-24502000D01*
X72395500Y-24496000D01*
X72394500Y-24490000D01*
X72393500Y-24483000D01*
X72392500Y-24477000D01*
X72392500Y-24470000D01*
X72392500Y-24270000D01*
X72392500Y-24263000D01*
X72393500Y-24257000D01*
X72394500Y-24250000D01*
X72395500Y-24244000D01*
X72396500Y-24238000D01*
X72398500Y-24231000D01*
X72400500Y-24225000D01*
X72403500Y-24219000D01*
X72406500Y-24213000D01*
X72409500Y-24208000D01*
X72412500Y-24202000D01*
X72416500Y-24197000D01*
X72420500Y-24191000D01*
X72424500Y-24186000D01*
X72429500Y-24182000D01*
X72433500Y-24177000D01*
X72438500Y-24173000D01*
X72444500Y-24169000D01*
X72449500Y-24165000D01*
X72454500Y-24162000D01*
X72460500Y-24159000D01*
X72466500Y-24156000D01*
X72472500Y-24153000D01*
X72478500Y-24151000D01*
X72485500Y-24149000D01*
X72491500Y-24148000D01*
X72497500Y-24147000D01*
X72504500Y-24146000D01*
X72510500Y-24145000D01*
X72517500Y-24145000D01*
X72957500Y-24145000D01*
X72964500Y-24145000D01*
X72970500Y-24146000D01*
X72977500Y-24147000D01*
X72983500Y-24148000D01*
X72989500Y-24149000D01*
X72996500Y-24151000D01*
X73002500Y-24153000D01*
X73008500Y-24156000D01*
X73014500Y-24159000D01*
X73020500Y-24162000D01*
X73025500Y-24165000D01*
X73030500Y-24169000D01*
X73036500Y-24173000D01*
X73041500Y-24177000D01*
X73045500Y-24182000D01*
X73050500Y-24186000D01*
X73054500Y-24191000D01*
X73058500Y-24197000D01*
X73062500Y-24202000D01*
X73065500Y-24208000D01*
X73068500Y-24213000D01*
X73071500Y-24219000D01*
X73074500Y-24225000D01*
X73076500Y-24231000D01*
X73078500Y-24238000D01*
X73079500Y-24244000D01*
X73080500Y-24250000D01*
X73081500Y-24257000D01*
X73082500Y-24263000D01*
X73082500Y-24270000D01*
G36*
X72970500Y-24146000D02*
G01*
X72977500Y-24147000D01*
X72983500Y-24148000D01*
X72989500Y-24149000D01*
X72996500Y-24151000D01*
X73002500Y-24153000D01*
X73008500Y-24156000D01*
X73014500Y-24159000D01*
X73020500Y-24162000D01*
X73025500Y-24165000D01*
X73030500Y-24169000D01*
X73036500Y-24173000D01*
X73041500Y-24177000D01*
X73045500Y-24182000D01*
X73050500Y-24186000D01*
X73054500Y-24191000D01*
X73058500Y-24197000D01*
X73062500Y-24202000D01*
X73065500Y-24208000D01*
X73068500Y-24213000D01*
X73071500Y-24219000D01*
X73074500Y-24225000D01*
X73076500Y-24231000D01*
X73078500Y-24238000D01*
X73079500Y-24244000D01*
X73080500Y-24250000D01*
X73081500Y-24257000D01*
X73082500Y-24263000D01*
X73082500Y-24270000D01*
X73082500Y-24470000D01*
X73082500Y-24477000D01*
X73081500Y-24483000D01*
X73080500Y-24490000D01*
X73079500Y-24496000D01*
X73078500Y-24502000D01*
X73076500Y-24509000D01*
X73074500Y-24515000D01*
X73071500Y-24521000D01*
X73068500Y-24527000D01*
X73065500Y-24532000D01*
X73062500Y-24538000D01*
X73058500Y-24543000D01*
X73054500Y-24549000D01*
X73050500Y-24554000D01*
X73045500Y-24558000D01*
X73041500Y-24563000D01*
X73036500Y-24567000D01*
X73030500Y-24571000D01*
X73025500Y-24575000D01*
X73020500Y-24578000D01*
X73014500Y-24581000D01*
X73008500Y-24584000D01*
X73002500Y-24587000D01*
X72996500Y-24589000D01*
X72989500Y-24591000D01*
X72983500Y-24592000D01*
X72977500Y-24593000D01*
X72970500Y-24594000D01*
X72964500Y-24595000D01*
X72957500Y-24595000D01*
X72517500Y-24595000D01*
X72510500Y-24595000D01*
X72504500Y-24594000D01*
X72497500Y-24593000D01*
X72491500Y-24592000D01*
X72485500Y-24591000D01*
X72478500Y-24589000D01*
X72472500Y-24587000D01*
X72466500Y-24584000D01*
X72460500Y-24581000D01*
X72454500Y-24578000D01*
X72449500Y-24575000D01*
X72444500Y-24571000D01*
X72438500Y-24567000D01*
X72433500Y-24563000D01*
X72429500Y-24558000D01*
X72424500Y-24554000D01*
X72420500Y-24549000D01*
X72416500Y-24543000D01*
X72412500Y-24538000D01*
X72409500Y-24532000D01*
X72406500Y-24527000D01*
X72403500Y-24521000D01*
X72400500Y-24515000D01*
X72398500Y-24509000D01*
X72396500Y-24502000D01*
X72395500Y-24496000D01*
X72394500Y-24490000D01*
X72393500Y-24483000D01*
X72392500Y-24477000D01*
X72392500Y-24470000D01*
X72392500Y-24270000D01*
X72392500Y-24263000D01*
X72393500Y-24257000D01*
X72394500Y-24250000D01*
X72395500Y-24244000D01*
X72396500Y-24238000D01*
X72398500Y-24231000D01*
X72400500Y-24225000D01*
X72403500Y-24219000D01*
X72406500Y-24213000D01*
X72409500Y-24208000D01*
X72412500Y-24202000D01*
X72416500Y-24197000D01*
X72420500Y-24191000D01*
X72424500Y-24186000D01*
X72429500Y-24182000D01*
X72433500Y-24177000D01*
X72438500Y-24173000D01*
X72444500Y-24169000D01*
X72449500Y-24165000D01*
X72454500Y-24162000D01*
X72460500Y-24159000D01*
X72466500Y-24156000D01*
X72472500Y-24153000D01*
X72478500Y-24151000D01*
X72485500Y-24149000D01*
X72491500Y-24148000D01*
X72497500Y-24147000D01*
X72504500Y-24146000D01*
X72510500Y-24145000D01*
X72517500Y-24145000D01*
X72957500Y-24145000D01*
X72964500Y-24145000D01*
X72970500Y-24146000D01*
G37*
X73082500Y-22770000D02*
X73082500Y-22970000D01*
X73082500Y-22977000D01*
X73081500Y-22983000D01*
X73080500Y-22990000D01*
X73079500Y-22996000D01*
X73078500Y-23002000D01*
X73076500Y-23009000D01*
X73074500Y-23015000D01*
X73071500Y-23021000D01*
X73068500Y-23027000D01*
X73065500Y-23032000D01*
X73062500Y-23038000D01*
X73058500Y-23043000D01*
X73054500Y-23049000D01*
X73050500Y-23054000D01*
X73045500Y-23058000D01*
X73041500Y-23063000D01*
X73036500Y-23067000D01*
X73030500Y-23071000D01*
X73025500Y-23075000D01*
X73020500Y-23078000D01*
X73014500Y-23081000D01*
X73008500Y-23084000D01*
X73002500Y-23087000D01*
X72996500Y-23089000D01*
X72989500Y-23091000D01*
X72983500Y-23092000D01*
X72977500Y-23093000D01*
X72970500Y-23094000D01*
X72964500Y-23095000D01*
X72957500Y-23095000D01*
X72517500Y-23095000D01*
X72510500Y-23095000D01*
X72504500Y-23094000D01*
X72497500Y-23093000D01*
X72491500Y-23092000D01*
X72485500Y-23091000D01*
X72478500Y-23089000D01*
X72472500Y-23087000D01*
X72466500Y-23084000D01*
X72460500Y-23081000D01*
X72454500Y-23078000D01*
X72449500Y-23075000D01*
X72444500Y-23071000D01*
X72438500Y-23067000D01*
X72433500Y-23063000D01*
X72429500Y-23058000D01*
X72424500Y-23054000D01*
X72420500Y-23049000D01*
X72416500Y-23043000D01*
X72412500Y-23038000D01*
X72409500Y-23032000D01*
X72406500Y-23027000D01*
X72403500Y-23021000D01*
X72400500Y-23015000D01*
X72398500Y-23009000D01*
X72396500Y-23002000D01*
X72395500Y-22996000D01*
X72394500Y-22990000D01*
X72393500Y-22983000D01*
X72392500Y-22977000D01*
X72392500Y-22970000D01*
X72392500Y-22770000D01*
X72392500Y-22763000D01*
X72393500Y-22757000D01*
X72394500Y-22750000D01*
X72395500Y-22744000D01*
X72396500Y-22738000D01*
X72398500Y-22731000D01*
X72400500Y-22725000D01*
X72403500Y-22719000D01*
X72406500Y-22713000D01*
X72409500Y-22708000D01*
X72412500Y-22702000D01*
X72416500Y-22697000D01*
X72420500Y-22691000D01*
X72424500Y-22686000D01*
X72429500Y-22682000D01*
X72433500Y-22677000D01*
X72438500Y-22673000D01*
X72444500Y-22669000D01*
X72449500Y-22665000D01*
X72454500Y-22662000D01*
X72460500Y-22659000D01*
X72466500Y-22656000D01*
X72472500Y-22653000D01*
X72478500Y-22651000D01*
X72485500Y-22649000D01*
X72491500Y-22648000D01*
X72497500Y-22647000D01*
X72504500Y-22646000D01*
X72510500Y-22645000D01*
X72517500Y-22645000D01*
X72957500Y-22645000D01*
X72964500Y-22645000D01*
X72970500Y-22646000D01*
X72977500Y-22647000D01*
X72983500Y-22648000D01*
X72989500Y-22649000D01*
X72996500Y-22651000D01*
X73002500Y-22653000D01*
X73008500Y-22656000D01*
X73014500Y-22659000D01*
X73020500Y-22662000D01*
X73025500Y-22665000D01*
X73030500Y-22669000D01*
X73036500Y-22673000D01*
X73041500Y-22677000D01*
X73045500Y-22682000D01*
X73050500Y-22686000D01*
X73054500Y-22691000D01*
X73058500Y-22697000D01*
X73062500Y-22702000D01*
X73065500Y-22708000D01*
X73068500Y-22713000D01*
X73071500Y-22719000D01*
X73074500Y-22725000D01*
X73076500Y-22731000D01*
X73078500Y-22738000D01*
X73079500Y-22744000D01*
X73080500Y-22750000D01*
X73081500Y-22757000D01*
X73082500Y-22763000D01*
X73082500Y-22770000D01*
G36*
X72970500Y-22646000D02*
G01*
X72977500Y-22647000D01*
X72983500Y-22648000D01*
X72989500Y-22649000D01*
X72996500Y-22651000D01*
X73002500Y-22653000D01*
X73008500Y-22656000D01*
X73014500Y-22659000D01*
X73020500Y-22662000D01*
X73025500Y-22665000D01*
X73030500Y-22669000D01*
X73036500Y-22673000D01*
X73041500Y-22677000D01*
X73045500Y-22682000D01*
X73050500Y-22686000D01*
X73054500Y-22691000D01*
X73058500Y-22697000D01*
X73062500Y-22702000D01*
X73065500Y-22708000D01*
X73068500Y-22713000D01*
X73071500Y-22719000D01*
X73074500Y-22725000D01*
X73076500Y-22731000D01*
X73078500Y-22738000D01*
X73079500Y-22744000D01*
X73080500Y-22750000D01*
X73081500Y-22757000D01*
X73082500Y-22763000D01*
X73082500Y-22770000D01*
X73082500Y-22970000D01*
X73082500Y-22977000D01*
X73081500Y-22983000D01*
X73080500Y-22990000D01*
X73079500Y-22996000D01*
X73078500Y-23002000D01*
X73076500Y-23009000D01*
X73074500Y-23015000D01*
X73071500Y-23021000D01*
X73068500Y-23027000D01*
X73065500Y-23032000D01*
X73062500Y-23038000D01*
X73058500Y-23043000D01*
X73054500Y-23049000D01*
X73050500Y-23054000D01*
X73045500Y-23058000D01*
X73041500Y-23063000D01*
X73036500Y-23067000D01*
X73030500Y-23071000D01*
X73025500Y-23075000D01*
X73020500Y-23078000D01*
X73014500Y-23081000D01*
X73008500Y-23084000D01*
X73002500Y-23087000D01*
X72996500Y-23089000D01*
X72989500Y-23091000D01*
X72983500Y-23092000D01*
X72977500Y-23093000D01*
X72970500Y-23094000D01*
X72964500Y-23095000D01*
X72957500Y-23095000D01*
X72517500Y-23095000D01*
X72510500Y-23095000D01*
X72504500Y-23094000D01*
X72497500Y-23093000D01*
X72491500Y-23092000D01*
X72485500Y-23091000D01*
X72478500Y-23089000D01*
X72472500Y-23087000D01*
X72466500Y-23084000D01*
X72460500Y-23081000D01*
X72454500Y-23078000D01*
X72449500Y-23075000D01*
X72444500Y-23071000D01*
X72438500Y-23067000D01*
X72433500Y-23063000D01*
X72429500Y-23058000D01*
X72424500Y-23054000D01*
X72420500Y-23049000D01*
X72416500Y-23043000D01*
X72412500Y-23038000D01*
X72409500Y-23032000D01*
X72406500Y-23027000D01*
X72403500Y-23021000D01*
X72400500Y-23015000D01*
X72398500Y-23009000D01*
X72396500Y-23002000D01*
X72395500Y-22996000D01*
X72394500Y-22990000D01*
X72393500Y-22983000D01*
X72392500Y-22977000D01*
X72392500Y-22970000D01*
X72392500Y-22770000D01*
X72392500Y-22763000D01*
X72393500Y-22757000D01*
X72394500Y-22750000D01*
X72395500Y-22744000D01*
X72396500Y-22738000D01*
X72398500Y-22731000D01*
X72400500Y-22725000D01*
X72403500Y-22719000D01*
X72406500Y-22713000D01*
X72409500Y-22708000D01*
X72412500Y-22702000D01*
X72416500Y-22697000D01*
X72420500Y-22691000D01*
X72424500Y-22686000D01*
X72429500Y-22682000D01*
X72433500Y-22677000D01*
X72438500Y-22673000D01*
X72444500Y-22669000D01*
X72449500Y-22665000D01*
X72454500Y-22662000D01*
X72460500Y-22659000D01*
X72466500Y-22656000D01*
X72472500Y-22653000D01*
X72478500Y-22651000D01*
X72485500Y-22649000D01*
X72491500Y-22648000D01*
X72497500Y-22647000D01*
X72504500Y-22646000D01*
X72510500Y-22645000D01*
X72517500Y-22645000D01*
X72957500Y-22645000D01*
X72964500Y-22645000D01*
X72970500Y-22646000D01*
G37*
X75412500Y-23270000D02*
X75412500Y-23470000D01*
X75412500Y-23477000D01*
X75411500Y-23483000D01*
X75410500Y-23490000D01*
X75409500Y-23496000D01*
X75408500Y-23502000D01*
X75406500Y-23509000D01*
X75404500Y-23515000D01*
X75401500Y-23521000D01*
X75398500Y-23527000D01*
X75395500Y-23532000D01*
X75392500Y-23538000D01*
X75388500Y-23543000D01*
X75384500Y-23549000D01*
X75380500Y-23554000D01*
X75375500Y-23558000D01*
X75371500Y-23563000D01*
X75366500Y-23567000D01*
X75360500Y-23571000D01*
X75355500Y-23575000D01*
X75350500Y-23578000D01*
X75344500Y-23581000D01*
X75338500Y-23584000D01*
X75332500Y-23587000D01*
X75326500Y-23589000D01*
X75319500Y-23591000D01*
X75313500Y-23592000D01*
X75307500Y-23593000D01*
X75300500Y-23594000D01*
X75294500Y-23595000D01*
X75287500Y-23595000D01*
X74847500Y-23595000D01*
X74840500Y-23595000D01*
X74834500Y-23594000D01*
X74827500Y-23593000D01*
X74821500Y-23592000D01*
X74815500Y-23591000D01*
X74808500Y-23589000D01*
X74802500Y-23587000D01*
X74796500Y-23584000D01*
X74790500Y-23581000D01*
X74784500Y-23578000D01*
X74779500Y-23575000D01*
X74774500Y-23571000D01*
X74768500Y-23567000D01*
X74763500Y-23563000D01*
X74759500Y-23558000D01*
X74754500Y-23554000D01*
X74750500Y-23549000D01*
X74746500Y-23543000D01*
X74742500Y-23538000D01*
X74739500Y-23532000D01*
X74736500Y-23527000D01*
X74733500Y-23521000D01*
X74730500Y-23515000D01*
X74728500Y-23509000D01*
X74726500Y-23502000D01*
X74725500Y-23496000D01*
X74724500Y-23490000D01*
X74723500Y-23483000D01*
X74722500Y-23477000D01*
X74722500Y-23470000D01*
X74722500Y-23270000D01*
X74722500Y-23263000D01*
X74723500Y-23257000D01*
X74724500Y-23250000D01*
X74725500Y-23244000D01*
X74726500Y-23238000D01*
X74728500Y-23231000D01*
X74730500Y-23225000D01*
X74733500Y-23219000D01*
X74736500Y-23213000D01*
X74739500Y-23208000D01*
X74742500Y-23202000D01*
X74746500Y-23197000D01*
X74750500Y-23191000D01*
X74754500Y-23186000D01*
X74759500Y-23182000D01*
X74763500Y-23177000D01*
X74768500Y-23173000D01*
X74774500Y-23169000D01*
X74779500Y-23165000D01*
X74784500Y-23162000D01*
X74790500Y-23159000D01*
X74796500Y-23156000D01*
X74802500Y-23153000D01*
X74808500Y-23151000D01*
X74815500Y-23149000D01*
X74821500Y-23148000D01*
X74827500Y-23147000D01*
X74834500Y-23146000D01*
X74840500Y-23145000D01*
X74847500Y-23145000D01*
X75287500Y-23145000D01*
X75294500Y-23145000D01*
X75300500Y-23146000D01*
X75307500Y-23147000D01*
X75313500Y-23148000D01*
X75319500Y-23149000D01*
X75326500Y-23151000D01*
X75332500Y-23153000D01*
X75338500Y-23156000D01*
X75344500Y-23159000D01*
X75350500Y-23162000D01*
X75355500Y-23165000D01*
X75360500Y-23169000D01*
X75366500Y-23173000D01*
X75371500Y-23177000D01*
X75375500Y-23182000D01*
X75380500Y-23186000D01*
X75384500Y-23191000D01*
X75388500Y-23197000D01*
X75392500Y-23202000D01*
X75395500Y-23208000D01*
X75398500Y-23213000D01*
X75401500Y-23219000D01*
X75404500Y-23225000D01*
X75406500Y-23231000D01*
X75408500Y-23238000D01*
X75409500Y-23244000D01*
X75410500Y-23250000D01*
X75411500Y-23257000D01*
X75412500Y-23263000D01*
X75412500Y-23270000D01*
G36*
X75300500Y-23146000D02*
G01*
X75307500Y-23147000D01*
X75313500Y-23148000D01*
X75319500Y-23149000D01*
X75326500Y-23151000D01*
X75332500Y-23153000D01*
X75338500Y-23156000D01*
X75344500Y-23159000D01*
X75350500Y-23162000D01*
X75355500Y-23165000D01*
X75360500Y-23169000D01*
X75366500Y-23173000D01*
X75371500Y-23177000D01*
X75375500Y-23182000D01*
X75380500Y-23186000D01*
X75384500Y-23191000D01*
X75388500Y-23197000D01*
X75392500Y-23202000D01*
X75395500Y-23208000D01*
X75398500Y-23213000D01*
X75401500Y-23219000D01*
X75404500Y-23225000D01*
X75406500Y-23231000D01*
X75408500Y-23238000D01*
X75409500Y-23244000D01*
X75410500Y-23250000D01*
X75411500Y-23257000D01*
X75412500Y-23263000D01*
X75412500Y-23270000D01*
X75412500Y-23470000D01*
X75412500Y-23477000D01*
X75411500Y-23483000D01*
X75410500Y-23490000D01*
X75409500Y-23496000D01*
X75408500Y-23502000D01*
X75406500Y-23509000D01*
X75404500Y-23515000D01*
X75401500Y-23521000D01*
X75398500Y-23527000D01*
X75395500Y-23532000D01*
X75392500Y-23538000D01*
X75388500Y-23543000D01*
X75384500Y-23549000D01*
X75380500Y-23554000D01*
X75375500Y-23558000D01*
X75371500Y-23563000D01*
X75366500Y-23567000D01*
X75360500Y-23571000D01*
X75355500Y-23575000D01*
X75350500Y-23578000D01*
X75344500Y-23581000D01*
X75338500Y-23584000D01*
X75332500Y-23587000D01*
X75326500Y-23589000D01*
X75319500Y-23591000D01*
X75313500Y-23592000D01*
X75307500Y-23593000D01*
X75300500Y-23594000D01*
X75294500Y-23595000D01*
X75287500Y-23595000D01*
X74847500Y-23595000D01*
X74840500Y-23595000D01*
X74834500Y-23594000D01*
X74827500Y-23593000D01*
X74821500Y-23592000D01*
X74815500Y-23591000D01*
X74808500Y-23589000D01*
X74802500Y-23587000D01*
X74796500Y-23584000D01*
X74790500Y-23581000D01*
X74784500Y-23578000D01*
X74779500Y-23575000D01*
X74774500Y-23571000D01*
X74768500Y-23567000D01*
X74763500Y-23563000D01*
X74759500Y-23558000D01*
X74754500Y-23554000D01*
X74750500Y-23549000D01*
X74746500Y-23543000D01*
X74742500Y-23538000D01*
X74739500Y-23532000D01*
X74736500Y-23527000D01*
X74733500Y-23521000D01*
X74730500Y-23515000D01*
X74728500Y-23509000D01*
X74726500Y-23502000D01*
X74725500Y-23496000D01*
X74724500Y-23490000D01*
X74723500Y-23483000D01*
X74722500Y-23477000D01*
X74722500Y-23470000D01*
X74722500Y-23270000D01*
X74722500Y-23263000D01*
X74723500Y-23257000D01*
X74724500Y-23250000D01*
X74725500Y-23244000D01*
X74726500Y-23238000D01*
X74728500Y-23231000D01*
X74730500Y-23225000D01*
X74733500Y-23219000D01*
X74736500Y-23213000D01*
X74739500Y-23208000D01*
X74742500Y-23202000D01*
X74746500Y-23197000D01*
X74750500Y-23191000D01*
X74754500Y-23186000D01*
X74759500Y-23182000D01*
X74763500Y-23177000D01*
X74768500Y-23173000D01*
X74774500Y-23169000D01*
X74779500Y-23165000D01*
X74784500Y-23162000D01*
X74790500Y-23159000D01*
X74796500Y-23156000D01*
X74802500Y-23153000D01*
X74808500Y-23151000D01*
X74815500Y-23149000D01*
X74821500Y-23148000D01*
X74827500Y-23147000D01*
X74834500Y-23146000D01*
X74840500Y-23145000D01*
X74847500Y-23145000D01*
X75287500Y-23145000D01*
X75294500Y-23145000D01*
X75300500Y-23146000D01*
G37*
X75412500Y-23770000D02*
X75412500Y-23970000D01*
X75412500Y-23977000D01*
X75411500Y-23983000D01*
X75410500Y-23990000D01*
X75409500Y-23996000D01*
X75408500Y-24002000D01*
X75406500Y-24009000D01*
X75404500Y-24015000D01*
X75401500Y-24021000D01*
X75398500Y-24027000D01*
X75395500Y-24032000D01*
X75392500Y-24038000D01*
X75388500Y-24043000D01*
X75384500Y-24049000D01*
X75380500Y-24054000D01*
X75375500Y-24058000D01*
X75371500Y-24063000D01*
X75366500Y-24067000D01*
X75360500Y-24071000D01*
X75355500Y-24075000D01*
X75350500Y-24078000D01*
X75344500Y-24081000D01*
X75338500Y-24084000D01*
X75332500Y-24087000D01*
X75326500Y-24089000D01*
X75319500Y-24091000D01*
X75313500Y-24092000D01*
X75307500Y-24093000D01*
X75300500Y-24094000D01*
X75294500Y-24095000D01*
X75287500Y-24095000D01*
X74847500Y-24095000D01*
X74840500Y-24095000D01*
X74834500Y-24094000D01*
X74827500Y-24093000D01*
X74821500Y-24092000D01*
X74815500Y-24091000D01*
X74808500Y-24089000D01*
X74802500Y-24087000D01*
X74796500Y-24084000D01*
X74790500Y-24081000D01*
X74784500Y-24078000D01*
X74779500Y-24075000D01*
X74774500Y-24071000D01*
X74768500Y-24067000D01*
X74763500Y-24063000D01*
X74759500Y-24058000D01*
X74754500Y-24054000D01*
X74750500Y-24049000D01*
X74746500Y-24043000D01*
X74742500Y-24038000D01*
X74739500Y-24032000D01*
X74736500Y-24027000D01*
X74733500Y-24021000D01*
X74730500Y-24015000D01*
X74728500Y-24009000D01*
X74726500Y-24002000D01*
X74725500Y-23996000D01*
X74724500Y-23990000D01*
X74723500Y-23983000D01*
X74722500Y-23977000D01*
X74722500Y-23970000D01*
X74722500Y-23770000D01*
X74722500Y-23763000D01*
X74723500Y-23757000D01*
X74724500Y-23750000D01*
X74725500Y-23744000D01*
X74726500Y-23738000D01*
X74728500Y-23731000D01*
X74730500Y-23725000D01*
X74733500Y-23719000D01*
X74736500Y-23713000D01*
X74739500Y-23708000D01*
X74742500Y-23702000D01*
X74746500Y-23697000D01*
X74750500Y-23691000D01*
X74754500Y-23686000D01*
X74759500Y-23682000D01*
X74763500Y-23677000D01*
X74768500Y-23673000D01*
X74774500Y-23669000D01*
X74779500Y-23665000D01*
X74784500Y-23662000D01*
X74790500Y-23659000D01*
X74796500Y-23656000D01*
X74802500Y-23653000D01*
X74808500Y-23651000D01*
X74815500Y-23649000D01*
X74821500Y-23648000D01*
X74827500Y-23647000D01*
X74834500Y-23646000D01*
X74840500Y-23645000D01*
X74847500Y-23645000D01*
X75287500Y-23645000D01*
X75294500Y-23645000D01*
X75300500Y-23646000D01*
X75307500Y-23647000D01*
X75313500Y-23648000D01*
X75319500Y-23649000D01*
X75326500Y-23651000D01*
X75332500Y-23653000D01*
X75338500Y-23656000D01*
X75344500Y-23659000D01*
X75350500Y-23662000D01*
X75355500Y-23665000D01*
X75360500Y-23669000D01*
X75366500Y-23673000D01*
X75371500Y-23677000D01*
X75375500Y-23682000D01*
X75380500Y-23686000D01*
X75384500Y-23691000D01*
X75388500Y-23697000D01*
X75392500Y-23702000D01*
X75395500Y-23708000D01*
X75398500Y-23713000D01*
X75401500Y-23719000D01*
X75404500Y-23725000D01*
X75406500Y-23731000D01*
X75408500Y-23738000D01*
X75409500Y-23744000D01*
X75410500Y-23750000D01*
X75411500Y-23757000D01*
X75412500Y-23763000D01*
X75412500Y-23770000D01*
G36*
X75300500Y-23646000D02*
G01*
X75307500Y-23647000D01*
X75313500Y-23648000D01*
X75319500Y-23649000D01*
X75326500Y-23651000D01*
X75332500Y-23653000D01*
X75338500Y-23656000D01*
X75344500Y-23659000D01*
X75350500Y-23662000D01*
X75355500Y-23665000D01*
X75360500Y-23669000D01*
X75366500Y-23673000D01*
X75371500Y-23677000D01*
X75375500Y-23682000D01*
X75380500Y-23686000D01*
X75384500Y-23691000D01*
X75388500Y-23697000D01*
X75392500Y-23702000D01*
X75395500Y-23708000D01*
X75398500Y-23713000D01*
X75401500Y-23719000D01*
X75404500Y-23725000D01*
X75406500Y-23731000D01*
X75408500Y-23738000D01*
X75409500Y-23744000D01*
X75410500Y-23750000D01*
X75411500Y-23757000D01*
X75412500Y-23763000D01*
X75412500Y-23770000D01*
X75412500Y-23970000D01*
X75412500Y-23977000D01*
X75411500Y-23983000D01*
X75410500Y-23990000D01*
X75409500Y-23996000D01*
X75408500Y-24002000D01*
X75406500Y-24009000D01*
X75404500Y-24015000D01*
X75401500Y-24021000D01*
X75398500Y-24027000D01*
X75395500Y-24032000D01*
X75392500Y-24038000D01*
X75388500Y-24043000D01*
X75384500Y-24049000D01*
X75380500Y-24054000D01*
X75375500Y-24058000D01*
X75371500Y-24063000D01*
X75366500Y-24067000D01*
X75360500Y-24071000D01*
X75355500Y-24075000D01*
X75350500Y-24078000D01*
X75344500Y-24081000D01*
X75338500Y-24084000D01*
X75332500Y-24087000D01*
X75326500Y-24089000D01*
X75319500Y-24091000D01*
X75313500Y-24092000D01*
X75307500Y-24093000D01*
X75300500Y-24094000D01*
X75294500Y-24095000D01*
X75287500Y-24095000D01*
X74847500Y-24095000D01*
X74840500Y-24095000D01*
X74834500Y-24094000D01*
X74827500Y-24093000D01*
X74821500Y-24092000D01*
X74815500Y-24091000D01*
X74808500Y-24089000D01*
X74802500Y-24087000D01*
X74796500Y-24084000D01*
X74790500Y-24081000D01*
X74784500Y-24078000D01*
X74779500Y-24075000D01*
X74774500Y-24071000D01*
X74768500Y-24067000D01*
X74763500Y-24063000D01*
X74759500Y-24058000D01*
X74754500Y-24054000D01*
X74750500Y-24049000D01*
X74746500Y-24043000D01*
X74742500Y-24038000D01*
X74739500Y-24032000D01*
X74736500Y-24027000D01*
X74733500Y-24021000D01*
X74730500Y-24015000D01*
X74728500Y-24009000D01*
X74726500Y-24002000D01*
X74725500Y-23996000D01*
X74724500Y-23990000D01*
X74723500Y-23983000D01*
X74722500Y-23977000D01*
X74722500Y-23970000D01*
X74722500Y-23770000D01*
X74722500Y-23763000D01*
X74723500Y-23757000D01*
X74724500Y-23750000D01*
X74725500Y-23744000D01*
X74726500Y-23738000D01*
X74728500Y-23731000D01*
X74730500Y-23725000D01*
X74733500Y-23719000D01*
X74736500Y-23713000D01*
X74739500Y-23708000D01*
X74742500Y-23702000D01*
X74746500Y-23697000D01*
X74750500Y-23691000D01*
X74754500Y-23686000D01*
X74759500Y-23682000D01*
X74763500Y-23677000D01*
X74768500Y-23673000D01*
X74774500Y-23669000D01*
X74779500Y-23665000D01*
X74784500Y-23662000D01*
X74790500Y-23659000D01*
X74796500Y-23656000D01*
X74802500Y-23653000D01*
X74808500Y-23651000D01*
X74815500Y-23649000D01*
X74821500Y-23648000D01*
X74827500Y-23647000D01*
X74834500Y-23646000D01*
X74840500Y-23645000D01*
X74847500Y-23645000D01*
X75287500Y-23645000D01*
X75294500Y-23645000D01*
X75300500Y-23646000D01*
G37*
X75412500Y-24270000D02*
X75412500Y-24470000D01*
X75412500Y-24477000D01*
X75411500Y-24483000D01*
X75410500Y-24490000D01*
X75409500Y-24496000D01*
X75408500Y-24502000D01*
X75406500Y-24509000D01*
X75404500Y-24515000D01*
X75401500Y-24521000D01*
X75398500Y-24527000D01*
X75395500Y-24532000D01*
X75392500Y-24538000D01*
X75388500Y-24543000D01*
X75384500Y-24549000D01*
X75380500Y-24554000D01*
X75375500Y-24558000D01*
X75371500Y-24563000D01*
X75366500Y-24567000D01*
X75360500Y-24571000D01*
X75355500Y-24575000D01*
X75350500Y-24578000D01*
X75344500Y-24581000D01*
X75338500Y-24584000D01*
X75332500Y-24587000D01*
X75326500Y-24589000D01*
X75319500Y-24591000D01*
X75313500Y-24592000D01*
X75307500Y-24593000D01*
X75300500Y-24594000D01*
X75294500Y-24595000D01*
X75287500Y-24595000D01*
X74847500Y-24595000D01*
X74840500Y-24595000D01*
X74834500Y-24594000D01*
X74827500Y-24593000D01*
X74821500Y-24592000D01*
X74815500Y-24591000D01*
X74808500Y-24589000D01*
X74802500Y-24587000D01*
X74796500Y-24584000D01*
X74790500Y-24581000D01*
X74784500Y-24578000D01*
X74779500Y-24575000D01*
X74774500Y-24571000D01*
X74768500Y-24567000D01*
X74763500Y-24563000D01*
X74759500Y-24558000D01*
X74754500Y-24554000D01*
X74750500Y-24549000D01*
X74746500Y-24543000D01*
X74742500Y-24538000D01*
X74739500Y-24532000D01*
X74736500Y-24527000D01*
X74733500Y-24521000D01*
X74730500Y-24515000D01*
X74728500Y-24509000D01*
X74726500Y-24502000D01*
X74725500Y-24496000D01*
X74724500Y-24490000D01*
X74723500Y-24483000D01*
X74722500Y-24477000D01*
X74722500Y-24470000D01*
X74722500Y-24270000D01*
X74722500Y-24263000D01*
X74723500Y-24257000D01*
X74724500Y-24250000D01*
X74725500Y-24244000D01*
X74726500Y-24238000D01*
X74728500Y-24231000D01*
X74730500Y-24225000D01*
X74733500Y-24219000D01*
X74736500Y-24213000D01*
X74739500Y-24208000D01*
X74742500Y-24202000D01*
X74746500Y-24197000D01*
X74750500Y-24191000D01*
X74754500Y-24186000D01*
X74759500Y-24182000D01*
X74763500Y-24177000D01*
X74768500Y-24173000D01*
X74774500Y-24169000D01*
X74779500Y-24165000D01*
X74784500Y-24162000D01*
X74790500Y-24159000D01*
X74796500Y-24156000D01*
X74802500Y-24153000D01*
X74808500Y-24151000D01*
X74815500Y-24149000D01*
X74821500Y-24148000D01*
X74827500Y-24147000D01*
X74834500Y-24146000D01*
X74840500Y-24145000D01*
X74847500Y-24145000D01*
X75287500Y-24145000D01*
X75294500Y-24145000D01*
X75300500Y-24146000D01*
X75307500Y-24147000D01*
X75313500Y-24148000D01*
X75319500Y-24149000D01*
X75326500Y-24151000D01*
X75332500Y-24153000D01*
X75338500Y-24156000D01*
X75344500Y-24159000D01*
X75350500Y-24162000D01*
X75355500Y-24165000D01*
X75360500Y-24169000D01*
X75366500Y-24173000D01*
X75371500Y-24177000D01*
X75375500Y-24182000D01*
X75380500Y-24186000D01*
X75384500Y-24191000D01*
X75388500Y-24197000D01*
X75392500Y-24202000D01*
X75395500Y-24208000D01*
X75398500Y-24213000D01*
X75401500Y-24219000D01*
X75404500Y-24225000D01*
X75406500Y-24231000D01*
X75408500Y-24238000D01*
X75409500Y-24244000D01*
X75410500Y-24250000D01*
X75411500Y-24257000D01*
X75412500Y-24263000D01*
X75412500Y-24270000D01*
G36*
X75300500Y-24146000D02*
G01*
X75307500Y-24147000D01*
X75313500Y-24148000D01*
X75319500Y-24149000D01*
X75326500Y-24151000D01*
X75332500Y-24153000D01*
X75338500Y-24156000D01*
X75344500Y-24159000D01*
X75350500Y-24162000D01*
X75355500Y-24165000D01*
X75360500Y-24169000D01*
X75366500Y-24173000D01*
X75371500Y-24177000D01*
X75375500Y-24182000D01*
X75380500Y-24186000D01*
X75384500Y-24191000D01*
X75388500Y-24197000D01*
X75392500Y-24202000D01*
X75395500Y-24208000D01*
X75398500Y-24213000D01*
X75401500Y-24219000D01*
X75404500Y-24225000D01*
X75406500Y-24231000D01*
X75408500Y-24238000D01*
X75409500Y-24244000D01*
X75410500Y-24250000D01*
X75411500Y-24257000D01*
X75412500Y-24263000D01*
X75412500Y-24270000D01*
X75412500Y-24470000D01*
X75412500Y-24477000D01*
X75411500Y-24483000D01*
X75410500Y-24490000D01*
X75409500Y-24496000D01*
X75408500Y-24502000D01*
X75406500Y-24509000D01*
X75404500Y-24515000D01*
X75401500Y-24521000D01*
X75398500Y-24527000D01*
X75395500Y-24532000D01*
X75392500Y-24538000D01*
X75388500Y-24543000D01*
X75384500Y-24549000D01*
X75380500Y-24554000D01*
X75375500Y-24558000D01*
X75371500Y-24563000D01*
X75366500Y-24567000D01*
X75360500Y-24571000D01*
X75355500Y-24575000D01*
X75350500Y-24578000D01*
X75344500Y-24581000D01*
X75338500Y-24584000D01*
X75332500Y-24587000D01*
X75326500Y-24589000D01*
X75319500Y-24591000D01*
X75313500Y-24592000D01*
X75307500Y-24593000D01*
X75300500Y-24594000D01*
X75294500Y-24595000D01*
X75287500Y-24595000D01*
X74847500Y-24595000D01*
X74840500Y-24595000D01*
X74834500Y-24594000D01*
X74827500Y-24593000D01*
X74821500Y-24592000D01*
X74815500Y-24591000D01*
X74808500Y-24589000D01*
X74802500Y-24587000D01*
X74796500Y-24584000D01*
X74790500Y-24581000D01*
X74784500Y-24578000D01*
X74779500Y-24575000D01*
X74774500Y-24571000D01*
X74768500Y-24567000D01*
X74763500Y-24563000D01*
X74759500Y-24558000D01*
X74754500Y-24554000D01*
X74750500Y-24549000D01*
X74746500Y-24543000D01*
X74742500Y-24538000D01*
X74739500Y-24532000D01*
X74736500Y-24527000D01*
X74733500Y-24521000D01*
X74730500Y-24515000D01*
X74728500Y-24509000D01*
X74726500Y-24502000D01*
X74725500Y-24496000D01*
X74724500Y-24490000D01*
X74723500Y-24483000D01*
X74722500Y-24477000D01*
X74722500Y-24470000D01*
X74722500Y-24270000D01*
X74722500Y-24263000D01*
X74723500Y-24257000D01*
X74724500Y-24250000D01*
X74725500Y-24244000D01*
X74726500Y-24238000D01*
X74728500Y-24231000D01*
X74730500Y-24225000D01*
X74733500Y-24219000D01*
X74736500Y-24213000D01*
X74739500Y-24208000D01*
X74742500Y-24202000D01*
X74746500Y-24197000D01*
X74750500Y-24191000D01*
X74754500Y-24186000D01*
X74759500Y-24182000D01*
X74763500Y-24177000D01*
X74768500Y-24173000D01*
X74774500Y-24169000D01*
X74779500Y-24165000D01*
X74784500Y-24162000D01*
X74790500Y-24159000D01*
X74796500Y-24156000D01*
X74802500Y-24153000D01*
X74808500Y-24151000D01*
X74815500Y-24149000D01*
X74821500Y-24148000D01*
X74827500Y-24147000D01*
X74834500Y-24146000D01*
X74840500Y-24145000D01*
X74847500Y-24145000D01*
X75287500Y-24145000D01*
X75294500Y-24145000D01*
X75300500Y-24146000D01*
G37*
X75412500Y-22770000D02*
X75412500Y-22970000D01*
X75412500Y-22977000D01*
X75411500Y-22983000D01*
X75410500Y-22990000D01*
X75409500Y-22996000D01*
X75408500Y-23002000D01*
X75406500Y-23009000D01*
X75404500Y-23015000D01*
X75401500Y-23021000D01*
X75398500Y-23027000D01*
X75395500Y-23032000D01*
X75392500Y-23038000D01*
X75388500Y-23043000D01*
X75384500Y-23049000D01*
X75380500Y-23054000D01*
X75375500Y-23058000D01*
X75371500Y-23063000D01*
X75366500Y-23067000D01*
X75360500Y-23071000D01*
X75355500Y-23075000D01*
X75350500Y-23078000D01*
X75344500Y-23081000D01*
X75338500Y-23084000D01*
X75332500Y-23087000D01*
X75326500Y-23089000D01*
X75319500Y-23091000D01*
X75313500Y-23092000D01*
X75307500Y-23093000D01*
X75300500Y-23094000D01*
X75294500Y-23095000D01*
X75287500Y-23095000D01*
X74847500Y-23095000D01*
X74840500Y-23095000D01*
X74834500Y-23094000D01*
X74827500Y-23093000D01*
X74821500Y-23092000D01*
X74815500Y-23091000D01*
X74808500Y-23089000D01*
X74802500Y-23087000D01*
X74796500Y-23084000D01*
X74790500Y-23081000D01*
X74784500Y-23078000D01*
X74779500Y-23075000D01*
X74774500Y-23071000D01*
X74768500Y-23067000D01*
X74763500Y-23063000D01*
X74759500Y-23058000D01*
X74754500Y-23054000D01*
X74750500Y-23049000D01*
X74746500Y-23043000D01*
X74742500Y-23038000D01*
X74739500Y-23032000D01*
X74736500Y-23027000D01*
X74733500Y-23021000D01*
X74730500Y-23015000D01*
X74728500Y-23009000D01*
X74726500Y-23002000D01*
X74725500Y-22996000D01*
X74724500Y-22990000D01*
X74723500Y-22983000D01*
X74722500Y-22977000D01*
X74722500Y-22970000D01*
X74722500Y-22770000D01*
X74722500Y-22763000D01*
X74723500Y-22757000D01*
X74724500Y-22750000D01*
X74725500Y-22744000D01*
X74726500Y-22738000D01*
X74728500Y-22731000D01*
X74730500Y-22725000D01*
X74733500Y-22719000D01*
X74736500Y-22713000D01*
X74739500Y-22708000D01*
X74742500Y-22702000D01*
X74746500Y-22697000D01*
X74750500Y-22691000D01*
X74754500Y-22686000D01*
X74759500Y-22682000D01*
X74763500Y-22677000D01*
X74768500Y-22673000D01*
X74774500Y-22669000D01*
X74779500Y-22665000D01*
X74784500Y-22662000D01*
X74790500Y-22659000D01*
X74796500Y-22656000D01*
X74802500Y-22653000D01*
X74808500Y-22651000D01*
X74815500Y-22649000D01*
X74821500Y-22648000D01*
X74827500Y-22647000D01*
X74834500Y-22646000D01*
X74840500Y-22645000D01*
X74847500Y-22645000D01*
X75287500Y-22645000D01*
X75294500Y-22645000D01*
X75300500Y-22646000D01*
X75307500Y-22647000D01*
X75313500Y-22648000D01*
X75319500Y-22649000D01*
X75326500Y-22651000D01*
X75332500Y-22653000D01*
X75338500Y-22656000D01*
X75344500Y-22659000D01*
X75350500Y-22662000D01*
X75355500Y-22665000D01*
X75360500Y-22669000D01*
X75366500Y-22673000D01*
X75371500Y-22677000D01*
X75375500Y-22682000D01*
X75380500Y-22686000D01*
X75384500Y-22691000D01*
X75388500Y-22697000D01*
X75392500Y-22702000D01*
X75395500Y-22708000D01*
X75398500Y-22713000D01*
X75401500Y-22719000D01*
X75404500Y-22725000D01*
X75406500Y-22731000D01*
X75408500Y-22738000D01*
X75409500Y-22744000D01*
X75410500Y-22750000D01*
X75411500Y-22757000D01*
X75412500Y-22763000D01*
X75412500Y-22770000D01*
G36*
X75300500Y-22646000D02*
G01*
X75307500Y-22647000D01*
X75313500Y-22648000D01*
X75319500Y-22649000D01*
X75326500Y-22651000D01*
X75332500Y-22653000D01*
X75338500Y-22656000D01*
X75344500Y-22659000D01*
X75350500Y-22662000D01*
X75355500Y-22665000D01*
X75360500Y-22669000D01*
X75366500Y-22673000D01*
X75371500Y-22677000D01*
X75375500Y-22682000D01*
X75380500Y-22686000D01*
X75384500Y-22691000D01*
X75388500Y-22697000D01*
X75392500Y-22702000D01*
X75395500Y-22708000D01*
X75398500Y-22713000D01*
X75401500Y-22719000D01*
X75404500Y-22725000D01*
X75406500Y-22731000D01*
X75408500Y-22738000D01*
X75409500Y-22744000D01*
X75410500Y-22750000D01*
X75411500Y-22757000D01*
X75412500Y-22763000D01*
X75412500Y-22770000D01*
X75412500Y-22970000D01*
X75412500Y-22977000D01*
X75411500Y-22983000D01*
X75410500Y-22990000D01*
X75409500Y-22996000D01*
X75408500Y-23002000D01*
X75406500Y-23009000D01*
X75404500Y-23015000D01*
X75401500Y-23021000D01*
X75398500Y-23027000D01*
X75395500Y-23032000D01*
X75392500Y-23038000D01*
X75388500Y-23043000D01*
X75384500Y-23049000D01*
X75380500Y-23054000D01*
X75375500Y-23058000D01*
X75371500Y-23063000D01*
X75366500Y-23067000D01*
X75360500Y-23071000D01*
X75355500Y-23075000D01*
X75350500Y-23078000D01*
X75344500Y-23081000D01*
X75338500Y-23084000D01*
X75332500Y-23087000D01*
X75326500Y-23089000D01*
X75319500Y-23091000D01*
X75313500Y-23092000D01*
X75307500Y-23093000D01*
X75300500Y-23094000D01*
X75294500Y-23095000D01*
X75287500Y-23095000D01*
X74847500Y-23095000D01*
X74840500Y-23095000D01*
X74834500Y-23094000D01*
X74827500Y-23093000D01*
X74821500Y-23092000D01*
X74815500Y-23091000D01*
X74808500Y-23089000D01*
X74802500Y-23087000D01*
X74796500Y-23084000D01*
X74790500Y-23081000D01*
X74784500Y-23078000D01*
X74779500Y-23075000D01*
X74774500Y-23071000D01*
X74768500Y-23067000D01*
X74763500Y-23063000D01*
X74759500Y-23058000D01*
X74754500Y-23054000D01*
X74750500Y-23049000D01*
X74746500Y-23043000D01*
X74742500Y-23038000D01*
X74739500Y-23032000D01*
X74736500Y-23027000D01*
X74733500Y-23021000D01*
X74730500Y-23015000D01*
X74728500Y-23009000D01*
X74726500Y-23002000D01*
X74725500Y-22996000D01*
X74724500Y-22990000D01*
X74723500Y-22983000D01*
X74722500Y-22977000D01*
X74722500Y-22970000D01*
X74722500Y-22770000D01*
X74722500Y-22763000D01*
X74723500Y-22757000D01*
X74724500Y-22750000D01*
X74725500Y-22744000D01*
X74726500Y-22738000D01*
X74728500Y-22731000D01*
X74730500Y-22725000D01*
X74733500Y-22719000D01*
X74736500Y-22713000D01*
X74739500Y-22708000D01*
X74742500Y-22702000D01*
X74746500Y-22697000D01*
X74750500Y-22691000D01*
X74754500Y-22686000D01*
X74759500Y-22682000D01*
X74763500Y-22677000D01*
X74768500Y-22673000D01*
X74774500Y-22669000D01*
X74779500Y-22665000D01*
X74784500Y-22662000D01*
X74790500Y-22659000D01*
X74796500Y-22656000D01*
X74802500Y-22653000D01*
X74808500Y-22651000D01*
X74815500Y-22649000D01*
X74821500Y-22648000D01*
X74827500Y-22647000D01*
X74834500Y-22646000D01*
X74840500Y-22645000D01*
X74847500Y-22645000D01*
X75287500Y-22645000D01*
X75294500Y-22645000D01*
X75300500Y-22646000D01*
G37*
X73802500Y-22360000D02*
X74002500Y-22360000D01*
X74009500Y-22360000D01*
X74015500Y-22361000D01*
X74022500Y-22362000D01*
X74028500Y-22363000D01*
X74034500Y-22364000D01*
X74041500Y-22366000D01*
X74047500Y-22368000D01*
X74053500Y-22371000D01*
X74059500Y-22374000D01*
X74065500Y-22377000D01*
X74070500Y-22380000D01*
X74075500Y-22384000D01*
X74081500Y-22388000D01*
X74086500Y-22392000D01*
X74090500Y-22397000D01*
X74095500Y-22401000D01*
X74099500Y-22406000D01*
X74103500Y-22412000D01*
X74107500Y-22417000D01*
X74110500Y-22422000D01*
X74113500Y-22428000D01*
X74116500Y-22434000D01*
X74119500Y-22440000D01*
X74121500Y-22446000D01*
X74123500Y-22453000D01*
X74124500Y-22459000D01*
X74125500Y-22465000D01*
X74126500Y-22472000D01*
X74127500Y-22478000D01*
X74127500Y-22485000D01*
X74127500Y-22925000D01*
X74127500Y-22932000D01*
X74126500Y-22938000D01*
X74125500Y-22945000D01*
X74124500Y-22951000D01*
X74123500Y-22957000D01*
X74121500Y-22964000D01*
X74119500Y-22970000D01*
X74116500Y-22976000D01*
X74113500Y-22982000D01*
X74110500Y-22988000D01*
X74107500Y-22993000D01*
X74103500Y-22998000D01*
X74099500Y-23004000D01*
X74095500Y-23009000D01*
X74090500Y-23013000D01*
X74086500Y-23018000D01*
X74081500Y-23022000D01*
X74075500Y-23026000D01*
X74070500Y-23030000D01*
X74065500Y-23033000D01*
X74059500Y-23036000D01*
X74053500Y-23039000D01*
X74047500Y-23042000D01*
X74041500Y-23044000D01*
X74034500Y-23046000D01*
X74028500Y-23047000D01*
X74022500Y-23048000D01*
X74015500Y-23049000D01*
X74009500Y-23050000D01*
X74002500Y-23050000D01*
X73802500Y-23050000D01*
X73795500Y-23050000D01*
X73789500Y-23049000D01*
X73782500Y-23048000D01*
X73776500Y-23047000D01*
X73770500Y-23046000D01*
X73763500Y-23044000D01*
X73757500Y-23042000D01*
X73751500Y-23039000D01*
X73745500Y-23036000D01*
X73739500Y-23033000D01*
X73734500Y-23030000D01*
X73729500Y-23026000D01*
X73723500Y-23022000D01*
X73718500Y-23018000D01*
X73714500Y-23013000D01*
X73709500Y-23009000D01*
X73705500Y-23004000D01*
X73701500Y-22998000D01*
X73697500Y-22993000D01*
X73694500Y-22988000D01*
X73691500Y-22982000D01*
X73688500Y-22976000D01*
X73685500Y-22970000D01*
X73683500Y-22964000D01*
X73681500Y-22957000D01*
X73680500Y-22951000D01*
X73679500Y-22945000D01*
X73678500Y-22938000D01*
X73677500Y-22932000D01*
X73677500Y-22925000D01*
X73677500Y-22485000D01*
X73677500Y-22478000D01*
X73678500Y-22472000D01*
X73679500Y-22465000D01*
X73680500Y-22459000D01*
X73681500Y-22453000D01*
X73683500Y-22446000D01*
X73685500Y-22440000D01*
X73688500Y-22434000D01*
X73691500Y-22428000D01*
X73694500Y-22422000D01*
X73697500Y-22417000D01*
X73701500Y-22412000D01*
X73705500Y-22406000D01*
X73709500Y-22401000D01*
X73714500Y-22397000D01*
X73718500Y-22392000D01*
X73723500Y-22388000D01*
X73729500Y-22384000D01*
X73734500Y-22380000D01*
X73740500Y-22377000D01*
X73745500Y-22374000D01*
X73751500Y-22371000D01*
X73757500Y-22368000D01*
X73763500Y-22366000D01*
X73770500Y-22364000D01*
X73776500Y-22363000D01*
X73782500Y-22362000D01*
X73789500Y-22361000D01*
X73795500Y-22360000D01*
X73802500Y-22360000D01*
G36*
X74015500Y-22361000D02*
G01*
X74022500Y-22362000D01*
X74028500Y-22363000D01*
X74034500Y-22364000D01*
X74041500Y-22366000D01*
X74047500Y-22368000D01*
X74053500Y-22371000D01*
X74059500Y-22374000D01*
X74065500Y-22377000D01*
X74070500Y-22380000D01*
X74075500Y-22384000D01*
X74081500Y-22388000D01*
X74086500Y-22392000D01*
X74090500Y-22397000D01*
X74095500Y-22401000D01*
X74099500Y-22406000D01*
X74103500Y-22412000D01*
X74107500Y-22417000D01*
X74110500Y-22422000D01*
X74113500Y-22428000D01*
X74116500Y-22434000D01*
X74119500Y-22440000D01*
X74121500Y-22446000D01*
X74123500Y-22453000D01*
X74124500Y-22459000D01*
X74125500Y-22465000D01*
X74126500Y-22472000D01*
X74127500Y-22478000D01*
X74127500Y-22485000D01*
X74127500Y-22925000D01*
X74127500Y-22932000D01*
X74126500Y-22938000D01*
X74125500Y-22945000D01*
X74124500Y-22951000D01*
X74123500Y-22957000D01*
X74121500Y-22964000D01*
X74119500Y-22970000D01*
X74116500Y-22976000D01*
X74113500Y-22982000D01*
X74110500Y-22988000D01*
X74107500Y-22993000D01*
X74103500Y-22998000D01*
X74099500Y-23004000D01*
X74095500Y-23009000D01*
X74090500Y-23013000D01*
X74086500Y-23018000D01*
X74081500Y-23022000D01*
X74075500Y-23026000D01*
X74070500Y-23030000D01*
X74065500Y-23033000D01*
X74059500Y-23036000D01*
X74053500Y-23039000D01*
X74047500Y-23042000D01*
X74041500Y-23044000D01*
X74034500Y-23046000D01*
X74028500Y-23047000D01*
X74022500Y-23048000D01*
X74015500Y-23049000D01*
X74009500Y-23050000D01*
X74002500Y-23050000D01*
X73802500Y-23050000D01*
X73795500Y-23050000D01*
X73789500Y-23049000D01*
X73782500Y-23048000D01*
X73776500Y-23047000D01*
X73770500Y-23046000D01*
X73763500Y-23044000D01*
X73757500Y-23042000D01*
X73751500Y-23039000D01*
X73745500Y-23036000D01*
X73739500Y-23033000D01*
X73734500Y-23030000D01*
X73729500Y-23026000D01*
X73723500Y-23022000D01*
X73718500Y-23018000D01*
X73714500Y-23013000D01*
X73709500Y-23009000D01*
X73705500Y-23004000D01*
X73701500Y-22998000D01*
X73697500Y-22993000D01*
X73694500Y-22988000D01*
X73691500Y-22982000D01*
X73688500Y-22976000D01*
X73685500Y-22970000D01*
X73683500Y-22964000D01*
X73681500Y-22957000D01*
X73680500Y-22951000D01*
X73679500Y-22945000D01*
X73678500Y-22938000D01*
X73677500Y-22932000D01*
X73677500Y-22925000D01*
X73677500Y-22485000D01*
X73677500Y-22478000D01*
X73678500Y-22472000D01*
X73679500Y-22465000D01*
X73680500Y-22459000D01*
X73681500Y-22453000D01*
X73683500Y-22446000D01*
X73685500Y-22440000D01*
X73688500Y-22434000D01*
X73691500Y-22428000D01*
X73694500Y-22422000D01*
X73697500Y-22417000D01*
X73701500Y-22412000D01*
X73705500Y-22406000D01*
X73709500Y-22401000D01*
X73714500Y-22397000D01*
X73718500Y-22392000D01*
X73723500Y-22388000D01*
X73729500Y-22384000D01*
X73734500Y-22380000D01*
X73740500Y-22377000D01*
X73745500Y-22374000D01*
X73751500Y-22371000D01*
X73757500Y-22368000D01*
X73763500Y-22366000D01*
X73770500Y-22364000D01*
X73776500Y-22363000D01*
X73782500Y-22362000D01*
X73789500Y-22361000D01*
X73795500Y-22360000D01*
X73802500Y-22360000D01*
X74002500Y-22360000D01*
X74009500Y-22360000D01*
X74015500Y-22361000D01*
G37*
X73302500Y-22360000D02*
X73502500Y-22360000D01*
X73509500Y-22360000D01*
X73515500Y-22361000D01*
X73522500Y-22362000D01*
X73528500Y-22363000D01*
X73534500Y-22364000D01*
X73541500Y-22366000D01*
X73547500Y-22368000D01*
X73553500Y-22371000D01*
X73559500Y-22374000D01*
X73564500Y-22377000D01*
X73570500Y-22380000D01*
X73575500Y-22384000D01*
X73581500Y-22388000D01*
X73586500Y-22392000D01*
X73590500Y-22397000D01*
X73595500Y-22401000D01*
X73599500Y-22406000D01*
X73603500Y-22412000D01*
X73607500Y-22417000D01*
X73610500Y-22422000D01*
X73613500Y-22428000D01*
X73616500Y-22434000D01*
X73619500Y-22440000D01*
X73621500Y-22446000D01*
X73623500Y-22453000D01*
X73624500Y-22459000D01*
X73625500Y-22465000D01*
X73626500Y-22472000D01*
X73627500Y-22478000D01*
X73627500Y-22485000D01*
X73627500Y-22925000D01*
X73627500Y-22932000D01*
X73626500Y-22938000D01*
X73625500Y-22945000D01*
X73624500Y-22951000D01*
X73623500Y-22957000D01*
X73621500Y-22964000D01*
X73619500Y-22970000D01*
X73616500Y-22976000D01*
X73613500Y-22982000D01*
X73610500Y-22988000D01*
X73607500Y-22993000D01*
X73603500Y-22998000D01*
X73599500Y-23004000D01*
X73595500Y-23009000D01*
X73590500Y-23013000D01*
X73586500Y-23018000D01*
X73581500Y-23022000D01*
X73575500Y-23026000D01*
X73570500Y-23030000D01*
X73564500Y-23033000D01*
X73559500Y-23036000D01*
X73553500Y-23039000D01*
X73547500Y-23042000D01*
X73541500Y-23044000D01*
X73534500Y-23046000D01*
X73528500Y-23047000D01*
X73522500Y-23048000D01*
X73515500Y-23049000D01*
X73509500Y-23050000D01*
X73502500Y-23050000D01*
X73302500Y-23050000D01*
X73295500Y-23050000D01*
X73289500Y-23049000D01*
X73282500Y-23048000D01*
X73276500Y-23047000D01*
X73270500Y-23046000D01*
X73263500Y-23044000D01*
X73257500Y-23042000D01*
X73251500Y-23039000D01*
X73245500Y-23036000D01*
X73239500Y-23033000D01*
X73234500Y-23030000D01*
X73229500Y-23026000D01*
X73223500Y-23022000D01*
X73218500Y-23018000D01*
X73214500Y-23013000D01*
X73209500Y-23009000D01*
X73205500Y-23004000D01*
X73201500Y-22998000D01*
X73197500Y-22993000D01*
X73194500Y-22988000D01*
X73191500Y-22982000D01*
X73188500Y-22976000D01*
X73185500Y-22970000D01*
X73183500Y-22964000D01*
X73181500Y-22957000D01*
X73180500Y-22951000D01*
X73179500Y-22945000D01*
X73178500Y-22938000D01*
X73177500Y-22932000D01*
X73177500Y-22925000D01*
X73177500Y-22485000D01*
X73177500Y-22478000D01*
X73178500Y-22472000D01*
X73179500Y-22465000D01*
X73180500Y-22459000D01*
X73181500Y-22453000D01*
X73183500Y-22446000D01*
X73185500Y-22440000D01*
X73188500Y-22434000D01*
X73191500Y-22428000D01*
X73194500Y-22422000D01*
X73197500Y-22417000D01*
X73201500Y-22412000D01*
X73205500Y-22406000D01*
X73209500Y-22401000D01*
X73214500Y-22397000D01*
X73218500Y-22392000D01*
X73223500Y-22388000D01*
X73229500Y-22384000D01*
X73234500Y-22380000D01*
X73240500Y-22377000D01*
X73245500Y-22374000D01*
X73251500Y-22371000D01*
X73257500Y-22368000D01*
X73263500Y-22366000D01*
X73270500Y-22364000D01*
X73276500Y-22363000D01*
X73282500Y-22362000D01*
X73289500Y-22361000D01*
X73295500Y-22360000D01*
X73302500Y-22360000D01*
G36*
X73515500Y-22361000D02*
G01*
X73522500Y-22362000D01*
X73528500Y-22363000D01*
X73534500Y-22364000D01*
X73541500Y-22366000D01*
X73547500Y-22368000D01*
X73553500Y-22371000D01*
X73559500Y-22374000D01*
X73564500Y-22377000D01*
X73570500Y-22380000D01*
X73575500Y-22384000D01*
X73581500Y-22388000D01*
X73586500Y-22392000D01*
X73590500Y-22397000D01*
X73595500Y-22401000D01*
X73599500Y-22406000D01*
X73603500Y-22412000D01*
X73607500Y-22417000D01*
X73610500Y-22422000D01*
X73613500Y-22428000D01*
X73616500Y-22434000D01*
X73619500Y-22440000D01*
X73621500Y-22446000D01*
X73623500Y-22453000D01*
X73624500Y-22459000D01*
X73625500Y-22465000D01*
X73626500Y-22472000D01*
X73627500Y-22478000D01*
X73627500Y-22485000D01*
X73627500Y-22925000D01*
X73627500Y-22932000D01*
X73626500Y-22938000D01*
X73625500Y-22945000D01*
X73624500Y-22951000D01*
X73623500Y-22957000D01*
X73621500Y-22964000D01*
X73619500Y-22970000D01*
X73616500Y-22976000D01*
X73613500Y-22982000D01*
X73610500Y-22988000D01*
X73607500Y-22993000D01*
X73603500Y-22998000D01*
X73599500Y-23004000D01*
X73595500Y-23009000D01*
X73590500Y-23013000D01*
X73586500Y-23018000D01*
X73581500Y-23022000D01*
X73575500Y-23026000D01*
X73570500Y-23030000D01*
X73564500Y-23033000D01*
X73559500Y-23036000D01*
X73553500Y-23039000D01*
X73547500Y-23042000D01*
X73541500Y-23044000D01*
X73534500Y-23046000D01*
X73528500Y-23047000D01*
X73522500Y-23048000D01*
X73515500Y-23049000D01*
X73509500Y-23050000D01*
X73502500Y-23050000D01*
X73302500Y-23050000D01*
X73295500Y-23050000D01*
X73289500Y-23049000D01*
X73282500Y-23048000D01*
X73276500Y-23047000D01*
X73270500Y-23046000D01*
X73263500Y-23044000D01*
X73257500Y-23042000D01*
X73251500Y-23039000D01*
X73245500Y-23036000D01*
X73239500Y-23033000D01*
X73234500Y-23030000D01*
X73229500Y-23026000D01*
X73223500Y-23022000D01*
X73218500Y-23018000D01*
X73214500Y-23013000D01*
X73209500Y-23009000D01*
X73205500Y-23004000D01*
X73201500Y-22998000D01*
X73197500Y-22993000D01*
X73194500Y-22988000D01*
X73191500Y-22982000D01*
X73188500Y-22976000D01*
X73185500Y-22970000D01*
X73183500Y-22964000D01*
X73181500Y-22957000D01*
X73180500Y-22951000D01*
X73179500Y-22945000D01*
X73178500Y-22938000D01*
X73177500Y-22932000D01*
X73177500Y-22925000D01*
X73177500Y-22485000D01*
X73177500Y-22478000D01*
X73178500Y-22472000D01*
X73179500Y-22465000D01*
X73180500Y-22459000D01*
X73181500Y-22453000D01*
X73183500Y-22446000D01*
X73185500Y-22440000D01*
X73188500Y-22434000D01*
X73191500Y-22428000D01*
X73194500Y-22422000D01*
X73197500Y-22417000D01*
X73201500Y-22412000D01*
X73205500Y-22406000D01*
X73209500Y-22401000D01*
X73214500Y-22397000D01*
X73218500Y-22392000D01*
X73223500Y-22388000D01*
X73229500Y-22384000D01*
X73234500Y-22380000D01*
X73240500Y-22377000D01*
X73245500Y-22374000D01*
X73251500Y-22371000D01*
X73257500Y-22368000D01*
X73263500Y-22366000D01*
X73270500Y-22364000D01*
X73276500Y-22363000D01*
X73282500Y-22362000D01*
X73289500Y-22361000D01*
X73295500Y-22360000D01*
X73302500Y-22360000D01*
X73502500Y-22360000D01*
X73509500Y-22360000D01*
X73515500Y-22361000D01*
G37*
X74302500Y-22360000D02*
X74502500Y-22360000D01*
X74509500Y-22360000D01*
X74515500Y-22361000D01*
X74522500Y-22362000D01*
X74528500Y-22363000D01*
X74534500Y-22364000D01*
X74541500Y-22366000D01*
X74547500Y-22368000D01*
X74553500Y-22371000D01*
X74559500Y-22374000D01*
X74564500Y-22377000D01*
X74570500Y-22380000D01*
X74575500Y-22384000D01*
X74581500Y-22388000D01*
X74586500Y-22392000D01*
X74590500Y-22397000D01*
X74595500Y-22401000D01*
X74599500Y-22406000D01*
X74603500Y-22412000D01*
X74607500Y-22417000D01*
X74610500Y-22422000D01*
X74613500Y-22428000D01*
X74616500Y-22434000D01*
X74619500Y-22440000D01*
X74621500Y-22446000D01*
X74623500Y-22453000D01*
X74624500Y-22459000D01*
X74625500Y-22465000D01*
X74626500Y-22472000D01*
X74627500Y-22478000D01*
X74627500Y-22485000D01*
X74627500Y-22925000D01*
X74627500Y-22932000D01*
X74626500Y-22938000D01*
X74625500Y-22945000D01*
X74624500Y-22951000D01*
X74623500Y-22957000D01*
X74621500Y-22964000D01*
X74619500Y-22970000D01*
X74616500Y-22976000D01*
X74613500Y-22982000D01*
X74610500Y-22988000D01*
X74607500Y-22993000D01*
X74603500Y-22998000D01*
X74599500Y-23004000D01*
X74595500Y-23009000D01*
X74590500Y-23013000D01*
X74586500Y-23018000D01*
X74581500Y-23022000D01*
X74575500Y-23026000D01*
X74570500Y-23030000D01*
X74564500Y-23033000D01*
X74559500Y-23036000D01*
X74553500Y-23039000D01*
X74547500Y-23042000D01*
X74541500Y-23044000D01*
X74534500Y-23046000D01*
X74528500Y-23047000D01*
X74522500Y-23048000D01*
X74515500Y-23049000D01*
X74509500Y-23050000D01*
X74502500Y-23050000D01*
X74302500Y-23050000D01*
X74295500Y-23050000D01*
X74289500Y-23049000D01*
X74282500Y-23048000D01*
X74276500Y-23047000D01*
X74270500Y-23046000D01*
X74263500Y-23044000D01*
X74257500Y-23042000D01*
X74251500Y-23039000D01*
X74245500Y-23036000D01*
X74239500Y-23033000D01*
X74234500Y-23030000D01*
X74229500Y-23026000D01*
X74223500Y-23022000D01*
X74218500Y-23018000D01*
X74214500Y-23013000D01*
X74209500Y-23009000D01*
X74205500Y-23004000D01*
X74201500Y-22998000D01*
X74197500Y-22993000D01*
X74194500Y-22988000D01*
X74191500Y-22982000D01*
X74188500Y-22976000D01*
X74185500Y-22970000D01*
X74183500Y-22964000D01*
X74181500Y-22957000D01*
X74180500Y-22951000D01*
X74179500Y-22945000D01*
X74178500Y-22938000D01*
X74177500Y-22932000D01*
X74177500Y-22925000D01*
X74177500Y-22485000D01*
X74177500Y-22478000D01*
X74178500Y-22472000D01*
X74179500Y-22465000D01*
X74180500Y-22459000D01*
X74181500Y-22453000D01*
X74183500Y-22446000D01*
X74185500Y-22440000D01*
X74188500Y-22434000D01*
X74191500Y-22428000D01*
X74194500Y-22422000D01*
X74197500Y-22417000D01*
X74201500Y-22412000D01*
X74205500Y-22406000D01*
X74209500Y-22401000D01*
X74214500Y-22397000D01*
X74218500Y-22392000D01*
X74223500Y-22388000D01*
X74229500Y-22384000D01*
X74234500Y-22380000D01*
X74240500Y-22377000D01*
X74245500Y-22374000D01*
X74251500Y-22371000D01*
X74257500Y-22368000D01*
X74263500Y-22366000D01*
X74270500Y-22364000D01*
X74276500Y-22363000D01*
X74282500Y-22362000D01*
X74289500Y-22361000D01*
X74295500Y-22360000D01*
X74302500Y-22360000D01*
G36*
X74515500Y-22361000D02*
G01*
X74522500Y-22362000D01*
X74528500Y-22363000D01*
X74534500Y-22364000D01*
X74541500Y-22366000D01*
X74547500Y-22368000D01*
X74553500Y-22371000D01*
X74559500Y-22374000D01*
X74564500Y-22377000D01*
X74570500Y-22380000D01*
X74575500Y-22384000D01*
X74581500Y-22388000D01*
X74586500Y-22392000D01*
X74590500Y-22397000D01*
X74595500Y-22401000D01*
X74599500Y-22406000D01*
X74603500Y-22412000D01*
X74607500Y-22417000D01*
X74610500Y-22422000D01*
X74613500Y-22428000D01*
X74616500Y-22434000D01*
X74619500Y-22440000D01*
X74621500Y-22446000D01*
X74623500Y-22453000D01*
X74624500Y-22459000D01*
X74625500Y-22465000D01*
X74626500Y-22472000D01*
X74627500Y-22478000D01*
X74627500Y-22485000D01*
X74627500Y-22925000D01*
X74627500Y-22932000D01*
X74626500Y-22938000D01*
X74625500Y-22945000D01*
X74624500Y-22951000D01*
X74623500Y-22957000D01*
X74621500Y-22964000D01*
X74619500Y-22970000D01*
X74616500Y-22976000D01*
X74613500Y-22982000D01*
X74610500Y-22988000D01*
X74607500Y-22993000D01*
X74603500Y-22998000D01*
X74599500Y-23004000D01*
X74595500Y-23009000D01*
X74590500Y-23013000D01*
X74586500Y-23018000D01*
X74581500Y-23022000D01*
X74575500Y-23026000D01*
X74570500Y-23030000D01*
X74564500Y-23033000D01*
X74559500Y-23036000D01*
X74553500Y-23039000D01*
X74547500Y-23042000D01*
X74541500Y-23044000D01*
X74534500Y-23046000D01*
X74528500Y-23047000D01*
X74522500Y-23048000D01*
X74515500Y-23049000D01*
X74509500Y-23050000D01*
X74502500Y-23050000D01*
X74302500Y-23050000D01*
X74295500Y-23050000D01*
X74289500Y-23049000D01*
X74282500Y-23048000D01*
X74276500Y-23047000D01*
X74270500Y-23046000D01*
X74263500Y-23044000D01*
X74257500Y-23042000D01*
X74251500Y-23039000D01*
X74245500Y-23036000D01*
X74239500Y-23033000D01*
X74234500Y-23030000D01*
X74229500Y-23026000D01*
X74223500Y-23022000D01*
X74218500Y-23018000D01*
X74214500Y-23013000D01*
X74209500Y-23009000D01*
X74205500Y-23004000D01*
X74201500Y-22998000D01*
X74197500Y-22993000D01*
X74194500Y-22988000D01*
X74191500Y-22982000D01*
X74188500Y-22976000D01*
X74185500Y-22970000D01*
X74183500Y-22964000D01*
X74181500Y-22957000D01*
X74180500Y-22951000D01*
X74179500Y-22945000D01*
X74178500Y-22938000D01*
X74177500Y-22932000D01*
X74177500Y-22925000D01*
X74177500Y-22485000D01*
X74177500Y-22478000D01*
X74178500Y-22472000D01*
X74179500Y-22465000D01*
X74180500Y-22459000D01*
X74181500Y-22453000D01*
X74183500Y-22446000D01*
X74185500Y-22440000D01*
X74188500Y-22434000D01*
X74191500Y-22428000D01*
X74194500Y-22422000D01*
X74197500Y-22417000D01*
X74201500Y-22412000D01*
X74205500Y-22406000D01*
X74209500Y-22401000D01*
X74214500Y-22397000D01*
X74218500Y-22392000D01*
X74223500Y-22388000D01*
X74229500Y-22384000D01*
X74234500Y-22380000D01*
X74240500Y-22377000D01*
X74245500Y-22374000D01*
X74251500Y-22371000D01*
X74257500Y-22368000D01*
X74263500Y-22366000D01*
X74270500Y-22364000D01*
X74276500Y-22363000D01*
X74282500Y-22362000D01*
X74289500Y-22361000D01*
X74295500Y-22360000D01*
X74302500Y-22360000D01*
X74502500Y-22360000D01*
X74509500Y-22360000D01*
X74515500Y-22361000D01*
G37*
X73802500Y-24190000D02*
X74002500Y-24190000D01*
X74009500Y-24190000D01*
X74015500Y-24191000D01*
X74022500Y-24192000D01*
X74028500Y-24193000D01*
X74034500Y-24194000D01*
X74041500Y-24196000D01*
X74047500Y-24198000D01*
X74053500Y-24201000D01*
X74059500Y-24204000D01*
X74065500Y-24207000D01*
X74070500Y-24210000D01*
X74075500Y-24214000D01*
X74081500Y-24218000D01*
X74086500Y-24222000D01*
X74090500Y-24227000D01*
X74095500Y-24231000D01*
X74099500Y-24236000D01*
X74103500Y-24242000D01*
X74107500Y-24247000D01*
X74110500Y-24252000D01*
X74113500Y-24258000D01*
X74116500Y-24264000D01*
X74119500Y-24270000D01*
X74121500Y-24276000D01*
X74123500Y-24283000D01*
X74124500Y-24289000D01*
X74125500Y-24295000D01*
X74126500Y-24302000D01*
X74127500Y-24308000D01*
X74127500Y-24315000D01*
X74127500Y-24755000D01*
X74127500Y-24762000D01*
X74126500Y-24768000D01*
X74125500Y-24775000D01*
X74124500Y-24781000D01*
X74123500Y-24787000D01*
X74121500Y-24794000D01*
X74119500Y-24800000D01*
X74116500Y-24806000D01*
X74113500Y-24812000D01*
X74110500Y-24818000D01*
X74107500Y-24823000D01*
X74103500Y-24828000D01*
X74099500Y-24834000D01*
X74095500Y-24839000D01*
X74090500Y-24843000D01*
X74086500Y-24848000D01*
X74081500Y-24852000D01*
X74075500Y-24856000D01*
X74070500Y-24860000D01*
X74065500Y-24863000D01*
X74059500Y-24866000D01*
X74053500Y-24869000D01*
X74047500Y-24872000D01*
X74041500Y-24874000D01*
X74034500Y-24876000D01*
X74028500Y-24877000D01*
X74022500Y-24878000D01*
X74015500Y-24879000D01*
X74009500Y-24880000D01*
X74002500Y-24880000D01*
X73802500Y-24880000D01*
X73795500Y-24880000D01*
X73789500Y-24879000D01*
X73782500Y-24878000D01*
X73776500Y-24877000D01*
X73770500Y-24876000D01*
X73763500Y-24874000D01*
X73757500Y-24872000D01*
X73751500Y-24869000D01*
X73745500Y-24866000D01*
X73739500Y-24863000D01*
X73734500Y-24860000D01*
X73729500Y-24856000D01*
X73723500Y-24852000D01*
X73718500Y-24848000D01*
X73714500Y-24843000D01*
X73709500Y-24839000D01*
X73705500Y-24834000D01*
X73701500Y-24828000D01*
X73697500Y-24823000D01*
X73694500Y-24818000D01*
X73691500Y-24812000D01*
X73688500Y-24806000D01*
X73685500Y-24800000D01*
X73683500Y-24794000D01*
X73681500Y-24787000D01*
X73680500Y-24781000D01*
X73679500Y-24775000D01*
X73678500Y-24768000D01*
X73677500Y-24762000D01*
X73677500Y-24755000D01*
X73677500Y-24315000D01*
X73677500Y-24308000D01*
X73678500Y-24302000D01*
X73679500Y-24295000D01*
X73680500Y-24289000D01*
X73681500Y-24283000D01*
X73683500Y-24276000D01*
X73685500Y-24270000D01*
X73688500Y-24264000D01*
X73691500Y-24258000D01*
X73694500Y-24252000D01*
X73697500Y-24247000D01*
X73701500Y-24242000D01*
X73705500Y-24236000D01*
X73709500Y-24231000D01*
X73714500Y-24227000D01*
X73718500Y-24222000D01*
X73723500Y-24218000D01*
X73729500Y-24214000D01*
X73734500Y-24210000D01*
X73740500Y-24207000D01*
X73745500Y-24204000D01*
X73751500Y-24201000D01*
X73757500Y-24198000D01*
X73763500Y-24196000D01*
X73770500Y-24194000D01*
X73776500Y-24193000D01*
X73782500Y-24192000D01*
X73789500Y-24191000D01*
X73795500Y-24190000D01*
X73802500Y-24190000D01*
G36*
X74015500Y-24191000D02*
G01*
X74022500Y-24192000D01*
X74028500Y-24193000D01*
X74034500Y-24194000D01*
X74041500Y-24196000D01*
X74047500Y-24198000D01*
X74053500Y-24201000D01*
X74059500Y-24204000D01*
X74065500Y-24207000D01*
X74070500Y-24210000D01*
X74075500Y-24214000D01*
X74081500Y-24218000D01*
X74086500Y-24222000D01*
X74090500Y-24227000D01*
X74095500Y-24231000D01*
X74099500Y-24236000D01*
X74103500Y-24242000D01*
X74107500Y-24247000D01*
X74110500Y-24252000D01*
X74113500Y-24258000D01*
X74116500Y-24264000D01*
X74119500Y-24270000D01*
X74121500Y-24276000D01*
X74123500Y-24283000D01*
X74124500Y-24289000D01*
X74125500Y-24295000D01*
X74126500Y-24302000D01*
X74127500Y-24308000D01*
X74127500Y-24315000D01*
X74127500Y-24755000D01*
X74127500Y-24762000D01*
X74126500Y-24768000D01*
X74125500Y-24775000D01*
X74124500Y-24781000D01*
X74123500Y-24787000D01*
X74121500Y-24794000D01*
X74119500Y-24800000D01*
X74116500Y-24806000D01*
X74113500Y-24812000D01*
X74110500Y-24818000D01*
X74107500Y-24823000D01*
X74103500Y-24828000D01*
X74099500Y-24834000D01*
X74095500Y-24839000D01*
X74090500Y-24843000D01*
X74086500Y-24848000D01*
X74081500Y-24852000D01*
X74075500Y-24856000D01*
X74070500Y-24860000D01*
X74065500Y-24863000D01*
X74059500Y-24866000D01*
X74053500Y-24869000D01*
X74047500Y-24872000D01*
X74041500Y-24874000D01*
X74034500Y-24876000D01*
X74028500Y-24877000D01*
X74022500Y-24878000D01*
X74015500Y-24879000D01*
X74009500Y-24880000D01*
X74002500Y-24880000D01*
X73802500Y-24880000D01*
X73795500Y-24880000D01*
X73789500Y-24879000D01*
X73782500Y-24878000D01*
X73776500Y-24877000D01*
X73770500Y-24876000D01*
X73763500Y-24874000D01*
X73757500Y-24872000D01*
X73751500Y-24869000D01*
X73745500Y-24866000D01*
X73739500Y-24863000D01*
X73734500Y-24860000D01*
X73729500Y-24856000D01*
X73723500Y-24852000D01*
X73718500Y-24848000D01*
X73714500Y-24843000D01*
X73709500Y-24839000D01*
X73705500Y-24834000D01*
X73701500Y-24828000D01*
X73697500Y-24823000D01*
X73694500Y-24818000D01*
X73691500Y-24812000D01*
X73688500Y-24806000D01*
X73685500Y-24800000D01*
X73683500Y-24794000D01*
X73681500Y-24787000D01*
X73680500Y-24781000D01*
X73679500Y-24775000D01*
X73678500Y-24768000D01*
X73677500Y-24762000D01*
X73677500Y-24755000D01*
X73677500Y-24315000D01*
X73677500Y-24308000D01*
X73678500Y-24302000D01*
X73679500Y-24295000D01*
X73680500Y-24289000D01*
X73681500Y-24283000D01*
X73683500Y-24276000D01*
X73685500Y-24270000D01*
X73688500Y-24264000D01*
X73691500Y-24258000D01*
X73694500Y-24252000D01*
X73697500Y-24247000D01*
X73701500Y-24242000D01*
X73705500Y-24236000D01*
X73709500Y-24231000D01*
X73714500Y-24227000D01*
X73718500Y-24222000D01*
X73723500Y-24218000D01*
X73729500Y-24214000D01*
X73734500Y-24210000D01*
X73740500Y-24207000D01*
X73745500Y-24204000D01*
X73751500Y-24201000D01*
X73757500Y-24198000D01*
X73763500Y-24196000D01*
X73770500Y-24194000D01*
X73776500Y-24193000D01*
X73782500Y-24192000D01*
X73789500Y-24191000D01*
X73795500Y-24190000D01*
X73802500Y-24190000D01*
X74002500Y-24190000D01*
X74009500Y-24190000D01*
X74015500Y-24191000D01*
G37*
X73302500Y-24190000D02*
X73502500Y-24190000D01*
X73509500Y-24190000D01*
X73515500Y-24191000D01*
X73522500Y-24192000D01*
X73528500Y-24193000D01*
X73534500Y-24194000D01*
X73541500Y-24196000D01*
X73547500Y-24198000D01*
X73553500Y-24201000D01*
X73559500Y-24204000D01*
X73564500Y-24207000D01*
X73570500Y-24210000D01*
X73575500Y-24214000D01*
X73581500Y-24218000D01*
X73586500Y-24222000D01*
X73590500Y-24227000D01*
X73595500Y-24231000D01*
X73599500Y-24236000D01*
X73603500Y-24242000D01*
X73607500Y-24247000D01*
X73610500Y-24252000D01*
X73613500Y-24258000D01*
X73616500Y-24264000D01*
X73619500Y-24270000D01*
X73621500Y-24276000D01*
X73623500Y-24283000D01*
X73624500Y-24289000D01*
X73625500Y-24295000D01*
X73626500Y-24302000D01*
X73627500Y-24308000D01*
X73627500Y-24315000D01*
X73627500Y-24755000D01*
X73627500Y-24762000D01*
X73626500Y-24768000D01*
X73625500Y-24775000D01*
X73624500Y-24781000D01*
X73623500Y-24787000D01*
X73621500Y-24794000D01*
X73619500Y-24800000D01*
X73616500Y-24806000D01*
X73613500Y-24812000D01*
X73610500Y-24818000D01*
X73607500Y-24823000D01*
X73603500Y-24828000D01*
X73599500Y-24834000D01*
X73595500Y-24839000D01*
X73590500Y-24843000D01*
X73586500Y-24848000D01*
X73581500Y-24852000D01*
X73575500Y-24856000D01*
X73570500Y-24860000D01*
X73564500Y-24863000D01*
X73559500Y-24866000D01*
X73553500Y-24869000D01*
X73547500Y-24872000D01*
X73541500Y-24874000D01*
X73534500Y-24876000D01*
X73528500Y-24877000D01*
X73522500Y-24878000D01*
X73515500Y-24879000D01*
X73509500Y-24880000D01*
X73502500Y-24880000D01*
X73302500Y-24880000D01*
X73295500Y-24880000D01*
X73289500Y-24879000D01*
X73282500Y-24878000D01*
X73276500Y-24877000D01*
X73270500Y-24876000D01*
X73263500Y-24874000D01*
X73257500Y-24872000D01*
X73251500Y-24869000D01*
X73245500Y-24866000D01*
X73239500Y-24863000D01*
X73234500Y-24860000D01*
X73229500Y-24856000D01*
X73223500Y-24852000D01*
X73218500Y-24848000D01*
X73214500Y-24843000D01*
X73209500Y-24839000D01*
X73205500Y-24834000D01*
X73201500Y-24828000D01*
X73197500Y-24823000D01*
X73194500Y-24818000D01*
X73191500Y-24812000D01*
X73188500Y-24806000D01*
X73185500Y-24800000D01*
X73183500Y-24794000D01*
X73181500Y-24787000D01*
X73180500Y-24781000D01*
X73179500Y-24775000D01*
X73178500Y-24768000D01*
X73177500Y-24762000D01*
X73177500Y-24755000D01*
X73177500Y-24315000D01*
X73177500Y-24308000D01*
X73178500Y-24302000D01*
X73179500Y-24295000D01*
X73180500Y-24289000D01*
X73181500Y-24283000D01*
X73183500Y-24276000D01*
X73185500Y-24270000D01*
X73188500Y-24264000D01*
X73191500Y-24258000D01*
X73194500Y-24252000D01*
X73197500Y-24247000D01*
X73201500Y-24242000D01*
X73205500Y-24236000D01*
X73209500Y-24231000D01*
X73214500Y-24227000D01*
X73218500Y-24222000D01*
X73223500Y-24218000D01*
X73229500Y-24214000D01*
X73234500Y-24210000D01*
X73240500Y-24207000D01*
X73245500Y-24204000D01*
X73251500Y-24201000D01*
X73257500Y-24198000D01*
X73263500Y-24196000D01*
X73270500Y-24194000D01*
X73276500Y-24193000D01*
X73282500Y-24192000D01*
X73289500Y-24191000D01*
X73295500Y-24190000D01*
X73302500Y-24190000D01*
G36*
X73515500Y-24191000D02*
G01*
X73522500Y-24192000D01*
X73528500Y-24193000D01*
X73534500Y-24194000D01*
X73541500Y-24196000D01*
X73547500Y-24198000D01*
X73553500Y-24201000D01*
X73559500Y-24204000D01*
X73564500Y-24207000D01*
X73570500Y-24210000D01*
X73575500Y-24214000D01*
X73581500Y-24218000D01*
X73586500Y-24222000D01*
X73590500Y-24227000D01*
X73595500Y-24231000D01*
X73599500Y-24236000D01*
X73603500Y-24242000D01*
X73607500Y-24247000D01*
X73610500Y-24252000D01*
X73613500Y-24258000D01*
X73616500Y-24264000D01*
X73619500Y-24270000D01*
X73621500Y-24276000D01*
X73623500Y-24283000D01*
X73624500Y-24289000D01*
X73625500Y-24295000D01*
X73626500Y-24302000D01*
X73627500Y-24308000D01*
X73627500Y-24315000D01*
X73627500Y-24755000D01*
X73627500Y-24762000D01*
X73626500Y-24768000D01*
X73625500Y-24775000D01*
X73624500Y-24781000D01*
X73623500Y-24787000D01*
X73621500Y-24794000D01*
X73619500Y-24800000D01*
X73616500Y-24806000D01*
X73613500Y-24812000D01*
X73610500Y-24818000D01*
X73607500Y-24823000D01*
X73603500Y-24828000D01*
X73599500Y-24834000D01*
X73595500Y-24839000D01*
X73590500Y-24843000D01*
X73586500Y-24848000D01*
X73581500Y-24852000D01*
X73575500Y-24856000D01*
X73570500Y-24860000D01*
X73564500Y-24863000D01*
X73559500Y-24866000D01*
X73553500Y-24869000D01*
X73547500Y-24872000D01*
X73541500Y-24874000D01*
X73534500Y-24876000D01*
X73528500Y-24877000D01*
X73522500Y-24878000D01*
X73515500Y-24879000D01*
X73509500Y-24880000D01*
X73502500Y-24880000D01*
X73302500Y-24880000D01*
X73295500Y-24880000D01*
X73289500Y-24879000D01*
X73282500Y-24878000D01*
X73276500Y-24877000D01*
X73270500Y-24876000D01*
X73263500Y-24874000D01*
X73257500Y-24872000D01*
X73251500Y-24869000D01*
X73245500Y-24866000D01*
X73239500Y-24863000D01*
X73234500Y-24860000D01*
X73229500Y-24856000D01*
X73223500Y-24852000D01*
X73218500Y-24848000D01*
X73214500Y-24843000D01*
X73209500Y-24839000D01*
X73205500Y-24834000D01*
X73201500Y-24828000D01*
X73197500Y-24823000D01*
X73194500Y-24818000D01*
X73191500Y-24812000D01*
X73188500Y-24806000D01*
X73185500Y-24800000D01*
X73183500Y-24794000D01*
X73181500Y-24787000D01*
X73180500Y-24781000D01*
X73179500Y-24775000D01*
X73178500Y-24768000D01*
X73177500Y-24762000D01*
X73177500Y-24755000D01*
X73177500Y-24315000D01*
X73177500Y-24308000D01*
X73178500Y-24302000D01*
X73179500Y-24295000D01*
X73180500Y-24289000D01*
X73181500Y-24283000D01*
X73183500Y-24276000D01*
X73185500Y-24270000D01*
X73188500Y-24264000D01*
X73191500Y-24258000D01*
X73194500Y-24252000D01*
X73197500Y-24247000D01*
X73201500Y-24242000D01*
X73205500Y-24236000D01*
X73209500Y-24231000D01*
X73214500Y-24227000D01*
X73218500Y-24222000D01*
X73223500Y-24218000D01*
X73229500Y-24214000D01*
X73234500Y-24210000D01*
X73240500Y-24207000D01*
X73245500Y-24204000D01*
X73251500Y-24201000D01*
X73257500Y-24198000D01*
X73263500Y-24196000D01*
X73270500Y-24194000D01*
X73276500Y-24193000D01*
X73282500Y-24192000D01*
X73289500Y-24191000D01*
X73295500Y-24190000D01*
X73302500Y-24190000D01*
X73502500Y-24190000D01*
X73509500Y-24190000D01*
X73515500Y-24191000D01*
G37*
X74302500Y-24190000D02*
X74502500Y-24190000D01*
X74509500Y-24190000D01*
X74515500Y-24191000D01*
X74522500Y-24192000D01*
X74528500Y-24193000D01*
X74534500Y-24194000D01*
X74541500Y-24196000D01*
X74547500Y-24198000D01*
X74553500Y-24201000D01*
X74559500Y-24204000D01*
X74564500Y-24207000D01*
X74570500Y-24210000D01*
X74575500Y-24214000D01*
X74581500Y-24218000D01*
X74586500Y-24222000D01*
X74590500Y-24227000D01*
X74595500Y-24231000D01*
X74599500Y-24236000D01*
X74603500Y-24242000D01*
X74607500Y-24247000D01*
X74610500Y-24252000D01*
X74613500Y-24258000D01*
X74616500Y-24264000D01*
X74619500Y-24270000D01*
X74621500Y-24276000D01*
X74623500Y-24283000D01*
X74624500Y-24289000D01*
X74625500Y-24295000D01*
X74626500Y-24302000D01*
X74627500Y-24308000D01*
X74627500Y-24315000D01*
X74627500Y-24755000D01*
X74627500Y-24762000D01*
X74626500Y-24768000D01*
X74625500Y-24775000D01*
X74624500Y-24781000D01*
X74623500Y-24787000D01*
X74621500Y-24794000D01*
X74619500Y-24800000D01*
X74616500Y-24806000D01*
X74613500Y-24812000D01*
X74610500Y-24818000D01*
X74607500Y-24823000D01*
X74603500Y-24828000D01*
X74599500Y-24834000D01*
X74595500Y-24839000D01*
X74590500Y-24843000D01*
X74586500Y-24848000D01*
X74581500Y-24852000D01*
X74575500Y-24856000D01*
X74570500Y-24860000D01*
X74564500Y-24863000D01*
X74559500Y-24866000D01*
X74553500Y-24869000D01*
X74547500Y-24872000D01*
X74541500Y-24874000D01*
X74534500Y-24876000D01*
X74528500Y-24877000D01*
X74522500Y-24878000D01*
X74515500Y-24879000D01*
X74509500Y-24880000D01*
X74502500Y-24880000D01*
X74302500Y-24880000D01*
X74295500Y-24880000D01*
X74289500Y-24879000D01*
X74282500Y-24878000D01*
X74276500Y-24877000D01*
X74270500Y-24876000D01*
X74263500Y-24874000D01*
X74257500Y-24872000D01*
X74251500Y-24869000D01*
X74245500Y-24866000D01*
X74239500Y-24863000D01*
X74234500Y-24860000D01*
X74229500Y-24856000D01*
X74223500Y-24852000D01*
X74218500Y-24848000D01*
X74214500Y-24843000D01*
X74209500Y-24839000D01*
X74205500Y-24834000D01*
X74201500Y-24828000D01*
X74197500Y-24823000D01*
X74194500Y-24818000D01*
X74191500Y-24812000D01*
X74188500Y-24806000D01*
X74185500Y-24800000D01*
X74183500Y-24794000D01*
X74181500Y-24787000D01*
X74180500Y-24781000D01*
X74179500Y-24775000D01*
X74178500Y-24768000D01*
X74177500Y-24762000D01*
X74177500Y-24755000D01*
X74177500Y-24315000D01*
X74177500Y-24308000D01*
X74178500Y-24302000D01*
X74179500Y-24295000D01*
X74180500Y-24289000D01*
X74181500Y-24283000D01*
X74183500Y-24276000D01*
X74185500Y-24270000D01*
X74188500Y-24264000D01*
X74191500Y-24258000D01*
X74194500Y-24252000D01*
X74197500Y-24247000D01*
X74201500Y-24242000D01*
X74205500Y-24236000D01*
X74209500Y-24231000D01*
X74214500Y-24227000D01*
X74218500Y-24222000D01*
X74223500Y-24218000D01*
X74229500Y-24214000D01*
X74234500Y-24210000D01*
X74240500Y-24207000D01*
X74245500Y-24204000D01*
X74251500Y-24201000D01*
X74257500Y-24198000D01*
X74263500Y-24196000D01*
X74270500Y-24194000D01*
X74276500Y-24193000D01*
X74282500Y-24192000D01*
X74289500Y-24191000D01*
X74295500Y-24190000D01*
X74302500Y-24190000D01*
G36*
X74515500Y-24191000D02*
G01*
X74522500Y-24192000D01*
X74528500Y-24193000D01*
X74534500Y-24194000D01*
X74541500Y-24196000D01*
X74547500Y-24198000D01*
X74553500Y-24201000D01*
X74559500Y-24204000D01*
X74564500Y-24207000D01*
X74570500Y-24210000D01*
X74575500Y-24214000D01*
X74581500Y-24218000D01*
X74586500Y-24222000D01*
X74590500Y-24227000D01*
X74595500Y-24231000D01*
X74599500Y-24236000D01*
X74603500Y-24242000D01*
X74607500Y-24247000D01*
X74610500Y-24252000D01*
X74613500Y-24258000D01*
X74616500Y-24264000D01*
X74619500Y-24270000D01*
X74621500Y-24276000D01*
X74623500Y-24283000D01*
X74624500Y-24289000D01*
X74625500Y-24295000D01*
X74626500Y-24302000D01*
X74627500Y-24308000D01*
X74627500Y-24315000D01*
X74627500Y-24755000D01*
X74627500Y-24762000D01*
X74626500Y-24768000D01*
X74625500Y-24775000D01*
X74624500Y-24781000D01*
X74623500Y-24787000D01*
X74621500Y-24794000D01*
X74619500Y-24800000D01*
X74616500Y-24806000D01*
X74613500Y-24812000D01*
X74610500Y-24818000D01*
X74607500Y-24823000D01*
X74603500Y-24828000D01*
X74599500Y-24834000D01*
X74595500Y-24839000D01*
X74590500Y-24843000D01*
X74586500Y-24848000D01*
X74581500Y-24852000D01*
X74575500Y-24856000D01*
X74570500Y-24860000D01*
X74564500Y-24863000D01*
X74559500Y-24866000D01*
X74553500Y-24869000D01*
X74547500Y-24872000D01*
X74541500Y-24874000D01*
X74534500Y-24876000D01*
X74528500Y-24877000D01*
X74522500Y-24878000D01*
X74515500Y-24879000D01*
X74509500Y-24880000D01*
X74502500Y-24880000D01*
X74302500Y-24880000D01*
X74295500Y-24880000D01*
X74289500Y-24879000D01*
X74282500Y-24878000D01*
X74276500Y-24877000D01*
X74270500Y-24876000D01*
X74263500Y-24874000D01*
X74257500Y-24872000D01*
X74251500Y-24869000D01*
X74245500Y-24866000D01*
X74239500Y-24863000D01*
X74234500Y-24860000D01*
X74229500Y-24856000D01*
X74223500Y-24852000D01*
X74218500Y-24848000D01*
X74214500Y-24843000D01*
X74209500Y-24839000D01*
X74205500Y-24834000D01*
X74201500Y-24828000D01*
X74197500Y-24823000D01*
X74194500Y-24818000D01*
X74191500Y-24812000D01*
X74188500Y-24806000D01*
X74185500Y-24800000D01*
X74183500Y-24794000D01*
X74181500Y-24787000D01*
X74180500Y-24781000D01*
X74179500Y-24775000D01*
X74178500Y-24768000D01*
X74177500Y-24762000D01*
X74177500Y-24755000D01*
X74177500Y-24315000D01*
X74177500Y-24308000D01*
X74178500Y-24302000D01*
X74179500Y-24295000D01*
X74180500Y-24289000D01*
X74181500Y-24283000D01*
X74183500Y-24276000D01*
X74185500Y-24270000D01*
X74188500Y-24264000D01*
X74191500Y-24258000D01*
X74194500Y-24252000D01*
X74197500Y-24247000D01*
X74201500Y-24242000D01*
X74205500Y-24236000D01*
X74209500Y-24231000D01*
X74214500Y-24227000D01*
X74218500Y-24222000D01*
X74223500Y-24218000D01*
X74229500Y-24214000D01*
X74234500Y-24210000D01*
X74240500Y-24207000D01*
X74245500Y-24204000D01*
X74251500Y-24201000D01*
X74257500Y-24198000D01*
X74263500Y-24196000D01*
X74270500Y-24194000D01*
X74276500Y-24193000D01*
X74282500Y-24192000D01*
X74289500Y-24191000D01*
X74295500Y-24190000D01*
X74302500Y-24190000D01*
X74502500Y-24190000D01*
X74509500Y-24190000D01*
X74515500Y-24191000D01*
G37*
%TO.C,Q_CL1*%
X73756000Y-68700000D02*
X73756000Y-63980000D01*
X78396000Y-63980000D01*
X78396000Y-64890000D01*
X77806000Y-64890000D01*
X77806000Y-65250000D01*
X78396000Y-65250000D01*
X78396000Y-66160000D01*
X77806000Y-66160000D01*
X77806000Y-66520000D01*
X78396000Y-66520000D01*
X78396000Y-67430000D01*
X77806000Y-67430000D01*
X77806000Y-67790000D01*
X78406000Y-67790000D01*
X78406000Y-68700000D01*
X73756000Y-68700000D01*
G36*
X78396000Y-64890000D02*
G01*
X77806000Y-64890000D01*
X77806000Y-65250000D01*
X78396000Y-65250000D01*
X78396000Y-66160000D01*
X77806000Y-66160000D01*
X77806000Y-66520000D01*
X78396000Y-66520000D01*
X78396000Y-67430000D01*
X77806000Y-67430000D01*
X77806000Y-67790000D01*
X78406000Y-67790000D01*
X78406000Y-68700000D01*
X73756000Y-68700000D01*
X73756000Y-63980000D01*
X78396000Y-63980000D01*
X78396000Y-64890000D01*
G37*
%TO.C,Q_BL1*%
X74066000Y-62400000D02*
X74066000Y-57680000D01*
X78706000Y-57680000D01*
X78706000Y-58590000D01*
X78116000Y-58590000D01*
X78116000Y-58950000D01*
X78706000Y-58950000D01*
X78706000Y-59860000D01*
X78116000Y-59860000D01*
X78116000Y-60220000D01*
X78706000Y-60220000D01*
X78706000Y-61130000D01*
X78116000Y-61130000D01*
X78116000Y-61490000D01*
X78716000Y-61490000D01*
X78716000Y-62400000D01*
X74066000Y-62400000D01*
G36*
X78706000Y-58590000D02*
G01*
X78116000Y-58590000D01*
X78116000Y-58950000D01*
X78706000Y-58950000D01*
X78706000Y-59860000D01*
X78116000Y-59860000D01*
X78116000Y-60220000D01*
X78706000Y-60220000D01*
X78706000Y-61130000D01*
X78116000Y-61130000D01*
X78116000Y-61490000D01*
X78716000Y-61490000D01*
X78716000Y-62400000D01*
X74066000Y-62400000D01*
X74066000Y-57680000D01*
X78706000Y-57680000D01*
X78706000Y-58590000D01*
G37*
%TO.C,Q_AL1*%
X73846000Y-56025000D02*
X73846000Y-51305000D01*
X78486000Y-51305000D01*
X78486000Y-52215000D01*
X77896000Y-52215000D01*
X77896000Y-52575000D01*
X78486000Y-52575000D01*
X78486000Y-53485000D01*
X77896000Y-53485000D01*
X77896000Y-53845000D01*
X78486000Y-53845000D01*
X78486000Y-54755000D01*
X77896000Y-54755000D01*
X77896000Y-55115000D01*
X78496000Y-55115000D01*
X78496000Y-56025000D01*
X73846000Y-56025000D01*
G36*
X78486000Y-52215000D02*
G01*
X77896000Y-52215000D01*
X77896000Y-52575000D01*
X78486000Y-52575000D01*
X78486000Y-53485000D01*
X77896000Y-53485000D01*
X77896000Y-53845000D01*
X78486000Y-53845000D01*
X78486000Y-54755000D01*
X77896000Y-54755000D01*
X77896000Y-55115000D01*
X78496000Y-55115000D01*
X78496000Y-56025000D01*
X73846000Y-56025000D01*
X73846000Y-51305000D01*
X78486000Y-51305000D01*
X78486000Y-52215000D01*
G37*
%TO.C,Q_AH1*%
X56845750Y-51920000D02*
X56845750Y-56640000D01*
X52205750Y-56640000D01*
X52205750Y-55730000D01*
X52795750Y-55730000D01*
X52795750Y-55370000D01*
X52205750Y-55370000D01*
X52205750Y-54460000D01*
X52795750Y-54460000D01*
X52795750Y-54100000D01*
X52205750Y-54100000D01*
X52205750Y-53190000D01*
X52795750Y-53190000D01*
X52795750Y-52830000D01*
X52195750Y-52830000D01*
X52195750Y-51920000D01*
X56845750Y-51920000D01*
G36*
X56845750Y-56640000D02*
G01*
X52205750Y-56640000D01*
X52205750Y-55730000D01*
X52795750Y-55730000D01*
X52795750Y-55370000D01*
X52205750Y-55370000D01*
X52205750Y-54460000D01*
X52795750Y-54460000D01*
X52795750Y-54100000D01*
X52205750Y-54100000D01*
X52205750Y-53190000D01*
X52795750Y-53190000D01*
X52795750Y-52830000D01*
X52195750Y-52830000D01*
X52195750Y-51920000D01*
X56845750Y-51920000D01*
X56845750Y-56640000D01*
G37*
%TO.C,Q2*%
X24835000Y-60416000D02*
X29555000Y-60416000D01*
X29555000Y-65056000D01*
X28645000Y-65056000D01*
X28645000Y-64466000D01*
X28285000Y-64466000D01*
X28285000Y-65056000D01*
X27375000Y-65056000D01*
X27375000Y-64466000D01*
X27015000Y-64466000D01*
X27015000Y-65056000D01*
X26105000Y-65056000D01*
X26105000Y-64466000D01*
X25745000Y-64466000D01*
X25745000Y-65066000D01*
X24835000Y-65066000D01*
X24835000Y-60416000D01*
G36*
X29555000Y-65056000D02*
G01*
X28645000Y-65056000D01*
X28645000Y-64466000D01*
X28285000Y-64466000D01*
X28285000Y-65056000D01*
X27375000Y-65056000D01*
X27375000Y-64466000D01*
X27015000Y-64466000D01*
X27015000Y-65056000D01*
X26105000Y-65056000D01*
X26105000Y-64466000D01*
X25745000Y-64466000D01*
X25745000Y-65066000D01*
X24835000Y-65066000D01*
X24835000Y-60416000D01*
X29555000Y-60416000D01*
X29555000Y-65056000D01*
G37*
%TD*%
D11*
%TO.C,C9*%
X62380000Y-40850000D03*
X62380000Y-37900000D03*
%TD*%
D12*
%TO.C,J1*%
X48070000Y-73820000D03*
D13*
X42990000Y-73820000D03*
X37910000Y-73820000D03*
%TD*%
D14*
%TO.C,C4*%
X39500000Y-49400000D03*
X42450000Y-49400000D03*
%TD*%
D15*
%TO.C,C8*%
X47770000Y-45850000D03*
X49320000Y-45850000D03*
%TD*%
D14*
%TO.C,C5*%
X36450000Y-53070000D03*
X39400000Y-53070000D03*
%TD*%
%TO.C,C3*%
X39500000Y-45150000D03*
X42450000Y-45150000D03*
%TD*%
%TO.C,C6*%
X36530000Y-56840000D03*
X39480000Y-56840000D03*
%TD*%
D15*
%TO.C,C7*%
X47770000Y-43340000D03*
X49320000Y-43340000D03*
%TD*%
%TO.C,C10*%
X47770000Y-48360000D03*
X49320000Y-48360000D03*
%TD*%
%TO.C,C11*%
X44860000Y-51420000D03*
X46410000Y-51420000D03*
%TD*%
D16*
%TO.C,L1*%
X44770000Y-22520000D03*
X44770000Y-32220000D03*
%TD*%
D17*
%TO.C,R7*%
X58230000Y-43290000D03*
X59880000Y-43290000D03*
%TD*%
%TO.C,R8*%
X58230000Y-45800000D03*
X59880000Y-45800000D03*
%TD*%
%TO.C,R9*%
X58230000Y-48310000D03*
X59880000Y-48310000D03*
%TD*%
%TO.C,R10*%
X52830000Y-43640000D03*
X54480000Y-43640000D03*
%TD*%
%TO.C,R11*%
X52830000Y-46150000D03*
X54480000Y-46150000D03*
%TD*%
%TO.C,R12*%
X52830000Y-48660000D03*
X54480000Y-48660000D03*
%TD*%
D18*
%TO.C,U5*%
X41625000Y-36245000D03*
X41625000Y-37515000D03*
X41625000Y-38785000D03*
X41625000Y-40055000D03*
X46565000Y-40055000D03*
X46565000Y-38785000D03*
X46565000Y-37515000D03*
X46565000Y-36245000D03*
%TD*%
D19*
%TO.C,Q_CH1*%
X58583500Y-69115000D03*
X58583500Y-70385000D03*
X58583500Y-71655000D03*
X58583500Y-72925000D03*
%TD*%
D17*
%TO.C,R16*%
X68580000Y-38800000D03*
X66930000Y-38800000D03*
%TD*%
%TO.C,R2*%
X54980000Y-35320000D03*
X53330000Y-35320000D03*
%TD*%
%TO.C,R3*%
X54980000Y-37830000D03*
X53330000Y-37830000D03*
%TD*%
%TO.C,R4*%
X54980000Y-40340000D03*
X53330000Y-40340000D03*
%TD*%
D19*
%TO.C,Q_BH1*%
X58561750Y-60625000D03*
X58561750Y-61895000D03*
X58561750Y-63165000D03*
X58561750Y-64435000D03*
%TD*%
D20*
%TO.C,C16*%
X69170000Y-67090000D03*
X69170000Y-65540000D03*
%TD*%
D15*
%TO.C,C23*%
X78510000Y-32550000D03*
X76960000Y-32550000D03*
%TD*%
D21*
%TO.C,SWD_HEADER1*%
X35450000Y-22360000D03*
D22*
X32910000Y-22360000D03*
X30370000Y-22360000D03*
X27830000Y-22360000D03*
X25290000Y-22360000D03*
X22750000Y-22360000D03*
%TD*%
D23*
%TO.C,R15*%
X66130000Y-43127500D03*
X66130000Y-49052500D03*
%TD*%
%TO.C,R13*%
X75950000Y-43127500D03*
X75950000Y-49052500D03*
%TD*%
%TO.C,R14*%
X71040000Y-43127500D03*
X71040000Y-49052500D03*
%TD*%
D24*
%TO.C,XT60*%
X21800000Y-39470000D03*
X35300000Y-39470000D03*
D25*
X32150000Y-45470000D03*
D26*
X24950000Y-45470000D03*
%TD*%
D27*
%TO.C,U1*%
X57925000Y-25200000D03*
X57925000Y-25700000D03*
X57925000Y-26200000D03*
X57925000Y-26700000D03*
X57925000Y-27200000D03*
X57925000Y-27700000D03*
X57925000Y-28200000D03*
X57925000Y-28700000D03*
X57925000Y-29200000D03*
X57925000Y-29700000D03*
X57925000Y-30200000D03*
X57925000Y-30700000D03*
X57925000Y-31200000D03*
X57925000Y-31700000D03*
X57925000Y-32200000D03*
X57925000Y-32700000D03*
D28*
X59850000Y-34625000D03*
X60350000Y-34625000D03*
X60850000Y-34625000D03*
X61350000Y-34625000D03*
X61850000Y-34625000D03*
X62350000Y-34625000D03*
X62850000Y-34625000D03*
X63350000Y-34625000D03*
X63850000Y-34625000D03*
X64350000Y-34625000D03*
X64850000Y-34625000D03*
X65350000Y-34625000D03*
X65850000Y-34625000D03*
X66350000Y-34625000D03*
X66850000Y-34625000D03*
X67350000Y-34625000D03*
D27*
X69275000Y-32700000D03*
X69275000Y-32200000D03*
X69275000Y-31700000D03*
X69275000Y-31200000D03*
X69275000Y-30700000D03*
X69275000Y-30200000D03*
X69275000Y-29700000D03*
X69275000Y-29200000D03*
X69275000Y-28700000D03*
X69275000Y-28200000D03*
X69275000Y-27700000D03*
X69275000Y-27200000D03*
X69275000Y-26700000D03*
X69275000Y-26200000D03*
X69275000Y-25700000D03*
X69275000Y-25200000D03*
D28*
X67350000Y-23275000D03*
X66850000Y-23275000D03*
X66350000Y-23275000D03*
X65850000Y-23275000D03*
X65350000Y-23275000D03*
X64850000Y-23275000D03*
X64350000Y-23275000D03*
X63850000Y-23275000D03*
X63350000Y-23275000D03*
X62850000Y-23275000D03*
X62350000Y-23275000D03*
X61850000Y-23275000D03*
X61350000Y-23275000D03*
X60850000Y-23275000D03*
X60350000Y-23275000D03*
X59850000Y-23275000D03*
%TD*%
D17*
%TO.C,R6*%
X73700000Y-73640000D03*
X75350000Y-73640000D03*
%TD*%
%TO.C,R5*%
X73700000Y-71130000D03*
X75350000Y-71130000D03*
%TD*%
D29*
%TO.C,R1*%
X33010000Y-66170000D03*
X33010000Y-67820000D03*
%TD*%
D30*
%TO.C,Q_CL1*%
X72070000Y-64435000D03*
X72070000Y-65705000D03*
X72070000Y-66975000D03*
X72070000Y-68245000D03*
%TD*%
%TO.C,Q_BL1*%
X72380000Y-58135000D03*
X72380000Y-59405000D03*
X72380000Y-60675000D03*
X72380000Y-61945000D03*
%TD*%
%TO.C,Q_AL1*%
X72160000Y-51760000D03*
X72160000Y-53030000D03*
X72160000Y-54300000D03*
X72160000Y-55570000D03*
%TD*%
D19*
%TO.C,Q_AH1*%
X58531750Y-56185000D03*
X58531750Y-54915000D03*
X58531750Y-53645000D03*
X58531750Y-52375000D03*
%TD*%
D31*
%TO.C,Q2*%
X29100000Y-58730000D03*
X27830000Y-58730000D03*
X26560000Y-58730000D03*
X25290000Y-58730000D03*
%TD*%
D32*
%TO.C,F1*%
X24180000Y-52860000D03*
D33*
X32180000Y-52860000D03*
D34*
X28180000Y-52860000D03*
%TD*%
D35*
%TO.C,D1*%
X24060000Y-72910000D03*
X24060000Y-74810000D03*
X25935000Y-73860000D03*
%TD*%
D36*
%TO.C,C26*%
X77690000Y-40240000D03*
X77690000Y-37290000D03*
%TD*%
%TO.C,C25*%
X73650000Y-40150000D03*
X73650000Y-37200000D03*
%TD*%
D15*
%TO.C,C24*%
X76960000Y-35040000D03*
X78510000Y-35040000D03*
%TD*%
%TO.C,C22*%
X77040000Y-30030000D03*
X78590000Y-30030000D03*
%TD*%
%TO.C,C21*%
X77040000Y-27520000D03*
X78590000Y-27520000D03*
%TD*%
%TO.C,C20*%
X73040000Y-35020000D03*
X74590000Y-35020000D03*
%TD*%
%TO.C,C19*%
X73040000Y-32510000D03*
X74590000Y-32510000D03*
%TD*%
%TO.C,C18*%
X73040000Y-30000000D03*
X74590000Y-30000000D03*
%TD*%
%TO.C,C17*%
X73040000Y-27490000D03*
X74590000Y-27490000D03*
%TD*%
D20*
%TO.C,C15*%
X78030000Y-73670000D03*
X78030000Y-75220000D03*
%TD*%
D37*
%TO.C,C14*%
X60480000Y-60030000D03*
X60480000Y-58480000D03*
%TD*%
%TO.C,C13*%
X60310000Y-56960000D03*
X60310000Y-55410000D03*
%TD*%
D20*
%TO.C,C12*%
X60500000Y-64630000D03*
X60500000Y-66180000D03*
%TD*%
%TO.C,C2*%
X32390000Y-61190000D03*
X32390000Y-62740000D03*
%TD*%
D38*
%TO.C,U2*%
X63595000Y-63855000D03*
X64095000Y-63855000D03*
X64595000Y-63855000D03*
X65095000Y-63855000D03*
X65595000Y-63855000D03*
X66095000Y-63855000D03*
X66595000Y-63855000D03*
X67095000Y-63855000D03*
X67595000Y-63855000D03*
X68095000Y-63855000D03*
X68095000Y-57985000D03*
X67595000Y-57985000D03*
X67095000Y-57985000D03*
X66595000Y-57985000D03*
X66095000Y-57985000D03*
X65595000Y-57985000D03*
X65095000Y-57985000D03*
X64595000Y-57985000D03*
X64095000Y-57985000D03*
X63595000Y-57985000D03*
D39*
X62910000Y-58670000D03*
X62910000Y-59170000D03*
X62910000Y-59670000D03*
X62910000Y-60170000D03*
X62910000Y-60670000D03*
X62910000Y-61170000D03*
X62910000Y-61670000D03*
X62910000Y-62170000D03*
X62910000Y-62670000D03*
X62910000Y-63170000D03*
X68780000Y-63170000D03*
X68780000Y-62670000D03*
X68780000Y-62170000D03*
X68780000Y-61670000D03*
X68780000Y-61170000D03*
X68780000Y-60670000D03*
X68780000Y-60170000D03*
X68780000Y-59670000D03*
X68780000Y-59170000D03*
X68780000Y-58670000D03*
D40*
X65845000Y-60920000D03*
%TD*%
M02*
